<?xml version="1.0" encoding="UTF-8"?>
<svg width="528px" height="100px" viewBox="0 0 528 100" version="1.1" xmlns="http://www.w3.org/2000/svg" xmlns:xlink="http://www.w3.org/1999/xlink">
    <!-- Generator: Sketch 47.1 (45422) - http://www.bohemiancoding.com/sketch -->
    <title>holla</title>
    <desc>Created with Sketch.</desc>
    <defs></defs>
    <g id="Welcome" stroke="none" stroke-width="1" fill="none" fill-rule="evenodd">
        <g id="Desktop-HD" transform="translate(-459.000000, -3326.000000)">
            <g id="Holla" transform="translate(0.000000, 3224.000000)">
                <g id="holla" transform="translate(723.042693, 148.141174) rotate(4.000000) translate(-723.042693, -148.141174) translate(455.042693, 66.141174)">
                    <path d="M481.833722,93.4272159 C481.510537,94.1618833 481.147377,94.9964857 480.744241,95.9310272 C479.820237,98.0730379 478.686248,100.341015 477.342241,102.735027 C475.998235,105.129039 474.48625,107.418016 472.806241,109.602027 C471.126233,111.786038 469.362251,113.487021 467.514241,114.705027 C465.666232,115.923033 463.734252,116.406028 461.718241,116.154027 C459.702231,115.902026 457.686252,114.51604 455.670241,111.996027 C453.486231,109.392014 452.394241,106.431044 452.394241,103.113027 C452.394241,99.7950106 452.604239,96.5400432 453.024241,93.3480272 C452.016236,95.6160386 451.008246,97.6530182 450.000241,99.4590272 C448.992236,101.265036 447.879248,102.90302 446.661241,104.373027 C445.443235,105.843035 444.120249,107.187021 442.692241,108.405027 C441.264234,109.623033 439.584251,110.736022 437.652241,111.744027 C435.972233,112.584031 434.25025,113.004027 432.486241,113.004027 C430.722233,113.004027 429.063249,112.647031 427.509241,111.933027 C425.955234,111.219024 424.611247,110.190034 423.477241,108.846027 C422.343236,107.502021 421.608243,105.906036 421.272241,104.058027 C420.93624,102.63002 420.810241,101.202034 420.894241,99.7740272 C420.978242,98.3460201 421.14624,96.9180344 421.398241,95.4900272 C422.154245,91.2060058 423.393233,87.0480474 425.115241,83.0160272 C426.83725,78.9840071 428.83223,75.1200457 431.100241,71.4240272 C431.772245,70.2480214 432.570237,69.1350325 433.494241,68.0850272 C434.418246,67.035022 435.552235,66.3840285 436.896241,66.1320272 C437.988247,65.9640264 439.374233,66.0690253 441.054241,66.4470272 C442.73425,66.8250291 443.910238,67.6020214 444.582241,68.7780272 C445.002244,69.6180314 445.044243,70.5000226 444.708241,71.4240272 C444.37224,72.3480319 443.994244,73.1880235 443.574241,73.9440272 L439.479241,81.3150272 C438.009234,83.9610405 436.728247,86.6910132 435.636241,89.5050272 C434.544236,92.3190413 433.809243,95.1750127 433.431241,98.0730272 C433.05324,100.971042 433.326237,103.806013 434.250241,106.578027 C437.022255,105.06602 439.52123,103.113039 441.747241,100.719027 C443.973253,98.3250153 445.968233,95.7000415 447.732241,92.8440272 C449.49625,89.988013 451.071235,87.0060428 452.457241,83.8980272 C453.843248,80.7900117 455.082236,77.8500411 456.174241,75.0780272 C456.762244,73.6500201 457.644236,72.5370312 458.820241,71.7390272 C459.996247,70.9410232 461.130236,70.5210274 462.222241,70.4790272 C463.314247,70.437027 464.217238,70.8570228 464.931241,71.7390272 C465.645245,72.6210316 465.918242,74.0700172 465.750241,76.0860272 C465.49824,78.438039 465.057245,81.1050123 464.427241,84.0870272 C463.797238,87.0690421 463.230244,90.1140117 462.726241,93.2220272 C462.222239,96.3300428 461.928242,99.3960121 461.844241,102.420027 C461.760241,105.444042 462.180237,108.174015 463.104241,110.610027 C467.052261,108.258015 470.118231,105.150047 472.302241,101.286027 C474.250861,97.8384704 476.032283,94.2237894 477.646551,90.4418974 C477.278803,90.028832 476.946366,89.5905422 476.649241,89.1270272 C475.599236,87.489019 475.368238,85.4520394 475.956241,83.0160272 C476.292243,81.3360188 476.964236,79.6770354 477.972241,78.0390272 C478.980246,76.401019 480.156235,74.8470346 481.500241,73.3770272 C482.844248,71.9070199 484.314233,70.6050329 485.910241,69.4710272 C487.506249,68.3370216 489.144233,67.4760302 490.824241,66.8880272 C493.260254,66.048023 495.843228,65.9010245 498.573241,66.4470272 C501.303255,66.99303 503.508233,68.3160167 505.188241,70.4160272 C505.608244,70.9200298 505.881241,71.5290237 506.007241,72.2430272 C506.133242,72.9570308 505.986244,73.5240251 505.566241,73.9440272 C504.894238,74.5320302 504.138246,74.6160293 503.298241,74.1960272 C502.458237,73.7760251 501.576246,73.6500264 500.652241,73.8180272 C500.40024,73.8180272 500.127243,73.8810266 499.833241,74.0070272 C499.53924,74.1330279 499.266243,74.2800264 499.014241,74.4480272 C493.974216,77.3880419 490.236254,81.5040008 487.800241,86.7960272 C489.312249,86.3760251 490.782234,85.8300306 492.210241,85.1580272 L496.494241,83.1420272 C500.106259,81.3780184 503.382227,80.6430258 506.322241,80.9370272 C509.262256,81.2310287 511.572233,82.2600184 513.252241,84.0240272 C514.93225,85.7880361 515.835241,88.2030119 515.961241,91.2690272 C516.087242,94.3350426 515.184251,97.7580083 513.252241,101.538027 C516.108256,101.538027 518.64923,100.593037 520.875241,98.7030272 C523.101253,96.8130178 524.802236,94.6500394 525.978241,92.2140272 L527.364241,89.0640272 C527.700243,88.3920239 528.183238,87.9300285 528.813241,87.6780272 C529.443245,87.426026 530.094238,87.426026 530.766241,87.6780272 C531.438245,88.0140289 531.87924,88.4970241 532.089241,89.1270272 C532.299242,89.7570304 532.278243,90.4080239 532.026241,91.0800272 C531.102237,93.0960373 529.947248,95.0910174 528.561241,97.0650272 C527.175235,99.0390371 525.60025,100.78202 523.836241,102.294027 C522.072233,103.806035 520.098252,104.982023 517.914241,105.822027 C515.730231,106.662031 513.420254,106.872029 510.984241,106.452027 C509.640235,108.804039 508.044251,110.904018 506.196241,112.752027 C504.348232,114.600036 502.206254,116.112021 499.770241,117.288027 C498.594236,117.79203 497.040251,118.191026 495.108241,118.485027 C493.176232,118.779029 491.244251,118.800028 489.312241,118.548027 C487.380232,118.296026 485.679249,117.729032 484.209241,116.847027 C482.739234,115.965023 481.878243,114.600036 481.626241,112.752027 C481.37424,110.484016 481.983234,108.489036 483.453241,106.767027 C484.923249,105.045019 486.79223,103.659032 489.060241,102.609027 C491.328253,101.559022 493.743229,100.866029 496.305241,100.530027 C498.867254,100.194026 501.072232,100.278025 502.920241,100.782027 L503.928241,101.034027 C504.264243,101.118028 504.516241,100.950029 504.684241,100.530027 C507.540256,95.6580029 509.052241,92.046039 509.220241,89.6940272 C509.388242,87.3420155 508.61125,85.9770291 506.889241,85.5990272 C505.167233,85.2210253 502.752257,85.6830207 499.644241,86.9850272 C496.536226,88.2870337 493.218259,90.1560151 489.690241,92.5920272 C488.346235,93.5160319 487.002248,94.0410266 485.658241,94.1670272 C484.50672,94.2749824 483.23189,94.0283809 481.833722,93.4272159 Z M341.461935,106.002208 C341.289713,106.385119 341.118149,106.766058 340.947241,107.145027 C339.981237,109.287038 339.246244,110.778023 338.742241,111.618027 C338.070238,112.710033 337.293246,113.886021 336.411241,115.146027 C335.529237,116.406034 334.542247,117.561022 333.450241,118.611027 C332.358236,119.661032 331.182248,120.522024 329.922241,121.194027 C328.662235,121.866031 327.276249,122.202027 325.764241,122.202027 C324.588236,122.202027 323.433247,122.013029 322.299241,121.635027 C321.165236,121.257025 320.220245,120.606032 319.464241,119.682027 C318.624237,118.758023 318.078243,117.645034 317.826241,116.343027 C317.57424,115.041021 317.406242,113.718034 317.322241,112.374027 C316.902239,104.89799 317.910229,97.7580613 320.346241,90.9540272 C319.170236,92.5500352 317.910248,94.4400163 316.566241,96.6240272 C315.222235,98.8080382 313.773249,100.971017 312.219241,103.113027 C310.665234,105.255038 309.02725,107.271018 307.305241,109.161027 C305.583233,111.051037 303.693252,112.563022 301.635241,113.697027 C299.577231,114.831033 297.330254,115.398027 294.894241,115.398027 C292.458229,115.398027 289.854255,114.600035 287.082241,113.004027 C284.898231,110.988017 283.533244,108.573041 282.987241,105.759027 C282.441239,102.945013 282.33624,99.7740449 282.672241,96.2460272 C282.924243,93.6420142 283.428238,90.9540411 284.184241,88.1820272 C284.940245,85.4100134 286.011235,82.7640398 287.397241,80.2440272 C288.783248,77.7240146 290.484231,75.4770371 292.500241,73.5030272 C294.516252,71.5290174 296.910228,69.9960327 299.682241,68.9040272 C303.46226,67.3920197 307.431221,67.0140235 311.589241,67.7700272 C315.747262,68.526031 319.464225,70.1220151 322.740241,72.5580272 C323.412245,73.0620298 324.084238,73.5870245 324.756241,74.1330272 C325.428245,74.67903 326.226237,75.0360264 327.150241,75.2040272 C327.738244,75.3720281 328.326238,75.477027 328.914241,75.5190272 C329.502244,75.5610274 330.006239,75.7920251 330.426241,76.2120272 C330.930244,76.6320293 331.203241,77.1990237 331.245241,77.9130272 C331.287242,78.6270308 331.266242,79.3200239 331.182241,79.9920272 C330.510238,80.9160319 329.796245,82.806013 329.040241,85.6620272 C328.284238,88.5180415 327.612244,91.6890098 327.024241,95.1750272 C326.436238,98.6610447 326.016243,102.12601 325.764241,105.570027 C325.51224,109.014044 325.57524,111.702018 325.953241,113.634027 C326.331243,115.566037 327.129235,116.427028 328.347241,116.217027 C329.565248,116.007026 331.30823,114.054046 333.576241,110.358027 C334.752247,108.510018 335.760237,106.578037 336.600241,104.562027 C337.440246,102.546017 338.322237,100.530037 339.246241,98.5140272 L341.54503,93.2895082 C341.892832,90.5712392 342.407568,87.881753 343.089241,85.2210272 C344.391248,80.1390018 345.924233,75.0780524 347.688241,70.0380272 C344.748227,69.4500243 342.732247,68.7150316 341.640241,67.8330272 C340.548236,66.9510228 340.17024,66.0900314 340.506241,65.2500272 C340.842243,64.410023 341.829233,63.6960302 343.467241,63.1080272 C345.10525,62.5200243 347.226228,62.2260272 349.830241,62.2260272 C350.670246,62.2260272 351.300239,62.1210283 351.720241,61.9110272 C352.140244,61.7010262 352.560239,61.2600306 352.980241,60.5880272 C354.156247,58.740018 355.92023,56.7870375 358.272241,54.7290272 C360.624253,52.6710169 363.165228,51.0540331 365.895241,49.8780272 C368.625255,48.7020214 371.313228,48.3030253 373.959241,48.6810272 C376.605255,49.0590291 378.810233,50.7600121 380.574241,53.7840272 C381.246245,55.0440335 381.666241,56.3880201 381.834241,57.8160272 C382.002242,59.2440344 382.044242,60.6720201 381.960241,62.1000272 C382.716245,62.1000272 383.682236,62.3520247 384.858241,62.8560272 C386.034247,63.3600298 387.084237,63.9270241 388.008241,64.5570272 C388.932246,65.1870304 389.604239,65.8170241 390.024241,66.4470272 C390.444244,67.0770304 390.360244,67.518026 389.772241,67.7700272 C389.352239,67.9380281 388.743245,68.043027 387.945241,68.0850272 C387.147237,68.1270274 386.286246,68.1270274 385.362241,68.0850272 C384.438237,68.043027 383.535246,68.0010274 382.653241,67.9590272 C381.771237,67.917027 381.078244,67.8960272 380.574241,67.8960272 C379.398236,69.7440365 377.760252,71.8440155 375.660241,74.1960272 C373.560231,76.548039 371.292254,78.8580159 368.856241,81.1260272 C366.420229,83.3940386 363.963254,85.4730178 361.485241,87.3630272 C359.007229,89.2530367 356.760252,90.7020222 354.744241,91.7100272 C354.324239,93.7260373 354.030242,95.7840167 353.862241,97.8840272 C353.694241,99.9840377 353.694241,102.084017 353.862241,104.184027 C353.946242,104.856031 354.15624,105.94802 354.492241,107.460027 C354.828243,108.972035 355.290238,110.48402 355.878241,111.996027 C356.466244,113.508035 357.201237,114.831022 358.083241,115.965027 C358.965246,117.099033 359.952236,117.582028 361.044241,117.414027 C363.060252,116.994025 365.013232,115.587039 366.903241,113.193027 C368.793251,110.799015 370.515234,108.090042 372.069241,105.066027 C373.623249,102.042012 375.009235,99.0390421 376.227241,96.0570272 C377.445248,93.0750123 378.432238,90.7440356 379.188241,89.0640272 C379.440243,88.3920239 379.902238,87.9300285 380.574241,87.6780272 C381.246245,87.426026 381.918238,87.426026 382.590241,87.6780272 C383.262245,88.0140289 383.72424,88.4970241 383.976241,89.1270272 C384.228243,89.7570304 384.186243,90.4080239 383.850241,91.0800272 C382.842236,93.432039 381.708248,96.2460109 380.448241,99.5220272 C379.188235,102.798044 377.69725,106.011011 375.975241,109.161027 C374.253233,112.311043 372.258253,115.104015 369.990241,117.540027 C367.72223,119.976039 365.034257,121.488024 361.926241,122.076027 C358.566225,122.832031 355.584254,122.727032 352.980241,121.761027 C350.376228,120.795022 348.19225,119.283038 346.428241,117.225027 C344.664233,115.167017 343.320246,112.689042 342.396241,109.791027 C341.999728,108.547417 341.688293,107.28448 341.461935,106.002208 Z M179.152262,104.12013 C178.648895,105.137412 178.127556,106.14571 177.588241,107.145027 C176.160234,109.79104 174.56425,112.290015 172.800241,114.642027 C171.036233,116.994039 169.020253,119.052018 166.752241,120.816027 C164.652231,121.992033 162.405253,122.643027 160.011241,122.769027 C157.617229,122.895028 155.307253,122.601031 153.081241,121.887027 C150.85523,121.173024 148.776251,120.060035 146.844241,118.548027 C144.912232,117.03602 143.400247,115.188038 142.308241,113.004027 C141.343282,111.244396 140.618057,109.312181 140.132558,107.207356 C138.71315,109.830292 137.128393,112.308491 135.378241,114.642027 C133.614233,116.994039 131.598253,119.052018 129.330241,120.816027 C127.230231,121.992033 124.983253,122.643027 122.589241,122.769027 C120.195229,122.895028 117.885253,122.601031 115.659241,121.887027 C113.43323,121.173024 111.354251,120.060035 109.422241,118.548027 C107.490232,117.03602 105.978247,115.188038 104.886241,113.004027 C103.458234,110.400014 102.555243,107.418044 102.177241,104.058027 C102.156451,103.873223 102.136677,103.688165 102.117919,103.502854 C101.766891,103.885546 101.408665,104.259604 101.043241,104.625027 C99.0692316,106.599037 96.8432538,108.153022 94.3652414,109.287027 C91.887229,110.421033 89.2202557,110.69403 86.3642414,110.106027 L84.2222414,112.248027 C83.4662377,113.004031 82.5002473,113.718024 81.3242414,114.390027 C79.1402305,115.734034 76.7462545,116.658025 74.1422414,117.162027 C71.5382284,117.66603 68.9342545,117.708029 66.3302414,117.288027 C63.8942293,116.868025 61.5632526,116.007034 59.3372414,114.705027 C57.1112303,113.403021 55.4522469,111.45004 54.3602414,108.846027 C53.5202372,106.914018 53.0792416,104.877038 53.0372414,102.735027 C52.9952412,100.593017 53.2262389,98.4720377 53.7302414,96.3720272 C54.3182444,94.2720167 55.1162364,92.2770367 56.1242414,90.3870272 C57.1322465,88.4970178 58.2242356,86.7120356 59.4002414,85.0320272 C59.7362431,84.5280247 59.946241,84.0870291 60.0302414,83.7090272 C60.1142419,83.3310253 60.1562414,82.8060306 60.1562414,82.1340272 C59.9882406,80.4540188 59.9672408,78.7320361 60.0932414,76.9680272 C60.2192421,75.2040184 60.5762385,73.4820356 61.1642414,71.8020272 C62.0882461,68.946013 63.7052299,66.6990354 66.0152414,65.0610272 C68.325253,63.423019 71.0762255,62.6040272 74.2682414,62.6040272 C78.1322608,62.6040272 81.5342267,63.4650186 84.4742414,65.1870272 C87.4142561,66.9090358 89.7662326,69.1560134 91.5302414,71.9280272 C93.2942503,74.7000411 94.4702385,77.8290098 95.0582414,81.3150272 C95.6462444,84.8010447 95.5622452,88.3080096 94.8062414,91.8360272 C94.3022389,94.1040386 93.6302456,96.3300163 92.7902414,98.5140272 C91.9502372,100.698038 91.0682461,102.882016 90.1442414,105.066027 C93.7562595,103.890021 96.7172299,101.937041 99.0272414,99.2070272 C100.026364,98.0262462 100.99798,96.7236901 101.942096,95.2993507 C101.971,94.7767799 102.007382,94.2523388 102.051241,93.7260272 C102.345243,90.1980096 102.891237,86.7120445 103.689241,83.2680272 C104.487245,79.82401 105.390236,76.7160411 106.398241,73.9440272 C106.902244,72.3480193 107.721236,70.3320394 108.855241,67.8960272 C109.989247,65.4600151 111.333234,62.96104 112.887241,60.3990272 C114.441249,57.8370144 116.205232,55.380039 118.179241,53.0280272 C120.153251,50.6760155 122.232231,48.828034 124.416241,47.4840272 C126.600252,46.1400205 128.86823,45.4680272 131.220241,45.4680272 C133.572253,45.4680272 135.966229,46.5180167 138.402241,48.6180272 C140.08225,50.1300348 141.153239,52.0200159 141.615241,54.2880272 C142.077244,56.5560386 142.140243,58.7820163 141.804241,60.9660272 C141.216238,64.4100445 140.04025,67.6020125 138.276241,70.5420272 C136.512233,73.4820419 134.454253,76.2120146 132.102241,78.7320272 C129.75023,81.1680394 127.251255,83.4780163 124.605241,85.6620272 C121.959228,87.8460382 119.334254,90.0300163 116.730241,92.2140272 C116.142238,92.8020302 115.722243,93.3270249 115.470241,93.7890272 C115.21824,94.2510295 115.008242,94.8600235 114.840241,95.6160272 C114.58824,98.5560419 114.65124,101.454013 115.029241,104.310027 C115.407243,107.166042 116.226235,109.896014 117.486241,112.500027 C118.914249,115.356042 120.426233,116.973025 122.022241,117.351027 C123.618249,117.729029 125.256233,117.288034 126.936241,116.028027 C128.61625,114.768021 130.254233,112.920039 131.850241,110.484027 C133.446249,108.048015 134.958234,105.486041 136.386241,102.798027 C137.43556,100.82284 138.405495,98.8930291 139.296062,97.0085648 C139.322316,95.9225899 139.381376,94.8284118 139.473241,93.7260272 C139.767243,90.1980096 140.313237,86.7120445 141.111241,83.2680272 C141.909245,79.82401 142.812236,76.7160411 143.820241,73.9440272 C144.324244,72.3480193 145.143236,70.3320394 146.277241,67.8960272 C147.411247,65.4600151 148.755234,62.96104 150.309241,60.3990272 C151.863249,57.8370144 153.627232,55.380039 155.601241,53.0280272 C157.575251,50.6760155 159.654231,48.828034 161.838241,47.4840272 C164.022252,46.1400205 166.29023,45.4680272 168.642241,45.4680272 C170.994253,45.4680272 173.388229,46.5180167 175.824241,48.6180272 C177.50425,50.1300348 178.575239,52.0200159 179.037241,54.2880272 C179.499244,56.5560386 179.562243,58.7820163 179.226241,60.9660272 C178.638238,64.4100445 177.46225,67.6020125 175.698241,70.5420272 C173.934233,73.4820419 171.876253,76.2120146 169.524241,78.7320272 C167.17223,81.1680394 164.673255,83.4780163 162.027241,85.6620272 C159.381228,87.8460382 156.756254,90.0300163 154.152241,92.2140272 C153.564238,92.8020302 153.144243,93.3270249 152.892241,93.7890272 C152.64024,94.2510295 152.430242,94.8600235 152.262241,95.6160272 C152.01024,98.5560419 152.07324,101.454013 152.451241,104.310027 C152.829243,107.166042 153.648235,109.896014 154.908241,112.500027 C156.336249,115.356042 157.848233,116.973025 159.444241,117.351027 C161.040249,117.729029 162.678233,117.288034 164.358241,116.028027 C166.03825,114.768021 167.676233,112.920039 169.272241,110.484027 C170.868249,108.048015 172.380234,105.486041 173.808241,102.798027 C175.236249,100.110014 176.517236,97.5060398 177.651241,94.9860272 C178.785247,92.4660146 179.688238,90.4920344 180.360241,89.0640272 C180.372795,89.0389201 180.385554,89.014106 180.398518,88.9895851 C180.467368,88.7211963 180.53861,88.4520104 180.612241,88.1820272 C181.368245,85.4100134 182.439235,82.7640398 183.825241,80.2440272 C185.211248,77.7240146 186.912231,75.4770371 188.928241,73.5030272 C190.944252,71.5290174 193.338228,69.9960327 196.110241,68.9040272 C199.89026,67.3920197 203.859221,67.0140235 208.017241,67.7700272 C212.175262,68.526031 215.892225,70.1220151 219.168241,72.5580272 C219.840245,73.0620298 220.512238,73.5870245 221.184241,74.1330272 C221.856245,74.67903 222.654237,75.0360264 223.578241,75.2040272 C224.166244,75.3720281 224.754238,75.477027 225.342241,75.5190272 C225.930244,75.5610274 226.434239,75.7920251 226.854241,76.2120272 C227.358244,76.6320293 227.631241,77.1990237 227.673241,77.9130272 C227.715242,78.6270308 227.694242,79.3200239 227.610241,79.9920272 C226.938238,80.9160319 226.224245,82.806013 225.468241,85.6620272 C224.712238,88.5180415 224.040244,91.6890098 223.452241,95.1750272 C222.864238,98.6610447 222.444243,102.12601 222.192241,105.570027 C221.94024,109.014044 222.00324,111.702018 222.381241,113.634027 C222.759243,115.566037 223.557235,116.427028 224.775241,116.217027 C225.993248,116.007026 227.73623,114.054046 230.004241,110.358027 C231.180247,108.510018 232.188237,106.578037 233.028241,104.562027 C233.868246,102.546017 234.750237,100.530037 235.674241,98.5140272 L239.832241,89.0640272 C240.168243,88.3920239 240.630238,87.9300285 241.218241,87.6780272 C241.806244,87.426026 242.436238,87.426026 243.108241,87.6780272 C243.780245,88.0140289 244.24224,88.4970241 244.494241,89.1270272 C244.746243,89.7570304 244.746243,90.4080239 244.494241,91.0800272 C244.326241,91.3320285 243.843245,92.4030178 243.045241,94.2930272 C242.247237,96.1830367 241.344246,98.2620159 240.336241,100.530027 C239.328236,102.798039 238.341246,105.003017 237.375241,107.145027 C236.409237,109.287038 235.674244,110.778023 235.170241,111.618027 C234.498238,112.710033 233.721246,113.886021 232.839241,115.146027 C231.957237,116.406034 230.970247,117.561022 229.878241,118.611027 C228.786236,119.661032 227.610248,120.522024 226.350241,121.194027 C225.090235,121.866031 223.704249,122.202027 222.192241,122.202027 C221.016236,122.202027 219.861247,122.013029 218.727241,121.635027 C217.593236,121.257025 216.648245,120.606032 215.892241,119.682027 C215.052237,118.758023 214.506243,117.645034 214.254241,116.343027 C214.00224,115.041021 213.834242,113.718034 213.750241,112.374027 C213.330239,104.89799 214.338229,97.7580613 216.774241,90.9540272 C215.598236,92.5500352 214.338248,94.4400163 212.994241,96.6240272 C211.650235,98.8080382 210.201249,100.971017 208.647241,103.113027 C207.093234,105.255038 205.45525,107.271018 203.733241,109.161027 C202.011233,111.051037 200.121252,112.563022 198.063241,113.697027 C196.005231,114.831033 193.758254,115.398027 191.322241,115.398027 C188.886229,115.398027 186.282255,114.600035 183.510241,113.004027 C181.326231,110.988017 179.961244,108.573041 179.415241,105.759027 C179.311732,105.225557 179.224072,104.679258 179.152262,104.12013 Z M11.1422414,47.3580272 C11.646244,46.4340226 12.3812366,45.6570304 13.3472414,45.0270272 C14.3132463,44.3970241 15.342236,44.0190279 16.4342414,43.8930272 C17.5262469,43.7670266 18.5762364,43.9770245 19.5842414,44.5230272 C20.5922465,45.06903 21.3062393,46.0560201 21.7262414,47.4840272 C21.8942423,48.0720302 21.9992412,48.7440235 22.0412414,49.5000272 C22.0832416,50.256031 22.0622419,51.5160184 21.9782414,53.2800272 C21.894241,55.0440361 21.7262427,57.5010115 21.4742414,60.6510272 C21.2222402,63.801043 20.844244,68.0640004 20.3402414,73.4400272 C20.256241,74.2800314 20.6762368,74.8680256 21.6002414,75.2040272 C22.5242461,75.5400289 23.6792345,75.729027 25.0652414,75.7710272 C26.4512484,75.8130274 27.984233,75.7290283 29.6642414,75.5190272 C31.3442498,75.3090262 32.9192341,75.0570287 34.3892414,74.7630272 C35.8592488,74.4690258 37.0982364,74.1960285 38.1062414,73.9440272 C39.1142465,73.692026 39.660241,73.5240277 39.7442414,73.4400272 C39.7442414,73.3560268 39.8492404,72.7680327 40.0592414,71.6760272 C40.2692425,70.5840218 40.4582406,69.2400352 40.6262414,67.6440272 C41.130244,63.3600058 41.5922393,59.8320411 42.0122414,57.0600272 C42.4322435,54.2880134 42.8732391,52.0620356 43.3352414,50.3820272 C43.7972437,48.7020188 44.2802389,47.4210316 44.7842414,46.5390272 C45.288244,45.6570228 45.8762381,45.0060293 46.5482414,44.5860272 C47.2202448,44.0820247 47.997237,43.8090274 48.8792414,43.7670272 C49.7612458,43.725027 50.643237,43.830026 51.5252414,44.0820272 C52.4072458,44.3340285 53.2052379,44.7330245 53.9192414,45.2790272 C54.633245,45.82503 55.1582398,46.518023 55.4942414,47.3580272 C55.7462427,47.9460302 55.8302419,48.9120205 55.7462414,50.2560272 C55.662241,51.600034 55.4522431,53.4480155 55.1162414,55.8000272 C54.7802398,57.8160373 54.3812437,60.4830106 53.9192414,63.8010272 C53.4572391,67.1190438 53.0162435,70.50001 52.5962414,73.9440272 C52.1762393,77.3880445 51.7982431,80.6010123 51.4622414,83.5830272 C51.1262398,86.5650421 50.9162419,88.7280205 50.8322414,90.0720272 C50.748241,91.0800323 50.6222423,92.4240188 50.4542414,94.1040272 C50.2862406,95.7840356 50.0972425,97.5270182 49.8872414,99.3330272 C49.6772404,101.139036 49.4252429,102.819019 49.1312414,104.373027 C48.83724,105.927035 48.5222431,107.082023 48.1862414,107.838027 C47.9342402,108.42603 47.2202473,108.825026 46.0442414,109.035027 C44.8682356,109.245028 43.8182461,109.140029 42.8942414,108.720027 C41.3822339,107.964023 40.3112446,106.28404 39.6812414,103.680027 C39.0512383,101.076014 38.6732421,98.199043 38.5472414,95.0490272 C38.4212408,91.8990115 38.4422406,88.7910426 38.6102414,85.7250272 C38.7782423,82.6590119 38.9462406,80.3280352 39.1142414,78.7320272 C38.4422381,79.4040306 37.0772517,79.8870258 35.0192414,80.1810272 C32.9612311,80.4750287 30.8192526,80.6640268 28.5932414,80.7480272 C26.3672303,80.8320277 24.3512505,80.895027 22.5452414,80.9370272 C20.7392324,80.9790274 19.7942419,81.126026 19.7102414,81.3780272 C19.4582402,83.2260365 19.2272425,85.2420163 19.0172414,87.4260272 C18.8072404,89.6100382 18.6182423,91.8360159 18.4502414,94.1040272 C18.2822406,96.3720386 18.1562419,98.6190161 18.0722414,100.845027 C17.988241,103.071038 17.9462414,105.150018 17.9462414,107.082027 C17.9462414,108.090032 17.589245,108.909024 16.8752414,109.539027 C16.1612379,110.16903 15.3212463,110.589026 14.3552414,110.799027 C13.3892366,111.009028 12.3812467,111.030028 11.3312414,110.862027 C10.2812362,110.694026 9.4202448,110.274031 8.74824144,109.602027 C8.24423892,109.098025 7.8662427,108.384032 7.61424144,107.460027 C7.36224018,106.536023 7.06824312,104.646042 6.73224144,101.790027 C6.5642406,100.530021 6.45924165,99.1860344 6.41724144,97.7580272 C6.37524123,96.3300201 6.37524123,94.6710367 6.41724144,92.7810272 C6.45924165,90.8910178 6.54324081,88.7070396 6.66924144,86.2290272 C6.79524207,83.7510148 6.98424018,80.9160432 7.23624144,77.7240272 C7.65624354,72.8520029 8.03423976,68.6730447 8.37024144,65.1870272 C8.70624312,61.7010098 9.02123997,58.7610392 9.31524144,56.3670272 C9.60924291,53.9730153 9.90323997,52.0620344 10.1972414,50.6340272 C10.4912429,49.2060201 10.8062398,48.114031 11.1422414,47.3580272 Z M80.1902414,107.964027 C78.1742314,106.956022 76.5152479,106.011032 75.2132414,105.129027 C73.9112349,104.247023 72.7772463,103.407031 71.8112414,102.609027 C70.8452366,101.811023 69.9842452,101.013031 69.2282414,100.215027 C68.4722377,99.4170232 67.6322461,98.5560319 66.7082414,97.6320272 C66.624241,97.6320272 66.4982423,97.9470241 66.3302414,98.5770272 C66.1622406,99.2070304 65.9942423,99.8580239 65.8262414,100.530027 C65.3222389,103.218041 65.2592395,105.507018 65.6372414,107.397027 C66.0152433,109.287037 66.7922356,110.652023 67.9682414,111.492027 C69.1442473,112.332031 70.677232,112.563029 72.5672414,112.185027 C74.4572509,111.807025 76.6622288,110.652037 79.1822414,108.720027 L80.1902414,107.964027 Z M86.9942414,99.2700272 C88.0022465,97.2540172 88.7372391,95.0070396 89.1992414,92.5290272 C89.6612437,90.0510148 89.7872425,87.5520398 89.5772414,85.0320272 C89.3672404,82.5120146 88.7792463,80.076039 87.8132414,77.7240272 C86.8472366,75.3720155 85.3982511,73.2720365 83.4662414,71.4240272 C81.7022326,69.6600184 79.8752509,68.4630304 77.9852414,67.8330272 C76.095232,67.2030241 74.3732492,67.2030241 72.8192414,67.8330272 C71.2652337,68.4630304 69.9842465,69.702018 68.9762414,71.5500272 C67.9682364,73.3980365 67.4642414,75.8760117 67.4642414,78.9840272 C69.3122507,78.8160264 71.0552332,78.9840247 72.6932414,79.4880272 C74.3312496,79.9920298 75.4862381,80.5800239 76.1582414,81.2520272 C76.5782435,81.8400302 76.7462419,82.3230253 76.6622414,82.7010272 C76.578241,83.0790291 76.2002448,83.6040239 75.5282414,84.2760272 C74.3522356,85.3680327 73.1552475,86.5860205 71.9372414,87.9300272 C70.7192353,89.274034 70.1102414,90.1140256 70.1102414,90.4500272 C70.1102414,90.6180281 70.25724,90.9330249 70.5512414,91.3950272 C70.8452429,91.8570295 71.2022393,92.4030241 71.6222414,93.0330272 C72.0422435,93.6630304 72.4832391,94.3140239 72.9452414,94.9860272 C73.4072437,95.6580306 73.8482393,96.2460247 74.2682414,96.7500272 C74.6042431,97.1700293 75.1922372,97.800023 76.0322414,98.6400272 C76.8722456,99.4800314 77.7542368,100.320023 78.6782414,101.160027 C79.6022461,102.000031 80.5262368,102.714024 81.4502414,103.302027 C82.3742461,103.89003 83.0882389,104.184027 83.5922414,104.184027 C83.7602423,104.184027 84.2432374,103.617033 85.0412414,102.483027 C85.8392454,101.349022 86.4902389,100.278032 86.9942414,99.2700272 Z M117.990241,78.9840272 C117.73824,79.740031 117.507242,80.538023 117.297241,81.3780272 C117.08724,82.2180314 116.877242,83.0160235 116.667241,83.7720272 C116.45724,84.528031 116.310242,85.1580247 116.226241,85.6620272 C116.142241,86.1660298 116.142241,86.4180272 116.226241,86.4180272 L117.234241,85.5990272 C117.906245,85.0530245 118.683237,84.3600314 119.565241,83.5200272 C120.447246,82.680023 121.350237,81.7980319 122.274241,80.8740272 L124.668241,78.4800272 C128.44826,74.6160079 131.199233,70.9410447 132.921241,67.4550272 C134.64325,63.9690098 135.504241,60.4620449 135.504241,56.9340272 C135.504241,55.4220197 135.231244,54.5820281 134.685241,54.4140272 C134.139239,54.2460264 133.446246,54.4770241 132.606241,55.1070272 C131.766237,55.7370304 130.842246,56.6400214 129.834241,57.8160272 C128.826236,58.9920331 127.881246,60.1890211 126.999241,61.4070272 C126.117237,62.6250333 125.319245,63.759022 124.605241,64.8090272 C123.891238,65.8590325 123.450242,66.5520256 123.282241,66.8880272 C121.098231,70.4160449 119.334248,74.4480046 117.990241,78.9840272 Z M155.412241,78.9840272 C155.16024,79.740031 154.929242,80.538023 154.719241,81.3780272 C154.50924,82.2180314 154.299242,83.0160235 154.089241,83.7720272 C153.87924,84.528031 153.732242,85.1580247 153.648241,85.6620272 C153.564241,86.1660298 153.564241,86.4180272 153.648241,86.4180272 L154.656241,85.5990272 C155.328245,85.0530245 156.105237,84.3600314 156.987241,83.5200272 C157.869246,82.680023 158.772237,81.7980319 159.696241,80.8740272 L162.090241,78.4800272 C165.87026,74.6160079 168.621233,70.9410447 170.343241,67.4550272 C172.06525,63.9690098 172.926241,60.4620449 172.926241,56.9340272 C172.926241,55.4220197 172.653244,54.5820281 172.107241,54.4140272 C171.561239,54.2460264 170.868246,54.4770241 170.028241,55.1070272 C169.188237,55.7370304 168.264246,56.6400214 167.256241,57.8160272 C166.248236,58.9920331 165.303246,60.1890211 164.421241,61.4070272 C163.539237,62.6250333 162.741245,63.759022 162.027241,64.8090272 C161.313238,65.8590325 160.872242,66.5520256 160.704241,66.8880272 C158.520231,70.4160449 156.756248,74.4480046 155.412241,78.9840272 Z M199.764241,100.530027 C201.108248,98.9340193 202.725232,96.960039 204.615241,94.6080272 C206.505251,92.2560155 208.332233,89.9460386 210.096241,87.6780272 C211.86025,85.4100159 213.372235,83.4570354 214.632241,81.8190272 C215.892248,80.181019 216.522241,79.2780281 216.522241,79.1100272 C216.522241,78.6060247 216.333243,78.1020298 215.955241,77.5980272 C215.57724,77.0940247 215.136244,76.5900298 214.632241,76.0860272 C214.128239,75.5820247 213.582244,75.1410291 212.994241,74.7630272 C212.406238,74.3850253 211.902244,74.1120281 211.482241,73.9440272 C209.13023,72.8520218 206.883252,72.8730216 204.741241,74.0070272 C202.599231,75.1410329 200.66725,76.8000163 198.945241,78.9840272 C197.223233,81.1680382 195.795247,83.6040138 194.661241,86.2920272 C193.527236,88.9800407 192.750244,91.248018 192.330241,93.0960272 C191.826239,95.8680411 191.469242,98.3880159 191.259241,100.656027 C191.04924,102.924039 191.154239,104.562022 191.574241,105.570027 C191.994244,106.578032 192.855235,106.746031 194.157241,106.074027 C195.459248,105.402024 197.328229,103.554042 199.764241,100.530027 Z M303.336241,100.530027 C304.680248,98.9340193 306.297232,96.960039 308.187241,94.6080272 C310.077251,92.2560155 311.904233,89.9460386 313.668241,87.6780272 C315.43225,85.4100159 316.944235,83.4570354 318.204241,81.8190272 C319.464248,80.181019 320.094241,79.2780281 320.094241,79.1100272 C320.094241,78.6060247 319.905243,78.1020298 319.527241,77.5980272 C319.14924,77.0940247 318.708244,76.5900298 318.204241,76.0860272 C317.700239,75.5820247 317.154244,75.1410291 316.566241,74.7630272 C315.978238,74.3850253 315.474244,74.1120281 315.054241,73.9440272 C312.70223,72.8520218 310.455252,72.8730216 308.313241,74.0070272 C306.171231,75.1410329 304.23925,76.8000163 302.517241,78.9840272 C300.795233,81.1680382 299.367247,83.6040138 298.233241,86.2920272 C297.099236,88.9800407 296.322244,91.248018 295.902241,93.0960272 C295.398239,95.8680411 295.041242,98.3880159 294.831241,100.656027 C294.62124,102.924039 294.726239,104.562022 295.146241,105.570027 C295.566244,106.578032 296.427235,106.746031 297.729241,106.074027 C299.031248,105.402024 300.900229,103.554042 303.336241,100.530027 Z M373.392241,68.0220272 C371.12423,68.0220272 369.192249,68.1270262 367.596241,68.3370272 C366.000233,68.5470283 364.446249,68.6520272 362.934241,68.6520272 C362.514239,68.6520272 361.863246,69.576018 360.981241,71.4240272 C360.099237,73.2720365 359.280245,75.2670165 358.524241,77.4090272 C357.768238,79.5510379 357.222243,81.3990195 356.886241,82.9530272 C356.55024,84.507035 356.676238,84.9900302 357.264241,84.4020272 C362.136266,80.1180058 365.769229,76.7580394 368.163241,74.3220272 C370.557253,71.8860151 372.300236,69.7860361 373.392241,68.0220272 Z M375.912241,61.3440272 C376.164243,60.6720239 376.269242,59.5800348 376.227241,58.0680272 C376.185241,56.5560197 375.870244,55.5060302 375.282241,54.9180272 C375.03024,54.8340268 374.631244,54.9810253 374.085241,55.3590272 C373.539239,55.7370291 372.909245,56.2410241 372.195241,56.8710272 C371.481238,57.5010304 370.725245,58.236023 369.927241,59.0760272 C369.129237,59.9160314 368.352245,60.7980226 367.596241,61.7220272 L372.006241,61.7220272 C373.098247,61.7220272 373.938238,61.7010274 374.526241,61.6590272 C375.114244,61.617027 375.492241,61.5750274 375.660241,61.5330272 C375.828242,61.491027 375.912241,61.4280277 375.912241,61.3440272 Z M492.966241,114.516027 C494.982252,113.508022 496.746234,112.122036 498.258241,110.358027 C499.770249,108.594018 501.114236,106.746037 502.290241,104.814027 C500.946235,104.646026 499.350251,104.604027 497.502241,104.688027 C495.654232,104.772028 493.89025,105.087025 492.210241,105.633027 C490.530233,106.17903 489.102247,107.019022 487.926241,108.153027 C486.750236,109.287033 486.162241,110.820018 486.162241,112.752027 C486.246242,113.676032 486.540239,114.306026 487.044241,114.642027 C487.548244,114.978029 488.157238,115.188027 488.871241,115.272027 C489.585245,115.356028 490.320238,115.314028 491.076241,115.146027 C491.832245,114.978026 492.462239,114.768028 492.966241,114.516027 Z" id="Holla-at-us" fill-opacity="0.2" fill="#000000" transform="translate(269.309083, 83.277702) rotate(-9.000000) translate(-269.309083, -83.277702) "></path>
                    <path d="M478.631761,90.6437932 C478.308575,91.3784606 477.945415,92.213063 477.54228,93.1476045 C476.618275,95.2896152 475.484287,97.5575925 474.14028,99.9516045 C472.796273,102.345616 471.284288,104.634594 469.60428,106.818605 C467.924271,109.002615 466.160289,110.703598 464.31228,111.921605 C462.464271,113.139611 460.53229,113.622606 458.51628,113.370605 C456.50027,113.118603 454.48429,111.732617 452.46828,109.212605 C450.284269,106.608591 449.19228,103.647621 449.19228,100.329605 C449.19228,97.0115879 449.402278,93.7566205 449.82228,90.5646045 C448.814275,92.8326158 447.806285,94.8695955 446.79828,96.6756045 C445.790275,98.4816135 444.677286,100.119597 443.45928,101.589605 C442.241274,103.059612 440.918287,104.403598 439.49028,105.621605 C438.062273,106.839611 436.38229,107.952599 434.45028,108.960605 C432.770271,109.800609 431.048289,110.220605 429.28428,110.220605 C427.520271,110.220605 425.861288,109.863608 424.30728,109.149605 C422.753272,108.435601 421.409286,107.406611 420.27528,106.062605 C419.141274,104.718598 418.406282,103.122614 418.07028,101.274605 C417.734278,99.8465974 417.608279,98.4186116 417.69228,96.9906045 C417.77628,95.5625974 417.944279,94.1346116 418.19628,92.7066045 C418.952284,88.4225831 420.191271,84.2646247 421.91328,80.2326045 C423.635288,76.2005843 425.630269,72.336623 427.89828,68.6406045 C428.570283,67.4645986 429.368275,66.3516098 430.29228,65.3016045 C431.216284,64.2515993 432.350273,63.6006058 433.69428,63.3486045 C434.786285,63.1806037 436.172271,63.2856026 437.85228,63.6636045 C439.532288,64.0416064 440.708277,64.8185986 441.38028,65.9946045 C441.800282,66.8346087 441.842282,67.7165999 441.50628,68.6406045 C441.170278,69.5646091 440.792282,70.4046007 440.37228,71.1606045 L436.27728,78.5316045 C434.807273,81.1776177 433.526285,83.9075904 432.43428,86.7216045 C431.342274,89.5356186 430.607282,92.39159 430.22928,95.2896045 C429.851278,98.187619 430.124275,101.022591 431.04828,103.794605 C433.820294,102.282597 436.319269,100.329616 438.54528,97.9356045 C440.771291,95.5415925 442.766271,92.9166188 444.53028,90.0606045 C446.294289,87.2045902 447.869273,84.22262 449.25528,81.1146045 C450.641287,78.006589 451.880274,75.0666184 452.97228,72.2946045 C453.560283,70.8665974 454.442274,69.7536085 455.61828,68.9556045 C456.794286,68.1576005 457.928274,67.7376047 459.02028,67.6956045 C460.112285,67.6536043 461.015276,68.0736001 461.72928,68.9556045 C462.443283,69.8376089 462.716281,71.2865944 462.54828,73.3026045 C462.296279,75.6546163 461.855283,78.3215896 461.22528,81.3036045 C460.595277,84.2856194 460.028282,87.330589 459.52428,90.4386045 C459.020277,93.54662 458.72628,96.6125894 458.64228,99.6366045 C458.558279,102.66062 458.978275,105.390592 459.90228,107.826605 C463.8503,105.474593 466.916269,102.366624 469.10028,98.5026045 C471.048899,95.0550477 472.830322,91.4403667 474.44459,87.6584746 C474.076841,87.2454092 473.744405,86.8071195 473.44728,86.3436045 C472.397275,84.7055963 472.166277,82.6686167 472.75428,80.2326045 C473.090282,78.5525961 473.762275,76.8936127 474.77028,75.2556045 C475.778285,73.6175963 476.954273,72.0636119 478.29828,70.5936045 C479.642287,69.1235972 481.112272,67.8216102 482.70828,66.6876045 C484.304288,65.5535988 485.942271,64.6926074 487.62228,64.1046045 C490.058292,63.2646003 492.641266,63.1176018 495.37128,63.6636045 C498.101294,64.2096072 500.306271,65.532594 501.98628,67.6326045 C502.406282,68.136607 502.679279,68.7456009 502.80528,69.4596045 C502.93128,70.1736081 502.784282,70.7406024 502.36428,71.1606045 C501.692277,71.7486074 500.936284,71.8326066 500.09628,71.4126045 C499.256276,70.9926024 498.374284,70.8666037 497.45028,71.0346045 C497.198279,71.0346045 496.925281,71.0976039 496.63128,71.2236045 C496.337278,71.3496051 496.064281,71.4966037 495.81228,71.6646045 C490.772255,74.6046192 487.034292,78.720578 484.59828,84.0126045 C486.110287,83.5926024 487.580273,83.0466079 489.00828,82.3746045 L493.29228,80.3586045 C496.904298,78.5945957 500.180265,77.859603 503.12028,78.1536045 C506.060295,78.447606 508.370271,79.4765957 510.05028,81.2406045 C511.730288,83.0046133 512.633279,85.4195892 512.75928,88.4856045 C512.88528,91.5516198 511.98229,94.9745856 510.05028,98.7546045 C512.906294,98.7546045 515.447269,97.809614 517.67328,95.9196045 C519.899291,94.0295951 521.600274,91.8666167 522.77628,89.4306045 L524.16228,86.2806045 C524.498282,85.6086011 524.981277,85.1466058 525.61128,84.8946045 C526.241283,84.6426032 526.892277,84.6426032 527.56428,84.8946045 C528.236283,85.2306062 528.677279,85.7136014 528.88728,86.3436045 C529.097281,86.9736077 529.076281,87.6246011 528.82428,88.2966045 C527.900275,90.3126146 526.745287,92.3075946 525.35928,94.2816045 C523.973273,96.2556144 522.398289,97.9985969 520.63428,99.5106045 C518.870271,101.022612 516.896291,102.1986 514.71228,103.038605 C512.528269,103.878609 510.218292,104.088607 507.78228,103.668605 C506.438273,106.020616 504.842289,108.120595 502.99428,109.968605 C501.146271,111.816614 499.004292,113.328599 496.56828,114.504605 C495.392274,115.008607 493.83829,115.407603 491.90628,115.701605 C489.97427,115.995606 488.04229,116.016606 486.11028,115.764605 C484.17827,115.512603 482.477287,114.945609 481.00728,114.063605 C479.537273,113.1816 478.676281,111.816614 478.42428,109.968605 C478.172279,107.700593 478.781273,105.705613 480.25128,103.983605 C481.721287,102.261596 483.590269,100.87561 485.85828,99.8256045 C488.126291,98.7755993 490.541267,98.0826062 493.10328,97.7466045 C495.665293,97.4106028 497.870271,97.494602 499.71828,97.9986045 L500.72628,98.2506045 C501.062282,98.3346049 501.314279,98.1666066 501.48228,97.7466045 C504.338294,92.8745801 505.850279,89.2626163 506.01828,86.9106045 C506.186281,84.5585927 505.409288,83.1936064 503.68728,82.8156045 C501.965271,82.4376026 499.550295,82.899598 496.44228,84.2016045 C493.334264,85.503611 490.016298,87.3725923 486.48828,89.8086045 C485.144273,90.7326091 483.800287,91.2576039 482.45628,91.3836045 C481.304758,91.4915596 480.029928,91.2449581 478.631761,90.6437932 Z M338.259973,103.218785 C338.087752,103.601696 337.916187,103.982636 337.74528,104.361605 C336.779275,106.503615 336.044282,107.9946 335.54028,108.834605 C334.868277,109.92661 334.091284,111.102598 333.20928,112.362605 C332.327275,113.622611 331.340285,114.777599 330.24828,115.827605 C329.156274,116.87761 327.980286,117.738601 326.72028,118.410605 C325.460274,119.082608 324.074287,119.418605 322.56228,119.418605 C321.386274,119.418605 320.231286,119.229606 319.09728,118.851605 C317.963274,118.473603 317.018284,117.822609 316.26228,116.898605 C315.422276,115.9746 314.876281,114.861611 314.62428,113.559605 C314.372279,112.257598 314.20428,110.934611 314.12028,109.590605 C313.700278,102.114567 314.708268,94.9746385 317.14428,88.1706045 C315.968274,89.7666125 314.708287,91.6565936 313.36428,93.8406045 C312.020273,96.0246154 310.571288,98.1875938 309.01728,100.329605 C307.463272,102.471615 305.825288,104.487595 304.10328,106.377605 C302.381271,108.267614 300.49129,109.779599 298.43328,110.913605 C296.37527,112.04761 294.128292,112.614605 291.69228,112.614605 C289.256268,112.614605 286.652294,111.816612 283.88028,110.220605 C281.696269,108.204594 280.331283,105.789619 279.78528,102.975605 C279.239277,100.16159 279.134278,96.9906221 279.47028,93.4626045 C279.722281,90.8585915 280.226276,88.1706184 280.98228,85.3986045 C281.738284,82.6265906 282.809273,79.9806171 284.19528,77.4606045 C285.581287,74.9405919 287.28227,72.6936144 289.29828,70.7196045 C291.31429,68.7455946 293.708266,67.21261 296.48028,66.1206045 C300.260299,64.6085969 304.229259,64.2306007 308.38728,64.9866045 C312.545301,65.7426083 316.262263,67.3385923 319.53828,69.7746045 C320.210283,70.278607 320.882277,70.8036018 321.55428,71.3496045 C322.226283,71.8956072 323.024275,72.2526037 323.94828,72.4206045 C324.536283,72.5886053 325.124277,72.6936043 325.71228,72.7356045 C326.300283,72.7776047 326.804278,73.0086024 327.22428,73.4286045 C327.728282,73.8486066 328.00128,74.4156009 328.04328,75.1296045 C328.08528,75.8436081 328.06428,76.5366011 327.98028,77.2086045 C327.308277,78.1326091 326.594284,80.0225902 325.83828,82.8786045 C325.082276,85.7346188 324.410283,88.9055871 323.82228,92.3916045 C323.234277,95.8776219 322.814281,99.3425873 322.56228,102.786605 C322.310279,106.230622 322.373278,108.918595 322.75128,110.850605 C323.129282,112.782614 323.927274,113.643606 325.14528,113.433605 C326.363286,113.223603 328.106269,111.270623 330.37428,107.574605 C331.550286,105.726595 332.558276,103.794615 333.39828,101.778605 C334.238284,99.7625944 335.120275,97.7466146 336.04428,95.7306045 L338.343068,90.5060855 C338.69087,87.7878165 339.205606,85.0983303 339.88728,82.4376045 C341.189286,77.3555791 342.722271,72.2946297 344.48628,67.2546045 C341.546265,66.6666016 339.530285,65.9316089 338.43828,65.0496045 C337.346274,64.1676001 336.968278,63.3066087 337.30428,62.4666045 C337.640282,61.6266003 338.627272,60.9126074 340.26528,60.3246045 C341.903288,59.7366016 344.024267,59.4426045 346.62828,59.4426045 C347.468284,59.4426045 348.098278,59.3376056 348.51828,59.1276045 C348.938282,58.9176035 349.358278,58.4766079 349.77828,57.8046045 C350.954286,55.9565953 352.718268,54.0036148 355.07028,51.9456045 C357.422292,49.8875942 359.963266,48.2706104 362.69328,47.0946045 C365.423294,45.9185986 368.111267,45.5196026 370.75728,45.8976045 C373.403293,46.2756064 375.608271,47.9765894 377.37228,51.0006045 C378.044283,52.2606108 378.464279,53.6045974 378.63228,55.0326045 C378.800281,56.4606116 378.84228,57.8885974 378.75828,59.3166045 C379.514284,59.3166045 380.480274,59.568602 381.65628,60.0726045 C382.832286,60.576607 383.882275,61.1436014 384.80628,61.7736045 C385.730284,62.4036077 386.402278,63.0336014 386.82228,63.6636045 C387.242282,64.2936077 387.158283,64.7346032 386.57028,64.9866045 C386.150278,65.1546053 385.541284,65.2596043 384.74328,65.3016045 C383.945276,65.3436047 383.084284,65.3436047 382.16028,65.3016045 C381.236275,65.2596043 380.333284,65.2176047 379.45128,65.1756045 C378.569275,65.1336043 377.876282,65.1126045 377.37228,65.1126045 C376.196274,66.9606137 374.55829,69.0605927 372.45828,71.4126045 C370.358269,73.7646163 368.090292,76.0745932 365.65428,78.3426045 C363.218268,80.6106158 360.761292,82.6895951 358.28328,84.5796045 C355.805267,86.469614 353.55829,87.9185995 351.54228,88.9266045 C351.122278,90.9426146 350.828281,93.000594 350.66028,95.1006045 C350.492279,97.200615 350.492279,99.300594 350.66028,101.400605 C350.74428,102.072608 350.954278,103.164597 351.29028,104.676605 C351.626282,106.188612 352.088277,107.700597 352.67628,109.212605 C353.264283,110.724612 353.999275,112.047599 354.88128,113.181605 C355.763284,114.31561 356.750274,114.798605 357.84228,114.630605 C359.85829,114.210602 361.81127,112.803616 363.70128,110.409605 C365.591289,108.015593 367.313272,105.30662 368.86728,102.282605 C370.421288,99.2585894 371.807274,96.2556194 373.02528,93.2736045 C374.243286,90.2915896 375.230276,87.9606129 375.98628,86.2806045 C376.238281,85.6086011 376.700277,85.1466058 377.37228,84.8946045 C378.044283,84.6426032 378.716277,84.6426032 379.38828,84.8946045 C380.060283,85.2306062 380.522279,85.7136014 380.77428,86.3436045 C381.026281,86.9736077 380.984282,87.6246011 380.64828,88.2966045 C379.640275,90.6486163 378.506286,93.4625881 377.24628,96.7386045 C375.986274,100.014621 374.495288,103.227589 372.77328,106.377605 C371.051271,109.52762 369.056291,112.320592 366.78828,114.756605 C364.520269,117.192617 361.832295,118.704602 358.72428,119.292605 C355.364263,120.048608 352.382293,119.943609 349.77828,118.977605 C347.174267,118.0116 344.990289,116.499615 343.22628,114.441605 C341.462271,112.383594 340.118284,109.905619 339.19428,107.007605 C338.797766,105.763994 338.486331,104.501057 338.259973,103.218785 Z M175.9503,101.336707 C175.446933,102.353989 174.925594,103.362287 174.38628,104.361605 C172.958273,107.007618 171.362289,109.506593 169.59828,111.858605 C167.834271,114.210616 165.818291,116.268596 163.55028,118.032605 C161.450269,119.20861 159.203292,119.859604 156.80928,119.985605 C154.415268,120.111605 152.105291,119.817608 149.87928,119.103605 C147.653269,118.389601 145.57429,117.276612 143.64228,115.764605 C141.71027,114.252597 140.198285,112.404615 139.10628,110.220605 C138.141321,108.460973 137.416096,106.528759 136.930597,104.423933 C135.511189,107.046869 133.926432,109.525068 132.17628,111.858605 C130.412271,114.210616 128.396291,116.268596 126.12828,118.032605 C124.028269,119.20861 121.781292,119.859604 119.38728,119.985605 C116.993268,120.111605 114.683291,119.817608 112.45728,119.103605 C110.231269,118.389601 108.15229,117.276612 106.22028,115.764605 C104.28827,114.252597 102.776285,112.404615 101.68428,110.220605 C100.256273,107.616591 99.3532818,104.634621 98.9752799,101.274605 C98.9544894,101.089801 98.9347154,100.904743 98.9159579,100.719431 C98.5649289,101.102124 98.2067031,101.476181 97.8412799,101.841605 C95.86727,103.815614 93.6412923,105.369599 91.1632799,106.503605 C88.6852675,107.63761 86.0182941,107.910607 83.1622799,107.322605 L81.0202799,109.464605 C80.2642761,110.220608 79.2982857,110.934601 78.1222799,111.606605 C75.9382689,112.950611 73.5442929,113.874602 70.9402799,114.378605 C68.3362668,114.882607 65.7322929,114.924607 63.1282799,114.504605 C60.6922677,114.084602 58.361291,113.223611 56.1352799,111.921605 C53.9092687,110.619598 52.2502853,108.666618 51.1582799,106.062605 C50.3182757,104.130595 49.8772801,102.093615 49.8352799,99.9516045 C49.7932797,97.8095938 50.0242773,95.688615 50.5282799,93.5886045 C51.1162828,91.488594 51.9142748,89.493614 52.9222799,87.6036045 C53.9302849,85.7135951 55.022274,83.9286129 56.1982799,82.2486045 C56.5342815,81.744602 56.7442794,81.3036064 56.8282799,80.9256045 C56.9122803,80.5476026 56.9542799,80.0226079 56.9542799,79.3506045 C56.786279,77.6705961 56.7652792,75.9486133 56.8912799,74.1846045 C57.0172805,72.4205957 57.3742769,70.6986129 57.9622799,69.0186045 C58.8862845,66.1625902 60.5032683,63.9156127 62.8132799,62.2776045 C65.1232914,60.6395963 67.8742639,59.8206045 71.0662799,59.8206045 C74.9302992,59.8206045 78.3322652,60.6815959 81.2722799,62.4036045 C84.2122946,64.1256131 86.564271,66.3725906 88.3282799,69.1446045 C90.0922887,71.9166184 91.2682769,75.0455871 91.8562799,78.5316045 C92.4442828,82.0176219 92.3602836,85.5245869 91.6042799,89.0526045 C91.1002773,91.3206158 90.4282841,93.5465936 89.5882799,95.7306045 C88.7482757,97.9146154 87.8662845,100.098594 86.9422799,102.282605 C90.5542979,101.106599 93.5152683,99.1536182 95.8252799,96.4236045 C96.8244023,95.2428235 97.7960189,93.9402674 98.7401349,92.515928 C98.7690389,91.9933572 98.8054206,91.4689161 98.8492799,90.9426045 C99.1432813,87.4145869 99.6892759,83.9286217 100.48728,80.4846045 C101.285284,77.0405873 102.188275,73.9326184 103.19628,71.1606045 C103.700282,69.5645965 104.519274,67.5486167 105.65328,65.1126045 C106.787286,62.6765923 108.131272,60.1776173 109.68528,57.6156045 C111.239288,55.0535917 113.00327,52.5966163 114.97728,50.2446045 C116.95129,47.8925927 119.030269,46.0446112 121.21428,44.7006045 C123.398291,43.3565978 125.666268,42.6846045 128.01828,42.6846045 C130.370292,42.6846045 132.764268,43.734594 135.20028,45.8346045 C136.880288,47.3466121 137.951278,49.2365932 138.41328,51.5046045 C138.875282,53.7726158 138.938282,55.9985936 138.60228,58.1826045 C138.014277,61.6266217 136.838289,64.8185898 135.07428,67.7586045 C133.310271,70.6986192 131.252292,73.4285919 128.90028,75.9486045 C126.548268,78.3846167 124.049293,80.6945936 121.40328,82.8786045 C118.757267,85.0626154 116.132293,87.2465936 113.52828,89.4306045 C112.940277,90.0186074 112.520281,90.5436022 112.26828,91.0056045 C112.016279,91.4676068 111.806281,92.0766007 111.63828,92.8326045 C111.386279,95.7726192 111.449278,98.6705902 111.82728,101.526605 C112.205282,104.382619 113.024274,107.112591 114.28428,109.716605 C115.712287,112.572619 117.224272,114.189603 118.82028,114.567605 C120.416288,114.945606 122.054271,114.504611 123.73428,113.244605 C125.414288,111.984598 127.052272,110.136617 128.64828,107.700605 C130.244288,105.264592 131.756273,102.702618 133.18428,100.014605 C134.233598,98.0394169 135.203533,96.1096064 136.0941,94.2251421 C136.120355,93.1391672 136.179414,92.0449891 136.27128,90.9426045 C136.565281,87.4145869 137.111276,83.9286217 137.90928,80.4846045 C138.707284,77.0405873 139.610275,73.9326184 140.61828,71.1606045 C141.122282,69.5645965 141.941274,67.5486167 143.07528,65.1126045 C144.209286,62.6765923 145.553272,60.1776173 147.10728,57.6156045 C148.661288,55.0535917 150.42527,52.5966163 152.39928,50.2446045 C154.37329,47.8925927 156.452269,46.0446112 158.63628,44.7006045 C160.820291,43.3565978 163.088268,42.6846045 165.44028,42.6846045 C167.792292,42.6846045 170.186268,43.734594 172.62228,45.8346045 C174.302288,47.3466121 175.373278,49.2365932 175.83528,51.5046045 C176.297282,53.7726158 176.360282,55.9985936 176.02428,58.1826045 C175.436277,61.6266217 174.260289,64.8185898 172.49628,67.7586045 C170.732271,70.6986192 168.674292,73.4285919 166.32228,75.9486045 C163.970268,78.3846167 161.471293,80.6945936 158.82528,82.8786045 C156.179267,85.0626154 153.554293,87.2465936 150.95028,89.4306045 C150.362277,90.0186074 149.942281,90.5436022 149.69028,91.0056045 C149.438279,91.4676068 149.228281,92.0766007 149.06028,92.8326045 C148.808279,95.7726192 148.871278,98.6705902 149.24928,101.526605 C149.627282,104.382619 150.446274,107.112591 151.70628,109.716605 C153.134287,112.572619 154.646272,114.189603 156.24228,114.567605 C157.838288,114.945606 159.476271,114.504611 161.15628,113.244605 C162.836288,111.984598 164.474272,110.136617 166.07028,107.700605 C167.666288,105.264592 169.178273,102.702618 170.60628,100.014605 C172.034287,97.3265911 173.315274,94.7226171 174.44928,92.2026045 C175.583286,89.6825919 176.486277,87.7086116 177.15828,86.2806045 C177.170833,86.2554973 177.183592,86.2306833 177.196556,86.2061624 C177.265407,85.9377736 177.336648,85.6685877 177.41028,85.3986045 C178.166284,82.6265906 179.237273,79.9806171 180.62328,77.4606045 C182.009287,74.9405919 183.71027,72.6936144 185.72628,70.7196045 C187.74229,68.7455946 190.136266,67.21261 192.90828,66.1206045 C196.688299,64.6085969 200.657259,64.2306007 204.81528,64.9866045 C208.973301,65.7426083 212.690263,67.3385923 215.96628,69.7746045 C216.638283,70.278607 217.310277,70.8036018 217.98228,71.3496045 C218.654283,71.8956072 219.452275,72.2526037 220.37628,72.4206045 C220.964283,72.5886053 221.552277,72.6936043 222.14028,72.7356045 C222.728283,72.7776047 223.232278,73.0086024 223.65228,73.4286045 C224.156282,73.8486066 224.42928,74.4156009 224.47128,75.1296045 C224.51328,75.8436081 224.49228,76.5366011 224.40828,77.2086045 C223.736277,78.1326091 223.022284,80.0225902 222.26628,82.8786045 C221.510276,85.7346188 220.838283,88.9055871 220.25028,92.3916045 C219.662277,95.8776219 219.242281,99.3425873 218.99028,102.786605 C218.738279,106.230622 218.801278,108.918595 219.17928,110.850605 C219.557282,112.782614 220.355274,113.643606 221.57328,113.433605 C222.791286,113.223603 224.534269,111.270623 226.80228,107.574605 C227.978286,105.726595 228.986276,103.794615 229.82628,101.778605 C230.666284,99.7625944 231.548275,97.7466146 232.47228,95.7306045 L236.63028,86.2806045 C236.966282,85.6086011 237.428277,85.1466058 238.01628,84.8946045 C238.604283,84.6426032 239.234277,84.6426032 239.90628,84.8946045 C240.578283,85.2306062 241.040279,85.7136014 241.29228,86.3436045 C241.544281,86.9736077 241.544281,87.6246011 241.29228,88.2966045 C241.124279,88.5486058 240.641284,89.6195951 239.84328,91.5096045 C239.045276,93.399614 238.142285,95.4785932 237.13428,97.7466045 C236.126275,100.014616 235.139285,102.219594 234.17328,104.361605 C233.207275,106.503615 232.472282,107.9946 231.96828,108.834605 C231.296277,109.92661 230.519284,111.102598 229.63728,112.362605 C228.755275,113.622611 227.768285,114.777599 226.67628,115.827605 C225.584274,116.87761 224.408286,117.738601 223.14828,118.410605 C221.888274,119.082608 220.502287,119.418605 218.99028,119.418605 C217.814274,119.418605 216.659286,119.229606 215.52528,118.851605 C214.391274,118.473603 213.446284,117.822609 212.69028,116.898605 C211.850276,115.9746 211.304281,114.861611 211.05228,113.559605 C210.800279,112.257598 210.63228,110.934611 210.54828,109.590605 C210.128278,102.114567 211.136268,94.9746385 213.57228,88.1706045 C212.396274,89.7666125 211.136287,91.6565936 209.79228,93.8406045 C208.448273,96.0246154 206.999288,98.1875938 205.44528,100.329605 C203.891272,102.471615 202.253288,104.487595 200.53128,106.377605 C198.809271,108.267614 196.91929,109.779599 194.86128,110.913605 C192.80327,112.04761 190.556292,112.614605 188.12028,112.614605 C185.684268,112.614605 183.080294,111.816612 180.30828,110.220605 C178.124269,108.204594 176.759283,105.789619 176.21328,102.975605 C176.109771,102.442134 176.022111,101.895835 175.9503,101.336707 Z M7.94027987,44.5746045 C8.44428239,43.6505999 9.17927504,42.8736077 10.1452799,42.2436045 C11.1112847,41.6136014 12.1402744,41.2356051 13.2322799,41.1096045 C14.3242853,40.9836039 15.3742748,41.1936018 16.3822799,41.7396045 C17.3902849,42.2856072 18.1042778,43.2725974 18.5242799,44.7006045 C18.6922807,45.2886074 18.7972797,45.9606007 18.8392799,46.7166045 C18.8812801,47.4726083 18.8602803,48.7325957 18.7762799,50.4966045 C18.6922794,52.2606133 18.5242811,54.7175888 18.2722799,57.8676045 C18.0202786,61.0176203 17.6422824,65.2805776 17.1382799,70.6566045 C17.0542794,71.4966087 17.4742752,72.0846028 18.3982799,72.4206045 C19.3222845,72.7566062 20.4772729,72.9456043 21.8632799,72.9876045 C23.2492868,73.0296047 24.7822715,72.9456056 26.4622799,72.7356045 C28.1422883,72.5256035 29.7172725,72.273606 31.1872799,71.9796045 C32.6572872,71.685603 33.8962748,71.4126058 34.9042799,71.1606045 C35.9122849,70.9086032 36.4582794,70.7406049 36.5422799,70.6566045 C36.5422799,70.5726041 36.6472788,69.98461 36.8572799,68.8926045 C37.0672809,67.800599 37.256279,66.4566125 37.4242799,64.8606045 C37.9282824,60.5765831 38.3902778,57.0486184 38.8102799,54.2766045 C39.230282,51.5045906 39.6712776,49.2786129 40.1332799,47.5986045 C40.5952822,45.9185961 41.0782773,44.6376089 41.5822799,43.7556045 C42.0862824,42.8736001 42.6742765,42.2226066 43.3462799,41.8026045 C44.0182832,41.298602 44.7952755,41.0256047 45.6772799,40.9836045 C46.5592843,40.9416043 47.4412755,41.0466032 48.3232799,41.2986045 C49.2052843,41.5506058 50.0032763,41.9496018 50.7172799,42.4956045 C51.4312834,43.0416072 51.9562782,43.7346003 52.2922799,44.5746045 C52.5442811,45.1626074 52.6282803,46.1285978 52.5442799,47.4726045 C52.4602794,48.8166112 52.2502815,50.6645927 51.9142799,53.0166045 C51.5782782,55.0326146 51.1792822,57.6995879 50.7172799,61.0176045 C50.2552776,64.3356211 49.814282,67.7165873 49.3942799,71.1606045 C48.9742778,74.6046217 48.5962815,77.8175896 48.2602799,80.7996045 C47.9242782,83.7816194 47.7142803,85.9445978 47.6302799,87.2886045 C47.5462794,88.2966095 47.4202807,89.6405961 47.2522799,91.3206045 C47.084279,93.0006129 46.8952809,94.7435955 46.6852799,96.5496045 C46.4752788,98.3556135 46.2232813,100.035597 45.9292799,101.589605 C45.6352784,103.143612 45.3202815,104.298601 44.9842799,105.054605 C44.7322786,105.642607 44.0182857,106.041603 42.8422799,106.251605 C41.666274,106.461606 40.6162845,106.356607 39.6922799,105.936605 C38.1802723,105.180601 37.109283,103.500618 36.4792799,100.896605 C35.8492767,98.2925915 35.4712805,95.4156203 35.3452799,92.2656045 C35.2192792,89.1155888 35.240279,86.0076198 35.4082799,82.9416045 C35.5762807,79.8755892 35.744279,77.5446125 35.9122799,75.9486045 C35.2402765,76.6206079 33.8752902,77.103603 31.8172799,77.3976045 C29.7592696,77.691606 27.617291,77.8806041 25.3912799,77.9646045 C23.1652687,78.0486049 21.1492889,78.1116043 19.3432799,78.1536045 C17.5372708,78.1956047 16.5922803,78.3426032 16.5082799,78.5946045 C16.2562786,80.4426137 16.0252809,82.4585936 15.8152799,84.6426045 C15.6052788,86.8266154 15.4162807,89.0525932 15.2482799,91.3206045 C15.080279,93.5886158 14.9542803,95.8355934 14.8702799,98.0616045 C14.7862794,100.287616 14.7442799,102.366595 14.7442799,104.298605 C14.7442799,105.30661 14.3872834,106.125601 13.6732799,106.755605 C12.9592763,107.385608 12.1192847,107.805603 11.1532799,108.015605 C10.187275,108.225606 9.17928512,108.246605 8.12927987,108.078605 C7.07927462,107.910604 6.21828323,107.490608 5.54627987,106.818605 C5.04227735,106.314602 4.66428113,105.600609 4.41227987,104.676605 C4.16027861,103.7526 3.86628155,101.862619 3.53027987,99.0066045 C3.36227903,97.7465982 3.25728008,96.4026116 3.21527987,94.9746045 C3.17327966,93.5465974 3.17327966,91.887614 3.21527987,89.9976045 C3.25728008,88.1075951 3.34127924,85.9236169 3.46727987,83.4456045 C3.5932805,80.9675921 3.78227861,78.1326205 4.03427987,74.9406045 C4.45428197,70.0685801 4.83227819,65.8896219 5.16827987,62.4036045 C5.50428155,58.9175871 5.8192784,55.9776165 6.11327987,53.5836045 C6.40728134,51.1895925 6.7012784,49.2786116 6.99527987,47.8506045 C7.28928134,46.4225974 7.60427819,45.3306083 7.94027987,44.5746045 Z M76.9882799,105.180605 C74.9722698,104.172599 73.3132864,103.227609 72.0112799,102.345605 C70.7092734,101.4636 69.5752847,100.623608 68.6092799,99.8256045 C67.643275,99.0276005 66.7822836,98.2296085 66.0262799,97.4316045 C65.2702761,96.6336005 64.4302845,95.7726091 63.5062799,94.8486045 C63.4222794,94.8486045 63.2962807,95.1636014 63.1282799,95.7936045 C62.960279,96.4236077 62.7922807,97.0746011 62.6242799,97.7466045 C62.1202773,100.434618 62.057278,102.723595 62.4352799,104.613605 C62.8132818,106.503614 63.590274,107.8686 64.7662799,108.708605 C65.9422857,109.548609 67.4752704,109.779606 69.3652799,109.401605 C71.2552893,109.023603 73.4602673,107.868614 75.9802799,105.936605 L76.9882799,105.180605 Z M83.7922799,96.4866045 C84.8002849,94.4705944 85.5352776,92.2236169 85.9972799,89.7456045 C86.4592822,87.2675921 86.5852809,84.7686171 86.3752799,82.2486045 C86.1652788,79.7285919 85.5772847,77.2926163 84.6112799,74.9406045 C83.645275,72.5885927 82.1962895,70.4886137 80.2642799,68.6406045 C78.500271,66.8765957 76.6732893,65.6796077 74.7832799,65.0496045 C72.8932704,64.4196014 71.1712876,64.4196014 69.6172799,65.0496045 C68.0632721,65.6796077 66.7822849,66.9185953 65.7742799,68.7666045 C64.7662748,70.6146137 64.2622799,73.092589 64.2622799,76.2006045 C66.1102891,76.0326037 67.8532717,76.200602 69.4912799,76.7046045 C71.1292881,77.208607 72.2842765,77.7966011 72.9562799,78.4686045 C73.376282,79.0566074 73.5442803,79.5396026 73.4602799,79.9176045 C73.3762794,80.2956064 72.9982832,80.8206011 72.3262799,81.4926045 C71.150274,82.58461 69.953286,83.8025978 68.7352799,85.1466045 C67.5172738,86.4906112 66.9082799,87.3306028 66.9082799,87.6666045 C66.9082799,87.8346053 67.0552784,88.1496022 67.3492799,88.6116045 C67.6432813,89.0736068 68.0002778,89.6196014 68.4202799,90.2496045 C68.840282,90.8796077 69.2812776,91.5306011 69.7432799,92.2026045 C70.2052822,92.8746079 70.6462778,93.462602 71.0662799,93.9666045 C71.4022815,94.3866066 71.9902757,95.0166003 72.8302799,95.8566045 C73.6702841,96.6966087 74.5522752,97.5366003 75.4762799,98.3766045 C76.4002845,99.2166087 77.3242752,99.9306016 78.2482799,100.518605 C79.1722845,101.106607 79.8862773,101.400605 80.3902799,101.400605 C80.5582807,101.400605 81.0412759,100.83361 81.8392799,99.6996045 C82.6372839,98.5655988 83.2882773,97.4946095 83.7922799,96.4866045 Z M114.78828,76.2006045 C114.536279,76.9566083 114.305281,77.7546003 114.09528,78.5946045 C113.885279,79.4346087 113.675281,80.2326007 113.46528,80.9886045 C113.255279,81.7446083 113.10828,82.374602 113.02428,82.8786045 C112.940279,83.382607 112.940279,83.6346045 113.02428,83.6346045 L114.03228,82.8156045 C114.704283,82.2696018 115.481275,81.5766087 116.36328,80.7366045 C117.245284,79.8966003 118.148275,79.0146091 119.07228,78.0906045 L121.46628,75.6966045 C125.246299,71.8325852 127.997271,68.1576219 129.71928,64.6716045 C131.441288,61.1855871 132.30228,57.6786221 132.30228,54.1506045 C132.30228,52.6385969 132.029283,51.7986053 131.48328,51.6306045 C130.937277,51.4626037 130.244284,51.6936014 129.40428,52.3236045 C128.564276,52.9536077 127.640285,53.8565986 126.63228,55.0326045 C125.624275,56.2086104 124.679284,57.4055984 123.79728,58.6236045 C122.915275,59.8416106 122.117283,60.9755993 121.40328,62.0256045 C120.689276,63.0756098 120.248281,63.7686028 120.08028,64.1046045 C117.896269,67.6326221 116.132287,71.6645818 114.78828,76.2006045 Z M152.21028,76.2006045 C151.958279,76.9566083 151.727281,77.7546003 151.51728,78.5946045 C151.307279,79.4346087 151.097281,80.2326007 150.88728,80.9886045 C150.677279,81.7446083 150.53028,82.374602 150.44628,82.8786045 C150.362279,83.382607 150.362279,83.6346045 150.44628,83.6346045 L151.45428,82.8156045 C152.126283,82.2696018 152.903275,81.5766087 153.78528,80.7366045 C154.667284,79.8966003 155.570275,79.0146091 156.49428,78.0906045 L158.88828,75.6966045 C162.668299,71.8325852 165.419271,68.1576219 167.14128,64.6716045 C168.863288,61.1855871 169.72428,57.6786221 169.72428,54.1506045 C169.72428,52.6385969 169.451283,51.7986053 168.90528,51.6306045 C168.359277,51.4626037 167.666284,51.6936014 166.82628,52.3236045 C165.986276,52.9536077 165.062285,53.8565986 164.05428,55.0326045 C163.046275,56.2086104 162.101284,57.4055984 161.21928,58.6236045 C160.337275,59.8416106 159.539283,60.9755993 158.82528,62.0256045 C158.111276,63.0756098 157.670281,63.7686028 157.50228,64.1046045 C155.318269,67.6326221 153.554287,71.6645818 152.21028,76.2006045 Z M196.56228,97.7466045 C197.906287,96.1505965 199.52327,94.1766163 201.41328,91.8246045 C203.303289,89.4725927 205.130271,87.1626158 206.89428,84.8946045 C208.658289,82.6265932 210.170274,80.6736127 211.43028,79.0356045 C212.690286,77.3975963 213.32028,76.4946053 213.32028,76.3266045 C213.32028,75.822602 213.131282,75.318607 212.75328,74.8146045 C212.375278,74.310602 211.934282,73.806607 211.43028,73.3026045 C210.926277,72.798602 210.380283,72.3576064 209.79228,71.9796045 C209.204277,71.6016026 208.700282,71.3286053 208.28028,71.1606045 C205.928268,70.068599 203.681291,70.0895988 201.53928,71.2236045 C199.397269,72.3576102 197.465288,74.0165936 195.74328,76.2006045 C194.021271,78.3846154 192.593286,80.8205911 191.45928,83.5086045 C190.325274,86.1966179 189.548282,88.4645953 189.12828,90.3126045 C188.624277,93.0846184 188.267281,95.6045932 188.05728,97.8726045 C187.847279,100.140616 187.952278,101.778599 188.37228,102.786605 C188.792282,103.79461 189.653273,103.962608 190.95528,103.290605 C192.257286,102.618601 194.126268,100.77062 196.56228,97.7466045 Z M300.13428,97.7466045 C301.478287,96.1505965 303.09527,94.1766163 304.98528,91.8246045 C306.875289,89.4725927 308.702271,87.1626158 310.46628,84.8946045 C312.230289,82.6265932 313.742274,80.6736127 315.00228,79.0356045 C316.262286,77.3975963 316.89228,76.4946053 316.89228,76.3266045 C316.89228,75.822602 316.703282,75.318607 316.32528,74.8146045 C315.947278,74.310602 315.506282,73.806607 315.00228,73.3026045 C314.498277,72.798602 313.952283,72.3576064 313.36428,71.9796045 C312.776277,71.6016026 312.272282,71.3286053 311.85228,71.1606045 C309.500268,70.068599 307.253291,70.0895988 305.11128,71.2236045 C302.969269,72.3576102 301.037288,74.0165936 299.31528,76.2006045 C297.593271,78.3846154 296.165286,80.8205911 295.03128,83.5086045 C293.897274,86.1966179 293.120282,88.4645953 292.70028,90.3126045 C292.196277,93.0846184 291.839281,95.6045932 291.62928,97.8726045 C291.419279,100.140616 291.524278,101.778599 291.94428,102.786605 C292.364282,103.79461 293.225273,103.962608 294.52728,103.290605 C295.829286,102.618601 297.698268,100.77062 300.13428,97.7466045 Z M370.19028,65.2386045 C367.922269,65.2386045 365.990288,65.3436035 364.39428,65.5536045 C362.798272,65.7636056 361.244287,65.8686045 359.73228,65.8686045 C359.312278,65.8686045 358.661284,66.7925953 357.77928,68.6406045 C356.897275,70.4886137 356.078284,72.4835938 355.32228,74.6256045 C354.566276,76.7676152 354.020282,78.6155967 353.68428,80.1696045 C353.348278,81.7236123 353.474277,82.2066074 354.06228,81.6186045 C358.934304,77.3345831 362.567268,73.9746167 364.96128,71.5386045 C367.355292,69.1025923 369.098274,67.0026133 370.19028,65.2386045 Z M372.71028,58.5606045 C372.962281,57.8886011 373.06728,56.7966121 373.02528,55.2846045 C372.98328,53.7725969 372.668283,52.7226074 372.08028,52.1346045 C371.828279,52.0506041 371.429283,52.1976026 370.88328,52.5756045 C370.337277,52.9536064 369.707283,53.4576014 368.99328,54.0876045 C368.279276,54.7176077 367.523284,55.4526003 366.72528,56.2926045 C365.927276,57.1326087 365.150284,58.0145999 364.39428,58.9386045 L368.80428,58.9386045 C369.896285,58.9386045 370.736277,58.9176047 371.32428,58.8756045 C371.912283,58.8336043 372.290279,58.7916047 372.45828,58.7496045 C372.626281,58.7076043 372.71028,58.6446049 372.71028,58.5606045 Z M489.76428,111.732605 C491.78029,110.724599 493.544272,109.338613 495.05628,107.574605 C496.568287,105.810596 497.912274,103.962614 499.08828,102.030605 C497.744273,101.862604 496.148289,101.820604 494.30028,101.904605 C492.452271,101.988605 490.688288,102.303602 489.00828,102.849605 C487.328271,103.395607 485.900286,104.235599 484.72428,105.369605 C483.548274,106.50361 482.96028,108.036595 482.96028,109.968605 C483.04428,110.892609 483.338277,111.522603 483.84228,111.858605 C484.346282,112.194606 484.955276,112.404604 485.66928,112.488605 C486.383283,112.572605 487.118276,112.530605 487.87428,112.362605 C488.630284,112.194604 489.260277,111.984606 489.76428,111.732605 Z" id="Holla-at-us" fill="#FFFFFF" transform="translate(266.107121, 80.494280) rotate(-9.000000) translate(-266.107121, -80.494280) "></path>
                </g>
            </g>
        </g>
    </g>
</svg>