<?xml version="1.0" encoding="UTF-8"?>
<svg width="152px" height="110px" viewBox="0 0 152 110" version="1.1" xmlns="http://www.w3.org/2000/svg" xmlns:xlink="http://www.w3.org/1999/xlink">
    <!-- Generator: Sketch 47.1 (45422) - http://www.bohemiancoding.com/sketch -->
    <title>signoff</title>
    <desc>Created with Sketch.</desc>
    <defs></defs>
    <g id="Welcome" stroke="none" stroke-width="1" fill="none" fill-rule="evenodd">
        <g id="Desktop-HD" transform="translate(-489.000000, -2936.000000)" fill="#FFFFFF">
            <g id="who?" transform="translate(0.000000, 2283.000000)">
                <g id="signoff" transform="translate(487.000000, 652.000000)">
                    <path d="M18.7474284,32.6653767 C18.992763,32.6347098 19.2150941,32.7037091 19.4144284,32.8723767 C19.6137628,33.0410442 19.7287616,33.2480421 19.7594284,33.4933767 C19.7900953,33.7387112 19.721096,33.9610423 19.5524284,34.1603767 C19.3837609,34.359711 19.176763,34.4747098 18.9314284,34.5053767 C18.502093,34.5667103 18.0190978,34.666376 17.4824284,34.8043767 C16.9457591,34.9423773 16.3707648,35.1033757 15.7574284,35.2873767 C14.8680907,35.5327112 13.9710996,35.7703755 13.0664284,36.0003767 C12.1617573,36.2303778 11.2954326,36.3453767 10.4674284,36.3453767 C9.91542569,36.3453767 9.38643098,36.2763773 8.88042845,36.1383767 C8.37442592,36.000376 7.90676393,35.7627117 7.47742845,35.4253767 C6.06675473,34.2907043 5.17743029,31.3007342 4.80942845,26.4553767 C4.65609435,24.523367 4.60242822,22.4840541 4.64842845,20.3373767 C4.69442868,18.1906993 4.84009389,16.1667195 5.08542845,14.2653767 C5.17742891,13.3760389 5.29242776,12.5787135 5.43042845,11.8733767 C5.56842914,11.1680398 5.71409435,10.5393794 5.86742845,9.98737666 C6.26609711,8.63803658 6.77209205,7.81004486 7.38542845,7.50337666 C7.63076301,7.38070938 7.8684273,7.3653762 8.09842845,7.45737666 C8.3284296,7.54937712 8.50476117,7.7180421 8.62742845,7.96337666 C8.75009573,8.1780444 8.7730955,8.40037551 8.69642845,8.63037666 C8.6197614,8.86037781 8.45876301,9.03670938 8.21342845,9.15937666 C8.18276163,9.19004348 8.1290955,9.26670938 8.05242845,9.38937666 C7.9757614,9.51204394 7.88376232,9.73437505 7.77642845,10.0563767 C7.66909458,10.3783783 7.54642914,10.8230405 7.40842845,11.3903767 C7.27042776,11.9577128 7.14009573,12.6860389 7.01742845,13.5753767 C6.83342753,14.8633831 6.69542891,16.2663691 6.60342845,17.7843767 C6.51142799,19.3023842 6.46542845,20.8280357 6.46542845,22.3613767 C6.49609527,23.833384 6.55742799,25.2057036 6.64942845,26.4783767 C6.74142891,27.7510497 6.87942753,28.8933716 7.06342845,29.9053767 C7.33942983,31.3467172 7.63076025,32.3510405 7.93742845,32.9183767 C8.24409665,33.4857128 8.48942753,33.8460426 8.67342845,33.9993767 C8.98009665,34.275378 9.38642592,34.4363764 9.89242845,34.4823767 C10.398431,34.5283769 10.9427589,34.5053771 11.5254284,34.4133767 C12.108098,34.3213762 12.7214252,34.1910442 13.3654284,34.0223767 C14.0094317,33.8537091 14.638092,33.6773776 15.2514284,33.4933767 C15.8647648,33.3093757 16.4704255,33.1407108 17.0684284,32.9873767 C17.6664314,32.8340426 18.2260925,32.7267103 18.7474284,32.6653767 Z M23.1174284,34.8273767 C22.4120916,34.8273767 21.806431,34.5667126 21.3004284,34.0453767 C20.7944259,33.5240407 20.4647625,32.8187144 20.3114284,31.9293767 C20.219428,31.3160403 20.2040948,30.6490469 20.2654284,29.9283767 C20.3267621,29.2077064 20.4647607,28.5253799 20.6794284,27.8813767 C21.262098,26.286702 22.1054229,25.3053785 23.2094284,24.9373767 C23.3934294,24.9067098 23.5774275,24.9067098 23.7614284,24.9373767 C23.8227621,24.9067098 23.899428,24.8913767 23.9914284,24.8913767 L24.0834284,24.8913767 C24.2674294,24.8913767 24.5204268,24.8990432 24.8424284,24.9143767 C25.1644301,24.9297101 25.5094266,24.968043 25.8774284,25.0293767 C26.2454303,25.0907103 26.6210932,25.1980426 27.0044284,25.3513767 C27.3877637,25.5047108 27.7327602,25.7347085 28.0394284,26.0413767 C28.5607644,26.5627126 28.8214284,27.2833721 28.8214284,28.2033767 C28.7907616,28.9087135 28.6220966,29.6447062 28.3154284,30.4113767 C28.0087602,31.1780472 27.5947644,31.8987066 27.0734284,32.5733767 C26.4907589,33.2787135 25.8620985,33.830708 25.1874284,34.2293767 C24.5127584,34.6280453 23.8227653,34.8273767 23.1174284,34.8273767 Z M23.7614284,26.6853767 C23.4854271,26.8080439 23.224763,27.0457082 22.9794284,27.3983767 C22.7340939,27.7510451 22.5347625,28.1573744 22.3814284,28.6173767 C22.2280943,29.077379 22.1284287,29.5680407 22.0824284,30.0893767 C22.0364282,30.6107126 22.059428,31.1167075 22.1514284,31.6073767 C22.2127621,31.8527112 22.3047612,32.1440416 22.4274284,32.4813767 C22.5500957,32.8187117 22.7800934,32.9873767 23.1174284,32.9873767 C23.5467639,32.9873767 23.9837596,32.8417114 24.4284284,32.5503767 C24.8730973,32.2590419 25.2794266,31.8757124 25.6474284,31.4003767 C26.0154303,30.9250409 26.3220939,30.3960462 26.5674284,29.8133767 C26.812763,29.2307071 26.9507616,28.6633794 26.9814284,28.1113767 C26.9814284,27.8660421 26.9507621,27.6897105 26.8894284,27.5823767 C26.8280948,27.4750428 26.7667621,27.3907103 26.7054284,27.3293767 C26.5520943,27.1760426 26.2837637,27.0303773 25.9004284,26.8923767 C25.5170932,26.754376 24.9267658,26.7007098 24.1294284,26.7313767 L23.9914284,26.7313767 C23.899428,26.7313767 23.8227621,26.7160435 23.7614284,26.6853767 Z M36.5954284,27.1913767 C36.840763,27.130043 37.0707607,27.168376 37.2854284,27.3063767 C37.5000962,27.4443773 37.6380948,27.6360421 37.6994284,27.8813767 C37.8220957,28.4027126 37.891095,29.0007066 37.9064284,29.6753767 C37.9217619,30.3500467 37.8834289,31.01704 37.7914284,31.6763767 C37.699428,32.3357133 37.5537628,32.9720403 37.3544284,33.5853767 C37.1550941,34.1987131 36.8867635,34.704708 36.5494284,35.1033767 C36.2120934,35.5327121 35.8824301,35.8087094 35.5604284,35.9313767 C35.2384268,36.0540439 34.954763,36.1153767 34.7094284,36.1153767 C33.6360897,36.1153767 32.5014344,34.950055 31.3054284,32.6193767 C30.876093,31.7913725 30.4927635,30.9327144 30.1554284,30.0433767 C29.8180934,29.1540389 29.5574294,28.4180462 29.3734284,27.8353767 C29.3120948,27.5900421 29.3350946,27.3523778 29.4424284,27.1223767 C29.5497623,26.8923755 29.7260939,26.7467103 29.9714284,26.6853767 C30.216763,26.5933762 30.4544273,26.6087094 30.6844284,26.7313767 C30.9144296,26.8540439 31.0600948,27.0380421 31.1214284,27.2833767 C31.2747625,27.8047126 31.5124268,28.4640393 31.8344284,29.2613767 C32.1564301,30.058714 32.5014266,30.8407062 32.8694284,31.6073767 C33.1454298,32.1900462 33.3984273,32.6577082 33.6284284,33.0103767 C33.8584296,33.3630451 34.0500943,33.6313757 34.2034284,33.8153767 C34.3567625,33.9993776 34.479428,34.122043 34.5714284,34.1833767 C34.6634289,34.2447103 34.7247616,34.2753767 34.7554284,34.2753767 C34.8167621,34.2753767 34.8780948,34.2447103 34.9394284,34.1833767 L35.1234284,33.9993767 C35.3380962,33.7233753 35.5220943,33.355379 35.6754284,32.8953767 C35.8287625,32.4353744 35.9360948,31.9447126 35.9974284,31.4233767 C36.0587621,30.9020407 36.0894284,30.3653794 36.0894284,29.8133767 C36.0894284,29.2613739 36.0280957,28.755379 35.9054284,28.2953767 C35.8440948,28.0500421 35.8824278,27.8200444 36.0204284,27.6053767 C36.1584291,27.3907089 36.3500939,27.2527103 36.5954284,27.1913767 Z M47.9114284,34.1833767 C48.0340957,34.4287112 48.0494289,34.6663755 47.9574284,34.8963767 C47.865428,35.1263778 47.696763,35.2873762 47.4514284,35.3793767 C46.838092,35.6860449 46.1940985,35.9007094 45.5194284,36.0233767 C44.8447584,36.1460439 44.2620976,36.2073767 43.7714284,36.2073767 C42.7594234,36.2073767 41.9544314,36.0387117 41.3564284,35.7013767 C40.7584255,35.3640416 40.2907635,35.0113785 39.9534284,34.6433767 C39.5854266,34.2140412 39.2940962,33.7003796 39.0794284,33.1023767 C38.8647607,32.5043737 38.7574284,31.8680467 38.7574284,31.1933767 C38.7574284,30.4880398 38.8724273,29.7980467 39.1024284,29.1233767 C39.3324296,28.4487066 39.6467598,27.8507126 40.0454284,27.3293767 C41.0574335,26.0413702 42.3147543,25.3973767 43.8174284,25.3973767 C44.7067662,25.3973767 45.3354266,25.6120412 45.7034284,26.0413767 C46.0714303,26.4707121 46.2554284,26.9460407 46.2554284,27.4673767 C46.2554284,28.6327158 45.7494335,29.7673711 44.7374284,30.8713767 C44.2160925,31.3927126 43.6410983,31.8297082 43.0124284,32.1823767 C42.3837586,32.5350451 41.7167653,32.7727094 41.0114284,32.8953767 C41.1954294,33.2940453 41.502093,33.6390419 41.9314284,33.9303767 C42.3607639,34.2217114 42.9740911,34.3673767 43.7714284,34.3673767 C44.1394303,34.3673767 44.5994257,34.3213771 45.1514284,34.2293767 C45.7034312,34.1373762 46.2094261,33.9687112 46.6694284,33.7233767 C46.914763,33.6007094 47.1524273,33.5853762 47.3824284,33.6773767 C47.6124296,33.7693771 47.7887612,33.9380421 47.9114284,34.1833767 Z M40.6894284,31.1013767 C41.2414312,31.0093762 41.7474261,30.825378 42.2074284,30.5493767 C42.6674307,30.2733753 43.0584268,29.9590451 43.3804284,29.6063767 C43.7024301,29.2537082 43.9554275,28.8857119 44.1394284,28.5023767 C44.3234294,28.1190414 44.4154284,27.7740449 44.4154284,27.4673767 C44.4154284,27.406043 44.4077619,27.3753767 44.3924284,27.3753767 C44.377095,27.3753767 44.3694284,27.3600435 44.3694284,27.3293767 C44.3387616,27.3293767 44.2927621,27.3140435 44.2314284,27.2833767 C44.1700948,27.2833767 44.1087621,27.2757101 44.0474284,27.2603767 C43.9860948,27.2450432 43.9094289,27.2373767 43.8174284,27.2373767 C43.3267593,27.2373767 42.8897637,27.3523755 42.5064284,27.5823767 C42.1230932,27.8123778 41.7934298,28.1113748 41.5174284,28.4793767 C41.2414271,28.8473785 41.019096,29.2613744 40.8504284,29.7213767 C40.6817609,30.181379 40.5974284,30.6413744 40.5974284,31.1013767 L40.6894284,31.1013767 Z M67.0934284,25.7193767 C67.338763,25.7193767 67.5534275,25.8113757 67.7374284,25.9953767 C67.9214294,26.1793776 68.0134284,26.3940421 68.0134284,26.6393767 C68.0134284,27.1300458 68.0057619,27.8047057 67.9904284,28.6633767 C67.975095,29.5220476 67.9444287,30.4803714 67.8984284,31.5383767 C67.8524282,32.5963819 67.7757623,33.7233707 67.6684284,34.9193767 C67.5610946,36.1153826 67.4307625,37.3113707 67.2774284,38.5073767 C67.1240943,39.7033826 66.9324296,40.7920384 66.7024284,41.7733767 C66.4724273,42.7547149 66.234763,43.6287062 65.9894284,44.3953767 C65.2534248,46.3580531 64.3181008,47.5233748 63.1834284,47.8913767 C63.1220948,47.9220435 63.0300957,47.9373767 62.9074284,47.9373767 C62.4167593,47.9373767 62.1254289,47.7227121 62.0334284,47.2933767 C61.941428,47.0480421 61.9490946,46.8103778 62.0564284,46.5803767 C62.1637623,46.3503755 62.3400939,46.2047103 62.5854284,46.1433767 C62.7387625,46.082043 62.9687602,45.8980449 63.2754284,45.5913767 C63.5820966,45.2847085 63.9040934,44.6713813 64.2414284,43.7513767 C64.7320976,42.3713698 65.1460934,40.5313882 65.4834284,38.2313767 L65.6674284,36.5753767 C65.6060948,36.4527094 65.3760971,36.1077128 64.9774284,35.5403767 C64.5787598,34.9730405 64.1187644,34.3367135 63.5974284,33.6313767 C63.0760925,32.9873734 62.6467635,32.4660453 62.3094284,32.0673767 C61.9720934,31.668708 61.6884296,31.3543778 61.4584284,31.1243767 C61.2284273,30.8943755 61.0597623,30.7410437 60.9524284,30.6643767 C60.8450946,30.5877096 60.7760953,30.5493767 60.7454284,30.5493767 C60.1627589,30.4573762 59.9020948,30.1200462 59.9634284,29.5373767 C59.9634284,29.2920421 60.0630941,29.0850442 60.2624284,28.9163767 C60.4617628,28.7477091 60.6840939,28.6787098 60.9294284,28.7093767 C61.1134294,28.7093767 61.3127607,28.7553762 61.5274284,28.8473767 C61.7420962,28.9393771 62.0027602,29.1157087 62.3094284,29.3763767 C62.6160966,29.6370446 62.9764264,30.0050409 63.3904284,30.4803767 C63.8044305,30.9557124 64.318092,31.5767062 64.9314284,32.3433767 C65.0847625,32.5887112 65.2534275,32.8263755 65.4374284,33.0563767 C65.6214294,33.2863778 65.7900943,33.5087089 65.9434284,33.7233767 C66.0354289,32.1900357 66.0967616,30.7947163 66.1274284,29.5373767 C66.1580953,28.280037 66.1734284,27.3140467 66.1734284,26.6393767 C66.1734284,26.3940421 66.2654275,26.1793776 66.4494284,25.9953767 C66.6334294,25.8113757 66.8480939,25.7193767 67.0934284,25.7193767 Z M71.6934284,34.8273767 C70.9880916,34.8273767 70.382431,34.5667126 69.8764284,34.0453767 C69.3704259,33.5240407 69.0407625,32.8187144 68.8874284,31.9293767 C68.795428,31.3160403 68.7800948,30.6490469 68.8414284,29.9283767 C68.9027621,29.2077064 69.0407607,28.5253799 69.2554284,27.8813767 C69.838098,26.286702 70.6814229,25.3053785 71.7854284,24.9373767 C71.9694294,24.9067098 72.1534275,24.9067098 72.3374284,24.9373767 C72.3987621,24.9067098 72.475428,24.8913767 72.5674284,24.8913767 L72.6594284,24.8913767 C72.8434294,24.8913767 73.0964268,24.8990432 73.4184284,24.9143767 C73.7404301,24.9297101 74.0854266,24.968043 74.4534284,25.0293767 C74.8214303,25.0907103 75.1970932,25.1980426 75.5804284,25.3513767 C75.9637637,25.5047108 76.3087602,25.7347085 76.6154284,26.0413767 C77.1367644,26.5627126 77.3974284,27.2833721 77.3974284,28.2033767 C77.3667616,28.9087135 77.1980966,29.6447062 76.8914284,30.4113767 C76.5847602,31.1780472 76.1707644,31.8987066 75.6494284,32.5733767 C75.0667589,33.2787135 74.4380985,33.830708 73.7634284,34.2293767 C73.0887584,34.6280453 72.3987653,34.8273767 71.6934284,34.8273767 Z M72.3374284,26.6853767 C72.0614271,26.8080439 71.800763,27.0457082 71.5554284,27.3983767 C71.3100939,27.7510451 71.1107625,28.1573744 70.9574284,28.6173767 C70.8040943,29.077379 70.7044287,29.5680407 70.6584284,30.0893767 C70.6124282,30.6107126 70.635428,31.1167075 70.7274284,31.6073767 C70.7887621,31.8527112 70.8807612,32.1440416 71.0034284,32.4813767 C71.1260957,32.8187117 71.3560934,32.9873767 71.6934284,32.9873767 C72.1227639,32.9873767 72.5597596,32.8417114 73.0044284,32.5503767 C73.4490973,32.2590419 73.8554266,31.8757124 74.2234284,31.4003767 C74.5914303,30.9250409 74.8980939,30.3960462 75.1434284,29.8133767 C75.388763,29.2307071 75.5267616,28.6633794 75.5574284,28.1113767 C75.5574284,27.8660421 75.5267621,27.6897105 75.4654284,27.5823767 C75.4040948,27.4750428 75.3427621,27.3907103 75.2814284,27.3293767 C75.1280943,27.1760426 74.8597637,27.0303773 74.4764284,26.8923767 C74.0930932,26.754376 73.5027658,26.7007098 72.7054284,26.7313767 L72.5674284,26.7313767 C72.475428,26.7313767 72.3987621,26.7160435 72.3374284,26.6853767 Z M87.5634284,35.8393767 C87.9314303,36.115378 88.0694289,36.4373748 87.9774284,36.8053767 C87.885428,37.2960458 87.5787644,37.5413767 87.0574284,37.5413767 L86.9194284,37.5413767 C86.4287593,37.4493762 86.1067625,37.1887121 85.9534284,36.7593767 C85.8000943,36.3300412 85.6927621,36.0080444 85.6314284,35.7933767 C85.5700948,35.4867085 85.5240953,35.1417119 85.4934284,34.7583767 C85.4627616,34.3750414 85.4474284,33.9380458 85.4474284,33.4473767 C85.4167616,33.2940426 85.4014284,33.1637105 85.4014284,33.0563767 L85.4014284,32.7113767 L85.1254284,33.0793767 C85.033428,33.2020439 84.9260957,33.3247094 84.8034284,33.4473767 C84.5580939,33.723378 84.2744301,34.0300416 83.9524284,34.3673767 C83.6304268,34.7047117 83.2700971,35.0267085 82.8714284,35.3333767 C82.4727598,35.6400449 82.0434307,35.8930423 81.5834284,36.0923767 C81.1234261,36.291711 80.6480976,36.3913767 80.1574284,36.3913767 C79.6360925,36.3913767 79.2067635,36.1920453 78.8694284,35.7933767 C78.440093,35.3333744 78.2484282,34.6817142 78.2944284,33.8383767 C78.3404287,32.9950391 78.4400943,32.0520485 78.5934284,31.0093767 C78.7160957,30.2120393 78.8080948,29.4300472 78.8694284,28.6633767 C78.9000953,28.2033744 78.8847621,27.9043773 78.8234284,27.7663767 C78.7620948,27.628376 78.7314284,27.5440435 78.7314284,27.5133767 C78.5780943,27.3293757 78.5014284,27.1147112 78.5014284,26.8693767 C78.5014284,26.6240421 78.5934275,26.4093776 78.7774284,26.2253767 C78.9920962,26.0720426 79.2220939,25.9953767 79.4674284,25.9953767 C79.712763,25.9953767 79.9274275,26.1027089 80.1114284,26.3173767 C80.5407639,26.8080458 80.7400953,27.4903723 80.7094284,28.3643767 C80.6787616,29.238381 80.5867625,30.212038 80.4334284,31.2853767 C80.3720948,31.6840453 80.3107621,32.0750414 80.2494284,32.4583767 C80.1880948,32.8417119 80.1574284,33.2020416 80.1574284,33.5393767 C80.1267616,33.8460449 80.119095,34.0760426 80.1344284,34.2293767 C80.1497619,34.3827108 80.1727616,34.490043 80.2034284,34.5513767 C80.6327639,34.5207098 81.1310923,34.3060453 81.6984284,33.9073767 C82.2657646,33.508708 82.8254257,32.9720467 83.3774284,32.2973767 C83.960098,31.6227066 84.4354266,30.9250469 84.8034284,30.2043767 C85.1714303,29.4837064 85.3860948,28.8780458 85.4474284,28.3873767 C85.4474284,28.326043 85.455095,28.2723769 85.4704284,28.2263767 C85.4857619,28.1803764 85.4934284,28.1267103 85.4934284,28.0653767 C85.5240953,27.666708 85.6927602,27.4060439 85.9994284,27.2833767 C86.1220957,27.222043 86.2754275,27.1913767 86.4594284,27.1913767 C86.704763,27.2220435 86.9117609,27.3140426 87.0804284,27.4673767 C87.249096,27.6207108 87.3334284,27.8507085 87.3334284,28.1573767 L87.3334284,28.8473767 C87.3027616,29.2767121 87.2797619,29.859373 87.2644284,30.5953767 C87.249095,31.3313803 87.2414284,32.0827062 87.2414284,32.8493767 C87.2720953,33.8920485 87.3180948,34.6280412 87.3794284,35.0573767 C87.4407621,35.4867121 87.5020948,35.7473762 87.5634284,35.8393767 Z M110.839428,34.5053767 C111.238097,34.6587108 111.437428,34.9500412 111.437428,35.3793767 C111.437428,35.6247112 111.345429,35.8393757 111.161428,36.0233767 C110.977428,36.2073776 110.762763,36.2993767 110.517428,36.2993767 C109.996093,36.2993767 109.62043,36.0847121 109.390428,35.6553767 C109.160427,35.2260412 108.999429,34.8887112 108.907428,34.6433767 C108.784761,34.3060416 108.669762,33.9150455 108.562428,33.4703767 C108.455095,33.0257078 108.340096,32.5580458 108.217428,32.0673767 L107.803428,30.4113767 C107.435427,30.9020458 106.990764,31.4387071 106.469428,32.0213767 C105.825425,32.7573803 105.258098,33.3477078 104.767428,33.7923767 C104.276759,34.2370455 103.839764,34.5743755 103.456428,34.8043767 C103.073093,35.0343778 102.751096,35.1877096 102.490428,35.2643767 C102.22976,35.3410437 102.007429,35.3793767 101.823428,35.3793767 C101.210092,35.3793767 100.780763,35.1033794 100.535428,34.5513767 C100.382094,34.1833748 100.305428,33.769379 100.305428,33.3093767 C100.305428,32.6040398 100.43576,31.7760481 100.696428,30.8253767 C100.957096,29.8747052 101.302093,28.9547144 101.731428,28.0653767 C101.946096,27.666708 102.18376,27.2603787 102.444428,26.8463767 C102.705096,26.4323746 103.004093,26.0490451 103.341428,25.6963767 C103.678763,25.3437082 104.039093,25.0600444 104.422428,24.8453767 C104.805764,24.6307089 105.227426,24.5233767 105.687428,24.5233767 C106.362098,24.5233767 106.990759,24.8147071 107.573428,25.3973767 C107.972097,25.857379 108.340093,26.455373 108.677428,27.1913767 C108.95343,27.8660467 109.198761,28.5943727 109.413428,29.3763767 C109.628096,30.1583806 109.827428,30.917373 110.011428,31.6533767 C110.103429,32.0213785 110.187761,32.3740416 110.264428,32.7113767 C110.341095,33.0487117 110.425428,33.3707085 110.517428,33.6773767 C110.578762,33.9227112 110.640095,34.1067094 110.701428,34.2293767 L110.839428,34.5053767 Z M105.089428,30.8253767 C105.518764,30.3040407 105.917427,29.8057124 106.285428,29.3303767 C106.65343,28.8550409 106.929428,28.4947112 107.113428,28.2493767 L106.975428,27.9273767 C106.852761,27.6513753 106.67643,27.3217119 106.446428,26.9383767 C106.216427,26.5550414 105.96343,26.3633767 105.687428,26.3633767 C105.196759,26.3633767 104.614098,26.8693716 103.939428,27.8813767 C103.63276,28.3720458 103.349096,28.9317068 103.088428,29.5603767 C102.82776,30.1890465 102.605429,30.8100403 102.421428,31.4233767 C102.298761,31.9447126 102.222095,32.366375 102.191428,32.6883767 C102.160762,33.0103783 102.145428,33.2633757 102.145428,33.4473767 C102.390763,33.3553762 102.743426,33.1253785 103.203428,32.7573767 C103.663431,32.3893748 104.292091,31.7453813 105.089428,30.8253767 Z M114.795428,16.7493767 C114.918096,17.5773808 115.017761,18.5357045 115.094428,19.6243767 C115.171095,20.7130488 115.240095,21.9473698 115.301428,23.3273767 L115.393428,27.0073767 C115.424095,28.2340495 115.447095,29.3763714 115.462428,30.4343767 C115.477762,31.4923819 115.477762,32.4430391 115.462428,33.2863767 C115.447095,34.1297142 115.439428,34.7967075 115.439428,35.2873767 C115.408762,35.5327112 115.309096,35.7397091 115.140428,35.9083767 C114.971761,36.0770442 114.764763,36.1613767 114.519428,36.1613767 L114.473428,36.1613767 C114.228094,36.1613767 114.013429,36.061711 113.829428,35.8623767 C113.645428,35.6630423 113.568762,35.4407112 113.599428,35.1953767 C113.599428,34.7353744 113.607095,34.0990474 113.622428,33.2863767 C113.637762,32.4737059 113.637762,31.5460485 113.622428,30.5033767 C113.607095,29.4607048 113.584095,28.3490492 113.553428,27.1683767 C113.522762,25.9877041 113.492095,24.7993826 113.461428,23.6033767 C113.369428,21.7633675 113.277429,20.2530492 113.185428,19.0723767 C113.093428,17.8917041 112.993762,16.9410469 112.886428,16.2203767 C112.779095,15.4997064 112.679429,14.9860449 112.587428,14.6793767 C112.495428,14.3727085 112.434095,14.1733771 112.403428,14.0813767 C112.035427,13.9280426 111.851428,13.6520453 111.851428,13.2533767 C111.851428,13.0080421 111.943428,12.7933776 112.127428,12.6093767 C112.311429,12.4253757 112.526094,12.3333767 112.771428,12.3333767 C113.078097,12.3333767 113.38476,12.4560421 113.691428,12.7013767 C113.783429,12.7933771 113.875428,12.9237091 113.967428,13.0923767 C114.059429,13.2610442 114.151428,13.4987085 114.243428,13.8053767 C114.335429,14.1120449 114.427428,14.4953744 114.519428,14.9553767 C114.611429,15.415379 114.703428,16.013373 114.795428,16.7493767 Z M118.843428,16.7493767 C118.966096,17.5773808 119.065761,18.5357045 119.142428,19.6243767 C119.219095,20.7130488 119.288095,21.9473698 119.349428,23.3273767 L119.441428,27.0073767 C119.472095,28.2340495 119.495095,29.3763714 119.510428,30.4343767 C119.525762,31.4923819 119.525762,32.4430391 119.510428,33.2863767 C119.495095,34.1297142 119.487428,34.7967075 119.487428,35.2873767 C119.456762,35.5327112 119.357096,35.7397091 119.188428,35.9083767 C119.019761,36.0770442 118.812763,36.1613767 118.567428,36.1613767 L118.521428,36.1613767 C118.276094,36.1613767 118.061429,36.061711 117.877428,35.8623767 C117.693428,35.6630423 117.616762,35.4407112 117.647428,35.1953767 C117.647428,34.7353744 117.655095,34.0990474 117.670428,33.2863767 C117.685762,32.4737059 117.685762,31.5460485 117.670428,30.5033767 C117.655095,29.4607048 117.632095,28.3490492 117.601428,27.1683767 C117.570762,25.9877041 117.540095,24.7993826 117.509428,23.6033767 C117.417428,21.7633675 117.325429,20.2530492 117.233428,19.0723767 C117.141428,17.8917041 117.041762,16.9410469 116.934428,16.2203767 C116.827095,15.4997064 116.727429,14.9860449 116.635428,14.6793767 C116.543428,14.3727085 116.482095,14.1733771 116.451428,14.0813767 C116.083427,13.9280426 115.899428,13.6520453 115.899428,13.2533767 C115.899428,13.0080421 115.991428,12.7933776 116.175428,12.6093767 C116.359429,12.4253757 116.574094,12.3333767 116.819428,12.3333767 C117.126097,12.3333767 117.43276,12.4560421 117.739428,12.7013767 C117.831429,12.7933771 117.923428,12.9237091 118.015428,13.0923767 C118.107429,13.2610442 118.199428,13.4987085 118.291428,13.8053767 C118.383429,14.1120449 118.475428,14.4953744 118.567428,14.9553767 C118.659429,15.415379 118.751428,16.013373 118.843428,16.7493767 Z M121.327428,32.2973767 C121.572763,32.2973767 121.756761,32.4047089 121.879428,32.6193767 L122.247428,33.2633767 C122.738098,34.1220476 123.067761,34.8887066 123.236428,35.5633767 C123.405096,36.2380467 123.443429,36.8897068 123.351428,37.5183767 C123.259428,38.1470465 123.083096,38.79104 122.822428,39.4503767 C122.56176,40.1097133 122.24743,40.8533725 121.879428,41.6813767 C121.848762,41.9267112 121.741429,42.1413757 121.557428,42.3253767 C121.373428,42.5093776 121.158763,42.5860435 120.913428,42.5553767 C120.668094,42.5553767 120.453429,42.455711 120.269428,42.2563767 C120.085428,42.0570423 120.008762,41.8347112 120.039428,41.5893767 C120.346097,40.7920393 120.65276,40.0943796 120.959428,39.4963767 C121.266097,38.8983737 121.473095,38.3080462 121.580428,37.7253767 C121.687762,37.1427071 121.664763,36.5217133 121.511428,35.8623767 C121.358094,35.20304 120.990098,34.3980481 120.407428,33.4473767 C120.254094,33.2020421 120.30776,32.9567112 120.568428,32.7113767 C120.829096,32.4660421 121.082094,32.3280435 121.327428,32.2973767 Z M17.8274284,69.2453767 C18.8701003,70.1040476 19.437428,71.6986983 19.5294284,74.0293767 C19.5907621,75.0720485 19.537096,76.130038 19.3684284,77.2033767 C19.1997609,78.2767154 18.9467635,79.2887052 18.6094284,80.2393767 C18.0880925,81.6807172 17.4134326,82.8153725 16.5854284,83.6433767 C15.6040902,84.6553817 14.4694349,85.1613767 13.1814284,85.1613767 C11.7400879,85.1613767 10.4214344,84.7473808 9.22542845,83.9193767 C8.18275657,83.183373 7.26276577,82.1407167 6.46542845,80.7913767 C5.79075841,79.5953707 5.27709688,78.2230511 4.92442845,76.6743767 C4.57176002,75.1257022 4.39542845,73.4773854 4.39542845,71.7293767 C4.39542845,69.9200343 4.5870932,68.2027181 4.97042845,66.5773767 C5.3537637,64.9520352 5.89809159,63.4953831 6.60342845,62.2073767 C7.37009895,60.7967029 8.32075611,59.692714 9.45542845,58.8953767 C10.6821012,58.0367057 12.0467543,57.6073767 13.5494284,57.6073767 C14.0400976,57.6073767 14.5307593,57.6917091 15.0214284,57.8603767 C15.5120976,58.0290442 15.972093,58.312708 16.4014284,58.7113767 C16.8307639,59.1100453 17.2064268,59.6313734 17.5284284,60.2753767 C17.8504301,60.9193799 18.0727612,61.7013721 18.1954284,62.6213767 C18.2260953,62.8667112 18.1647625,63.0890423 18.0114284,63.2883767 C17.8580943,63.487711 17.658763,63.618043 17.4134284,63.6793767 C17.1680939,63.7100435 16.9457628,63.6487108 16.7464284,63.4953767 C16.5470941,63.3420426 16.4167621,63.1427112 16.3554284,62.8973767 C16.2020943,61.824038 15.8800976,60.9807131 15.3894284,60.3673767 C14.8987593,59.7540403 14.2854321,59.4473767 13.5494284,59.4473767 C12.3534225,59.4473767 11.3030996,59.8000398 10.3984284,60.5053767 C9.49375726,61.2107135 8.72709826,62.1383709 8.09842845,63.2883767 C7.46975864,64.4383824 7.00209665,65.7493693 6.69542845,67.2213767 C6.38876025,68.693384 6.23542845,70.1960357 6.23542845,71.7293767 C6.23542845,73.1093836 6.37342707,74.4893698 6.64942845,75.8693767 C6.92542983,77.2493836 7.35475887,78.4913711 7.93742845,79.5953767 C8.52009803,80.6993822 9.24075749,81.5963732 10.0994284,82.2863767 C10.9580994,82.9763801 11.9854225,83.3213767 13.1814284,83.3213767 C13.7027644,83.3213767 14.1627598,83.1910446 14.5614284,82.9303767 C14.9600971,82.6697087 15.3050937,82.3477119 15.5964284,81.9643767 C15.8877632,81.5810414 16.1407607,81.1747121 16.3554284,80.7453767 C16.5700962,80.3160412 16.7387612,79.9327117 16.8614284,79.5953767 C17.1987635,78.7673725 17.4364278,77.8780481 17.5744284,76.9273767 C17.7124291,75.9767052 17.7507621,75.0413813 17.6894284,74.1213767 C17.6587616,73.2933725 17.5514294,72.5727131 17.3674284,71.9593767 C17.1834275,71.3460403 16.9380966,70.9167112 16.6314284,70.6713767 C16.5700948,70.610043 16.4014298,70.5410437 16.1254284,70.4643767 C15.8494271,70.3877096 15.3280989,70.3953762 14.5614284,70.4873767 C14.0094257,70.5487103 13.442098,70.6330428 12.8594284,70.7403767 C12.2767589,70.8477105 11.7247644,70.9627094 11.2034284,71.0853767 C10.6820925,71.2387108 10.2757632,71.3383764 9.98442845,71.3843767 C9.69309366,71.4303769 9.45542937,71.4533767 9.27142845,71.4533767 C9.02609389,71.4227098 8.81142937,71.3153776 8.62742845,71.1313767 C8.44342753,70.9473757 8.36676163,70.7327112 8.39742845,70.4873767 C8.39742845,70.2420421 8.48942753,70.0273776 8.67342845,69.8433767 C8.85742937,69.6593757 9.07209389,69.5827098 9.31742845,69.6133767 C9.44009573,69.6133767 9.64709366,69.5750437 9.93842845,69.4983767 C10.2297632,69.4217096 10.5134271,69.3527103 10.7894284,69.2913767 C12.3227694,68.9540416 13.7104222,68.7240439 14.9524284,68.6013767 C16.1944347,68.4787094 17.1527584,68.6933739 17.8274284,69.2453767 Z M29.9254284,83.5053767 C30.3240971,83.6587108 30.5234284,83.9500412 30.5234284,84.3793767 C30.5234284,84.6247112 30.4314294,84.8393757 30.2474284,85.0233767 C30.0634275,85.2073776 29.848763,85.2993767 29.6034284,85.2993767 C29.0820925,85.2993767 28.7064296,85.0847121 28.4764284,84.6553767 C28.2464273,84.2260412 28.0854289,83.8887112 27.9934284,83.6433767 C27.8707612,83.3060416 27.7557623,82.9150455 27.6484284,82.4703767 C27.5410946,82.0257078 27.4260957,81.5580458 27.3034284,81.0673767 L26.8894284,79.4113767 C26.5214266,79.9020458 26.0767644,80.4387071 25.5554284,81.0213767 C24.9114252,81.7573803 24.3440976,82.3477078 23.8534284,82.7923767 C23.3627593,83.2370455 22.9257637,83.5743755 22.5424284,83.8043767 C22.1590932,84.0343778 21.8370964,84.1877096 21.5764284,84.2643767 C21.3157605,84.3410437 21.0934294,84.3793767 20.9094284,84.3793767 C20.296092,84.3793767 19.866763,84.1033794 19.6214284,83.5513767 C19.4680943,83.1833748 19.3914284,82.769379 19.3914284,82.3093767 C19.3914284,81.6040398 19.5217605,80.7760481 19.7824284,79.8253767 C20.0430964,78.8747052 20.388093,77.9547144 20.8174284,77.0653767 C21.0320962,76.666708 21.2697605,76.2603787 21.5304284,75.8463767 C21.7910964,75.4323746 22.0900934,75.0490451 22.4274284,74.6963767 C22.7647635,74.3437082 23.1250932,74.0600444 23.5084284,73.8453767 C23.8917637,73.6307089 24.3134261,73.5233767 24.7734284,73.5233767 C25.4480985,73.5233767 26.0767589,73.8147071 26.6594284,74.3973767 C27.0580971,74.857379 27.4260934,75.455373 27.7634284,76.1913767 C28.0394298,76.8660467 28.2847607,77.5943727 28.4994284,78.3763767 C28.7140962,79.1583806 28.9134275,79.917373 29.0974284,80.6533767 C29.1894289,81.0213785 29.2737614,81.3740416 29.3504284,81.7113767 C29.4270955,82.0487117 29.511428,82.3707085 29.6034284,82.6773767 C29.6647621,82.9227112 29.7260948,83.1067094 29.7874284,83.2293767 L29.9254284,83.5053767 Z M24.1754284,79.8253767 C24.6047639,79.3040407 25.0034266,78.8057124 25.3714284,78.3303767 C25.7394303,77.8550409 26.0154275,77.4947112 26.1994284,77.2493767 L26.0614284,76.9273767 C25.9387612,76.6513753 25.7624296,76.3217119 25.5324284,75.9383767 C25.3024273,75.5550414 25.0494298,75.3633767 24.7734284,75.3633767 C24.2827593,75.3633767 23.7000985,75.8693716 23.0254284,76.8813767 C22.7187602,77.3720458 22.4350964,77.9317068 22.1744284,78.5603767 C21.9137605,79.1890465 21.6914294,79.8100403 21.5074284,80.4233767 C21.3847612,80.9447126 21.3080953,81.366375 21.2774284,81.6883767 C21.2467616,82.0103783 21.2314284,82.2633757 21.2314284,82.4473767 C21.476763,82.3553762 21.8294261,82.1253785 22.2894284,81.7573767 C22.7494307,81.3893748 23.3780911,80.7453813 24.1754284,79.8253767 Z M38.2054284,75.7773767 C38.788098,76.4213799 39.2404268,77.2263718 39.5624284,78.1923767 C39.8844301,79.1583815 40.1144278,80.1627048 40.2524284,81.2053767 C40.3904291,82.2480485 40.4517619,83.2907048 40.4364284,84.3333767 C40.421095,85.3760485 40.3827621,86.2807062 40.3214284,87.0473767 C40.1374275,89.2247209 39.8154307,91.0493693 39.3554284,92.5213767 C38.742092,94.3613859 37.8987671,95.6340398 36.8254284,96.3393767 C36.0894248,96.799379 35.2767662,97.0293767 34.3874284,97.0293767 C33.7127584,97.0293767 33.0380985,96.9220444 32.3634284,96.7073767 C32.1180939,96.6153762 31.9417623,96.4620444 31.8344284,96.2473767 C31.7270946,96.0327089 31.7040948,95.8027112 31.7654284,95.5573767 C31.8574289,95.3120421 32.0184273,95.1280439 32.2484284,95.0053767 C32.4784296,94.8827094 32.7160939,94.8673762 32.9614284,94.9593767 C34.1267676,95.3273785 35.0774248,95.2660458 35.8134284,94.7753767 C37.254769,93.8247052 38.1440934,91.2027315 38.4814284,86.9093767 C38.6040957,85.2840352 38.6194289,83.8043833 38.5274284,82.4703767 C38.435428,81.13637 38.2360966,79.9940481 37.9294284,79.0433767 C37.837428,79.4113785 37.7147625,79.7793748 37.5614284,80.1473767 L37.1014284,81.2513767 C35.9667561,83.6127218 34.6021031,84.7933767 33.0074284,84.7933767 C32.1180907,84.7933767 31.4587639,84.3487144 31.0294284,83.4593767 C30.7227602,82.7847066 30.5694284,82.0027144 30.5694284,81.1133767 C30.5694284,80.377373 30.6614275,79.6337137 30.8454284,78.8823767 C31.0294294,78.1310396 31.2900934,77.4487131 31.6274284,76.8353767 C32.4860994,75.2100352 33.6514211,74.3973767 35.1234284,74.3973767 C36.3501012,74.3973767 37.3774243,74.8573721 38.2054284,75.7773767 Z M35.4454284,80.4693767 C35.7827635,79.7640398 36.0434275,79.0433803 36.2274284,78.3073767 C36.4114294,77.571373 36.5187616,77.0347117 36.5494284,76.6973767 C36.1507598,76.3907085 35.6754312,76.2373767 35.1234284,76.2373767 C34.6634261,76.2373767 34.2800966,76.398375 33.9734284,76.7203767 C33.6667602,77.0423783 33.4214294,77.3720416 33.2374284,77.7093767 C32.9920939,78.2000458 32.7927625,78.7443737 32.6394284,79.3423767 C32.4860943,79.9403796 32.4094284,80.5307071 32.4094284,81.1133767 C32.4094284,81.8187135 32.5014275,82.3247085 32.6854284,82.6313767 C32.7467621,82.7847108 32.8080948,82.8767098 32.8694284,82.9073767 C32.9307621,82.9380435 32.9767616,82.9533767 33.0074284,82.9533767 C33.4060971,82.9533767 33.820093,82.7387121 34.2494284,82.3093767 C34.6787639,81.8800412 35.0774266,81.266714 35.4454284,80.4693767 Z M51.9134284,83.5053767 C52.3120971,83.6587108 52.5114284,83.9500412 52.5114284,84.3793767 C52.5114284,84.6247112 52.4194294,84.8393757 52.2354284,85.0233767 C52.0514275,85.2073776 51.836763,85.2993767 51.5914284,85.2993767 C51.0700925,85.2993767 50.6944296,85.0847121 50.4644284,84.6553767 C50.2344273,84.2260412 50.0734289,83.8887112 49.9814284,83.6433767 C49.8587612,83.3060416 49.7437623,82.9150455 49.6364284,82.4703767 C49.5290946,82.0257078 49.4140957,81.5580458 49.2914284,81.0673767 L48.8774284,79.4113767 C48.5094266,79.9020458 48.0647644,80.4387071 47.5434284,81.0213767 C46.8994252,81.7573803 46.3320976,82.3477078 45.8414284,82.7923767 C45.3507593,83.2370455 44.9137637,83.5743755 44.5304284,83.8043767 C44.1470932,84.0343778 43.8250964,84.1877096 43.5644284,84.2643767 C43.3037605,84.3410437 43.0814294,84.3793767 42.8974284,84.3793767 C42.284092,84.3793767 41.854763,84.1033794 41.6094284,83.5513767 C41.4560943,83.1833748 41.3794284,82.769379 41.3794284,82.3093767 C41.3794284,81.6040398 41.5097605,80.7760481 41.7704284,79.8253767 C42.0310964,78.8747052 42.376093,77.9547144 42.8054284,77.0653767 C43.0200962,76.666708 43.2577605,76.2603787 43.5184284,75.8463767 C43.7790964,75.4323746 44.0780934,75.0490451 44.4154284,74.6963767 C44.7527635,74.3437082 45.1130932,74.0600444 45.4964284,73.8453767 C45.8797637,73.6307089 46.3014261,73.5233767 46.7614284,73.5233767 C47.4360985,73.5233767 48.0647589,73.8147071 48.6474284,74.3973767 C49.0460971,74.857379 49.4140934,75.455373 49.7514284,76.1913767 C50.0274298,76.8660467 50.2727607,77.5943727 50.4874284,78.3763767 C50.7020962,79.1583806 50.9014275,79.917373 51.0854284,80.6533767 C51.1774289,81.0213785 51.2617614,81.3740416 51.3384284,81.7113767 C51.4150955,82.0487117 51.499428,82.3707085 51.5914284,82.6773767 C51.6527621,82.9227112 51.7140948,83.1067094 51.7754284,83.2293767 L51.9134284,83.5053767 Z M46.1634284,79.8253767 C46.5927639,79.3040407 46.9914266,78.8057124 47.3594284,78.3303767 C47.7274303,77.8550409 48.0034275,77.4947112 48.1874284,77.2493767 L48.0494284,76.9273767 C47.9267612,76.6513753 47.7504296,76.3217119 47.5204284,75.9383767 C47.2904273,75.5550414 47.0374298,75.3633767 46.7614284,75.3633767 C46.2707593,75.3633767 45.6880985,75.8693716 45.0134284,76.8813767 C44.7067602,77.3720458 44.4230964,77.9317068 44.1624284,78.5603767 C43.9017605,79.1890465 43.6794294,79.8100403 43.4954284,80.4233767 C43.3727612,80.9447126 43.2960953,81.366375 43.2654284,81.6883767 C43.2347616,82.0103783 43.2194284,82.2633757 43.2194284,82.4473767 C43.464763,82.3553762 43.8174261,82.1253785 44.2774284,81.7573767 C44.7374307,81.3893748 45.3660911,80.7453813 46.1634284,79.8253767 Z M68.3814284,82.7233767 C67.5534243,82.7233767 66.848098,82.493379 66.2654284,82.0333767 C64.9160884,80.960038 64.548092,79.518719 65.1614284,77.7093767 C65.3760962,77.0040398 65.7134261,76.2833803 66.1734284,75.5473767 C66.6334307,74.811373 67.1394257,74.044714 67.6914284,73.2473767 L68.5194284,72.0053767 C68.1514266,71.2080393 67.8370964,70.372381 67.5764284,69.4983767 C67.3157605,68.6243723 67.1240957,67.6967149 67.0014284,66.7153767 C66.8480943,65.5193707 66.9707598,64.4153817 67.3694284,63.4033767 C67.7374303,62.5140389 68.3047579,61.8547121 69.0714284,61.4253767 C70.0527667,60.8427071 70.9880907,60.8887066 71.8774284,61.5633767 C72.122763,61.7167108 72.3604273,61.9773748 72.5904284,62.3453767 C72.8204296,62.7133785 72.981428,63.2347066 73.0734284,63.9093767 C73.1960957,64.8907149 73.0734303,66.1480357 72.7054284,67.6813767 C72.4907607,68.478714 72.1994303,69.245373 71.8314284,69.9813767 C71.4634266,70.7173803 71.0647639,71.4380398 70.6354284,72.1433767 C71.0954307,73.0327144 71.6167589,73.8530396 72.1994284,74.6043767 C72.782098,75.3557137 73.3954252,76.0687066 74.0394284,76.7433767 C74.4687639,76.0380398 74.7984273,75.2637142 75.0284284,74.4203767 C75.2584296,73.5770391 75.3580953,72.7107144 75.3274284,71.8213767 C75.3274284,71.5760421 75.4117609,71.353711 75.5804284,71.1543767 C75.749096,70.9550423 75.9560939,70.8553767 76.2014284,70.8553767 C76.446763,70.8553767 76.6690941,70.9397091 76.8684284,71.1083767 C77.0677628,71.2770442 77.1674284,71.4993753 77.1674284,71.7753767 C77.1980953,72.9713826 77.0447635,74.0983714 76.7074284,75.1563767 C76.3700934,76.2143819 75.9254312,77.1880389 75.3734284,78.0773767 L78.1334284,80.7453767 C78.5627639,81.1747121 78.5627639,81.6040412 78.1334284,82.0333767 C77.9494275,82.2173776 77.734763,82.3093767 77.4894284,82.3093767 C77.2440939,82.3093767 77.0294294,82.2173776 76.8454284,82.0333767 L75.5114284,80.7913767 L74.2234284,79.5493767 C73.7327593,80.1013794 73.2190978,80.5843746 72.6824284,80.9983767 C72.1457591,81.4123787 71.6014312,81.7573753 71.0494284,82.0333767 C70.0680902,82.493379 69.1787658,82.7233767 68.3814284,82.7233767 Z M69.2094284,74.3053767 C68.0440893,76.0227186 67.2774303,77.3567052 66.9094284,78.3073767 C66.5414266,79.2580481 66.7254248,80.0247071 67.4614284,80.6073767 C67.706763,80.8527112 68.0824259,80.9523769 68.5884284,80.9063767 C69.094431,80.8603764 69.6387589,80.6840449 70.2214284,80.3773767 C71.1720999,79.9173744 72.0767575,79.2120481 72.9354284,78.2613767 C72.322092,77.6173734 71.724098,76.9350469 71.1414284,76.2143767 C70.5587589,75.4937064 70.0067644,74.7040476 69.4854284,73.8453767 L69.2094284,74.3053767 Z M70.4054284,62.8973767 C70.2214275,62.8973767 70.0680957,62.9433762 69.9454284,63.0353767 C69.6080934,63.2500444 69.3090964,63.6487071 69.0484284,64.2313767 C68.7877605,64.8140462 68.7187612,65.5653721 68.8414284,66.4853767 C68.9027621,67.1293799 69.0100943,67.7503737 69.1634284,68.3483767 C69.3167625,68.9463796 69.5007607,69.5213739 69.7154284,70.0733767 C69.960763,69.5827075 70.1830941,69.107379 70.3824284,68.6473767 C70.5817628,68.1873744 70.7580943,67.6967126 70.9114284,67.1753767 C71.2487635,65.9487039 71.3637623,64.9980467 71.2564284,64.3233767 C71.1490946,63.6487066 70.972763,63.2040444 70.7274284,62.9893767 C70.6047612,62.928043 70.4974289,62.8973767 70.4054284,62.8973767 Z M99.3394284,68.5093767 C100.167433,68.969379 100.995424,69.4523741 101.823428,69.9583767 C102.651433,70.4643792 103.372092,71.0393734 103.985428,71.6833767 C105.488103,73.2780513 106.086097,75.1180329 105.779428,77.2033767 C105.503427,79.012719 104.690769,80.5920366 103.341428,81.9413767 C102.145422,83.2293831 100.73477,84.1340407 99.1094284,84.6553767 C98.1894238,84.931378 97.3154326,85.0693767 96.4874284,85.0693767 C94.9234206,85.0693767 93.6660999,84.6093813 92.7154284,83.6893767 C92.4394271,83.3827085 92.1710964,83.0070455 91.9104284,82.5623767 C91.6497605,82.1177078 91.4580957,81.5657133 91.3354284,80.9063767 C91.2127612,80.24704 91.1897614,79.480381 91.2664284,78.6063767 C91.3430955,77.7323723 91.5654266,76.7127158 91.9334284,75.5473767 C91.9947621,75.3020421 92.1404273,75.1257105 92.3704284,75.0183767 C92.6004296,74.9110428 92.8380939,74.888043 93.0834284,74.9493767 C93.328763,75.0107103 93.5050946,75.1563755 93.6124284,75.3863767 C93.7197623,75.6163778 93.7427621,75.8540421 93.6814284,76.0993767 C93.2214261,77.571384 93.0220948,78.844038 93.0834284,79.9173767 C93.1447621,80.9907154 93.4514257,81.8033739 94.0034284,82.3553767 C94.4940976,82.8460458 95.1380911,83.1373762 95.9354284,83.2293767 C96.7327658,83.3213771 97.5914238,83.2140449 98.5114284,82.9073767 C99.094098,82.7233757 99.6844255,82.4473785 100.282428,82.0793767 C100.880431,81.7113748 101.432426,81.2743792 101.938428,80.7683767 C102.444431,80.2623741 102.87376,79.6873799 103.226428,79.0433767 C103.579097,78.3993734 103.816761,77.6940472 103.939428,76.9273767 C104.062096,76.1300393 104.023763,75.4247131 103.824428,74.8113767 C103.625094,74.1980403 103.280098,73.6307126 102.789428,73.1093767 C102.298759,72.5880407 101.685432,72.0897124 100.949428,71.6143767 C100.213425,71.1390409 99.3700999,70.6407126 98.4194284,70.1193767 C97.6527579,69.6900412 96.8860989,69.2377124 96.1194284,68.7623767 C95.3527579,68.2870409 94.6627648,67.7580462 94.0494284,67.1753767 C92.6080879,65.7340361 91.9794275,64.108719 92.1634284,62.2993767 C92.2554289,61.1953711 92.516093,60.244714 92.9454284,59.4473767 C93.3747639,58.6500393 93.896092,58.0060458 94.5094284,57.5153767 C95.1227648,57.0247075 95.7974248,56.679711 96.5334284,56.4803767 C97.2694321,56.2810423 98.0054248,56.212043 98.7414284,56.2733767 C100.090769,56.4267108 101.194757,56.8867062 102.053428,57.6533767 C103.034767,58.5733813 103.479429,59.6773702 103.387428,60.9653767 C103.356762,61.2107112 103.249429,61.4253757 103.065428,61.6093767 C102.881428,61.7933776 102.666763,61.8700435 102.421428,61.8393767 C102.176094,61.8087098 101.961429,61.7013776 101.777428,61.5173767 C101.593428,61.3333757 101.516762,61.1187112 101.547428,60.8733767 C101.608762,60.0147057 101.325098,59.355379 100.696428,58.8953767 C100.067759,58.4353744 99.3700989,58.1747103 98.6034284,58.1133767 C98.0820925,58.0827098 97.5607644,58.1440426 97.0394284,58.2973767 C96.5180925,58.4507108 96.0427639,58.7037082 95.6134284,59.0563767 C95.184093,59.4090451 94.8237632,59.8690405 94.5324284,60.4363767 C94.2410937,61.0037128 94.0647621,61.6860393 94.0034284,62.4833767 C93.9420948,63.2193803 94.0417605,63.8633739 94.3024284,64.4153767 C94.5630964,64.9673794 94.9464259,65.4733744 95.4524284,65.9333767 C95.958431,66.393379 96.5487584,66.8303746 97.2234284,67.2443767 C97.8980985,67.6583787 98.6034248,68.0800412 99.3394284,68.5093767 Z M114.381428,82.3553767 C114.626763,82.2020426 114.864427,82.1637096 115.094428,82.2403767 C115.32443,82.3170437 115.500761,82.4780421 115.623428,82.7233767 C115.746096,82.9687112 115.776762,83.2063755 115.715428,83.4363767 C115.654095,83.6663778 115.500763,83.8427094 115.255428,83.9653767 C115.224762,83.9653767 115.063763,84.0420426 114.772428,84.1953767 C114.481094,84.3487108 114.105431,84.5020426 113.645428,84.6553767 C113.185426,84.8087108 112.664098,84.954376 112.081428,85.0923767 C111.498759,85.2303773 110.916098,85.2993767 110.333428,85.2993767 C109.076089,85.2993767 108.110098,84.732049 107.435428,83.5973767 C106.944759,82.7080389 106.699428,81.6193831 106.699428,80.3313767 C106.699428,79.5647062 106.783761,78.7980472 106.952428,78.0313767 C107.121096,77.2647062 107.366427,76.5747131 107.688428,75.9613767 C108.01043,75.3480403 108.409093,74.8497119 108.884428,74.4663767 C109.359764,74.0830414 109.888759,73.8913767 110.471428,73.8913767 C111.391433,73.8913767 112.150425,74.090708 112.748428,74.4893767 C113.346431,74.8880453 113.676095,75.3020412 113.737428,75.7313767 C113.798762,75.9767112 113.745096,76.1990423 113.576428,76.3983767 C113.407761,76.597711 113.200763,76.7127098 112.955428,76.7433767 C112.740761,76.8047103 112.541429,76.7740439 112.357428,76.6513767 C112.173428,76.5287094 112.050762,76.3753776 111.989428,76.1913767 C111.928095,76.130043 111.767096,76.0380439 111.506428,75.9153767 C111.24576,75.7927094 110.900764,75.7313767 110.471428,75.7313767 C110.256761,75.7313767 110.03443,75.8540421 109.804428,76.0993767 C109.574427,76.3447112 109.367429,76.6820412 109.183428,77.1113767 C108.999428,77.5407121 108.846096,78.0313739 108.723428,78.5833767 C108.600761,79.1353794 108.539428,79.7180403 108.539428,80.3313767 C108.539428,81.3127149 108.708093,82.0947071 109.045428,82.6773767 C109.352097,83.1987126 109.781426,83.4593767 110.333428,83.4593767 C110.793431,83.4593767 111.261093,83.4057105 111.736428,83.2983767 C112.211764,83.1910428 112.64876,83.0607108 113.047428,82.9073767 C113.507431,82.7540426 113.952093,82.5700444 114.381428,82.3553767 Z M126.433428,77.1573767 C126.433428,77.4027112 126.341429,77.6173757 126.157428,77.8013767 C125.973428,77.9853776 125.758763,78.0773767 125.513428,78.0773767 C124.961426,78.0773767 124.654762,77.7860462 124.593428,77.2033767 C124.562762,77.142043 124.478429,77.0730437 124.340428,76.9963767 C124.202428,76.9197096 124.010763,76.8660435 123.765428,76.8353767 C123.704095,76.8967103 123.635095,77.0193757 123.558428,77.2033767 C123.481761,77.3873776 123.366763,77.6480416 123.213428,77.9853767 C123.060094,78.3533785 122.922096,78.7597078 122.799428,79.2043767 C122.676761,79.6490455 122.538763,80.1013744 122.385428,80.5613767 C121.925426,82.0640508 121.496097,83.2677055 121.097428,84.1723767 C120.69876,85.0770478 120.146765,85.5293767 119.441428,85.5293767 C119.349428,85.5293767 119.203763,85.4987103 119.004428,85.4373767 C118.805094,85.376043 118.628763,85.1767117 118.475428,84.8393767 C118.444762,84.778043 118.414095,84.7013771 118.383428,84.6093767 C118.352762,84.5173762 118.322095,84.3947108 118.291428,84.2413767 C118.230095,84.0573757 118.191762,83.8427112 118.176428,83.5973767 C118.161095,83.3520421 118.122762,83.0760449 118.061428,82.7693767 C118.000095,82.370708 117.923429,81.9260458 117.831428,81.4353767 C117.739428,80.9447075 117.639762,80.4540458 117.532428,79.9633767 C117.425095,79.4727075 117.294763,78.997379 117.141428,78.5373767 C116.988094,78.0773744 116.819429,77.6787117 116.635428,77.3413767 C116.482094,77.1267089 116.436095,76.8967112 116.497428,76.6513767 C116.558762,76.4060421 116.712094,76.2220439 116.957428,76.0993767 C117.172096,75.9460426 117.402094,75.900043 117.647428,75.9613767 C117.892763,76.0227103 118.076761,76.1760421 118.199428,76.4213767 C118.690098,77.2493808 119.050427,78.2230377 119.280428,79.3423767 C119.51043,80.4617156 119.702094,81.4813721 119.855428,82.4013767 C120.008763,82.0640416 120.139095,81.6883787 120.246428,81.2743767 C120.353762,80.8603746 120.484094,80.4387121 120.637428,80.0093767 C120.790763,79.4573739 120.959428,78.913046 121.143428,78.3763767 C121.327429,77.8397073 121.496094,77.3567121 121.649428,76.9273767 C121.864096,76.4367075 122.117094,75.9920453 122.408428,75.5933767 C122.699763,75.194708 123.090759,74.9953767 123.581428,74.9953767 C124.348099,74.9953767 124.992093,75.194708 125.513428,75.5933767 C126.126765,76.0227121 126.433428,76.5440403 126.433428,77.1573767 Z M136.507428,84.8393767 C136.87543,85.115378 137.013429,85.4373748 136.921428,85.8053767 C136.829428,86.2960458 136.522764,86.5413767 136.001428,86.5413767 L135.863428,86.5413767 C135.372759,86.4493762 135.050763,86.1887121 134.897428,85.7593767 C134.744094,85.3300412 134.636762,85.0080444 134.575428,84.7933767 C134.514095,84.4867085 134.468095,84.1417119 134.437428,83.7583767 C134.406762,83.3750414 134.391428,82.9380458 134.391428,82.4473767 C134.360762,82.2940426 134.345428,82.1637105 134.345428,82.0563767 L134.345428,81.7113767 L134.069428,82.0793767 C133.977428,82.2020439 133.870096,82.3247094 133.747428,82.4473767 C133.502094,82.723378 133.21843,83.0300416 132.896428,83.3673767 C132.574427,83.7047117 132.214097,84.0267085 131.815428,84.3333767 C131.41676,84.6400449 130.987431,84.8930423 130.527428,85.0923767 C130.067426,85.291711 129.592098,85.3913767 129.101428,85.3913767 C128.580093,85.3913767 128.150763,85.1920453 127.813428,84.7933767 C127.384093,84.3333744 127.192428,83.6817142 127.238428,82.8383767 C127.284429,81.9950391 127.384094,81.0520485 127.537428,80.0093767 C127.660096,79.2120393 127.752095,78.4300472 127.813428,77.6633767 C127.844095,77.2033744 127.828762,76.9043773 127.767428,76.7663767 C127.706095,76.628376 127.675428,76.5440435 127.675428,76.5133767 C127.522094,76.3293757 127.445428,76.1147112 127.445428,75.8693767 C127.445428,75.6240421 127.537428,75.4093776 127.721428,75.2253767 C127.936096,75.0720426 128.166094,74.9953767 128.411428,74.9953767 C128.656763,74.9953767 128.871428,75.1027089 129.055428,75.3173767 C129.484764,75.8080458 129.684095,76.4903723 129.653428,77.3643767 C129.622762,78.238381 129.530763,79.212038 129.377428,80.2853767 C129.316095,80.6840453 129.254762,81.0750414 129.193428,81.4583767 C129.132095,81.8417119 129.101428,82.2020416 129.101428,82.5393767 C129.070762,82.8460449 129.063095,83.0760426 129.078428,83.2293767 C129.093762,83.3827108 129.116762,83.490043 129.147428,83.5513767 C129.576764,83.5207098 130.075092,83.3060453 130.642428,82.9073767 C131.209765,82.508708 131.769426,81.9720467 132.321428,81.2973767 C132.904098,80.6227066 133.379427,79.9250469 133.747428,79.2043767 C134.11543,78.4837064 134.330095,77.8780458 134.391428,77.3873767 C134.391428,77.326043 134.399095,77.2723769 134.414428,77.2263767 C134.429762,77.1803764 134.437428,77.1267103 134.437428,77.0653767 C134.468095,76.666708 134.63676,76.4060439 134.943428,76.2833767 C135.066096,76.222043 135.219428,76.1913767 135.403428,76.1913767 C135.648763,76.2220435 135.855761,76.3140426 136.024428,76.4673767 C136.193096,76.6207108 136.277428,76.8507085 136.277428,77.1573767 L136.277428,77.8473767 C136.246762,78.2767121 136.223762,78.859373 136.208428,79.5953767 C136.193095,80.3313803 136.185428,81.0827062 136.185428,81.8493767 C136.216095,82.8920485 136.262095,83.6280412 136.323428,84.0573767 C136.384762,84.4867121 136.446095,84.7473762 136.507428,84.8393767 Z M144.971428,75.1793767 C145.186096,75.0260426 145.416094,74.9647098 145.661428,74.9953767 C145.906763,75.0260435 146.106094,75.1487089 146.259428,75.3633767 C146.412763,75.5780444 146.474095,75.8080421 146.443428,76.0533767 C146.412762,76.2987112 146.290096,76.4980426 146.075428,76.6513767 C145.462092,77.1420458 144.787432,77.4717091 144.051428,77.6403767 C143.315425,77.8090442 142.579432,77.924043 141.843428,77.9853767 C141.996763,79.0893822 142.119428,80.0323727 142.211428,80.8143767 C142.303429,81.5963806 142.357095,82.2480407 142.372428,82.7693767 C142.387762,83.2907126 142.357095,83.712375 142.280428,84.0343767 C142.203761,84.3563783 142.073429,84.6093757 141.889428,84.7933767 C141.644094,85.069378 141.33743,85.2073767 140.969428,85.2073767 C140.724094,85.2073767 140.509429,85.1153776 140.325428,84.9313767 C140.141428,84.7473757 140.049428,84.5327112 140.049428,84.2873767 C140.049428,83.9807085 140.20276,83.7200444 140.509428,83.5053767 C140.509428,83.3827094 140.517095,83.1757114 140.532428,82.8843767 C140.547762,82.5930419 140.524762,82.1560462 140.463428,81.5733767 C140.402095,81.0520407 140.333095,80.5000462 140.256428,79.9173767 C140.179761,79.3347071 140.095429,78.7060467 140.003428,78.0313767 L139.244428,78.0313767 C139.014427,78.0313767 138.792096,78.0467098 138.577428,78.0773767 L138.531428,78.0773767 C137.979426,78.0773767 137.672762,77.7860462 137.611428,77.2033767 C137.580762,76.9580421 137.657428,76.7433776 137.841428,76.5593767 C138.025429,76.3753757 138.240094,76.2680435 138.485428,76.2373767 C138.700096,76.2373767 138.907094,76.2297101 139.106428,76.2143767 C139.305763,76.1990432 139.528094,76.1913767 139.773428,76.1913767 C139.558761,74.8113698 139.374763,73.4083838 139.221428,71.9823767 C139.068094,70.5563695 138.960762,69.1533836 138.899428,67.7733767 C138.838095,65.9027006 138.930094,64.3693826 139.175428,63.1733767 C139.420763,61.9773707 139.834759,61.0420467 140.417428,60.3673767 C141.061432,59.5700393 141.935423,59.1713767 143.039428,59.1713767 C143.806099,59.1713767 144.373427,59.4013744 144.741428,59.8613767 C145.10943,60.321379 145.293428,60.8120407 145.293428,61.3333767 C145.293428,61.5787112 145.201429,61.7933757 145.017428,61.9773767 C144.833428,62.1613776 144.618763,62.2533767 144.373428,62.2533767 C144.128094,62.2533767 143.913429,62.1613776 143.729428,61.9773767 C143.545428,61.7933757 143.453428,61.5787112 143.453428,61.3333767 C143.453428,61.1800426 143.407429,61.0880435 143.315428,61.0573767 C143.223428,61.0267098 143.131429,61.0113767 143.039428,61.0113767 C142.518093,61.0113767 142.104097,61.1953748 141.797428,61.5633767 C141.000091,62.4527144 140.647428,64.5073606 140.739428,67.7273767 C140.800762,69.0767167 140.915761,70.4797027 141.084428,71.9363767 C141.253096,73.3930506 141.429428,74.8113698 141.613428,76.1913767 C142.226765,76.130043 142.824759,76.0303773 143.407428,75.8923767 C143.990098,75.754376 144.511426,75.5167117 144.971428,75.1793767 Z M154.217428,75.1793767 C154.432096,75.0260426 154.662094,74.9647098 154.907428,74.9953767 C155.152763,75.0260435 155.352094,75.1487089 155.505428,75.3633767 C155.658763,75.5780444 155.720095,75.8080421 155.689428,76.0533767 C155.658762,76.2987112 155.536096,76.4980426 155.321428,76.6513767 C154.708092,77.1420458 154.033432,77.4717091 153.297428,77.6403767 C152.561425,77.8090442 151.825432,77.924043 151.089428,77.9853767 C151.242763,79.0893822 151.365428,80.0323727 151.457428,80.8143767 C151.549429,81.5963806 151.603095,82.2480407 151.618428,82.7693767 C151.633762,83.2907126 151.603095,83.712375 151.526428,84.0343767 C151.449761,84.3563783 151.319429,84.6093757 151.135428,84.7933767 C150.890094,85.069378 150.58343,85.2073767 150.215428,85.2073767 C149.970094,85.2073767 149.755429,85.1153776 149.571428,84.9313767 C149.387428,84.7473757 149.295428,84.5327112 149.295428,84.2873767 C149.295428,83.9807085 149.44876,83.7200444 149.755428,83.5053767 C149.755428,83.3827094 149.763095,83.1757114 149.778428,82.8843767 C149.793762,82.5930419 149.770762,82.1560462 149.709428,81.5733767 C149.648095,81.0520407 149.579095,80.5000462 149.502428,79.9173767 C149.425761,79.3347071 149.341429,78.7060467 149.249428,78.0313767 L148.490428,78.0313767 C148.260427,78.0313767 148.038096,78.0467098 147.823428,78.0773767 L147.777428,78.0773767 C147.225426,78.0773767 146.918762,77.7860462 146.857428,77.2033767 C146.826762,76.9580421 146.903428,76.7433776 147.087428,76.5593767 C147.271429,76.3753757 147.486094,76.2680435 147.731428,76.2373767 C147.946096,76.2373767 148.153094,76.2297101 148.352428,76.2143767 C148.551763,76.1990432 148.774094,76.1913767 149.019428,76.1913767 C148.804761,74.8113698 148.620763,73.4083838 148.467428,71.9823767 C148.314094,70.5563695 148.206762,69.1533836 148.145428,67.7733767 C148.084095,65.9027006 148.176094,64.3693826 148.421428,63.1733767 C148.666763,61.9773707 149.080759,61.0420467 149.663428,60.3673767 C150.307432,59.5700393 151.181423,59.1713767 152.285428,59.1713767 C153.052099,59.1713767 153.619427,59.4013744 153.987428,59.8613767 C154.35543,60.321379 154.539428,60.8120407 154.539428,61.3333767 C154.539428,61.5787112 154.447429,61.7933757 154.263428,61.9773767 C154.079428,62.1613776 153.864763,62.2533767 153.619428,62.2533767 C153.374094,62.2533767 153.159429,62.1613776 152.975428,61.9773767 C152.791428,61.7933757 152.699428,61.5787112 152.699428,61.3333767 C152.699428,61.1800426 152.653429,61.0880435 152.561428,61.0573767 C152.469428,61.0267098 152.377429,61.0113767 152.285428,61.0113767 C151.764093,61.0113767 151.350097,61.1953748 151.043428,61.5633767 C150.246091,62.4527144 149.893428,64.5073606 149.985428,67.7273767 C150.046762,69.0767167 150.161761,70.4797027 150.330428,71.9363767 C150.499096,73.3930506 150.675428,74.8113698 150.859428,76.1913767 C151.472765,76.130043 152.070759,76.0303773 152.653428,75.8923767 C153.236098,75.754376 153.757426,75.5167117 154.217428,75.1793767 Z" id="Love-you-all,-Gaga-&amp;" transform="translate(80.046262, 52.213805) rotate(5.000000) translate(-80.046262, -52.213805) "></path>
                    <path d="M59.786,108.022 C60.3686696,108.083334 60.66,108.389997 60.66,108.942 C60.66,109.187335 60.5680009,109.401999 60.384,109.586 C60.1999991,109.770001 59.9853346,109.862 59.74,109.862 C59.5559991,109.862 59.3566677,109.823667 59.142,109.747 C58.9273323,109.670333 58.6590016,109.501668 58.337,109.241 C58.0149984,108.980332 57.6316689,108.612336 57.187,108.137 C56.7423311,107.661664 56.2133364,107.025337 55.6,106.228 C55.2013313,106.657335 54.7873355,107.063665 54.358,107.447 C53.9286645,107.830335 53.4686691,108.221331 52.978,108.62 C52.8553327,108.742667 52.6713346,108.804 52.426,108.804 C52.1193318,108.804 51.8740009,108.681335 51.69,108.436 C51.5366659,108.251999 51.4753332,108.029668 51.506,107.769 C51.5366668,107.508332 51.6593323,107.301334 51.874,107.148 C52.3646691,106.779998 52.8246645,106.396669 53.254,105.998 C53.6833355,105.599331 54.0819982,105.185335 54.45,104.756 C53.8366636,103.897329 53.2693359,103.077004 52.748,102.295 C52.2266641,101.512996 51.797335,100.876669 51.46,100.386 C51.3066659,100.171332 51.2606664,99.9413346 51.322,99.696 C51.3833336,99.4506654 51.5213323,99.2513341 51.736,99.098 C51.9506677,98.9446659 52.1806654,98.8986664 52.426,98.96 C52.6713346,99.0213336 52.8706659,99.1593323 53.024,99.374 C53.3000014,99.8033355 53.6756643,100.370663 54.151,101.076 C54.6263357,101.781337 55.1399972,102.517329 55.692,103.284 C56.2746696,102.486663 56.7806645,101.628005 57.21,100.708 C57.3020005,100.462665 57.4629988,100.301667 57.693,100.225 C57.9230012,100.148333 58.1606654,100.156 58.406,100.248 C58.6513346,100.370667 58.8199995,100.546999 58.912,100.777 C59.0040005,101.007001 58.9886673,101.244665 58.866,101.49 C58.3753309,102.594006 57.6853378,103.713328 56.796,104.848 C57.3173359,105.52267 57.7619982,106.066998 58.13,106.481 C58.4980018,106.895002 58.7969989,107.216999 59.027,107.447 C59.2570011,107.677001 59.4333327,107.830333 59.556,107.907 C59.6786673,107.983667 59.7553332,108.022 59.786,108.022 Z M69.584,108.022 C70.1666696,108.083334 70.458,108.389997 70.458,108.942 C70.458,109.187335 70.3660009,109.401999 70.182,109.586 C69.9979991,109.770001 69.7833346,109.862 69.538,109.862 C69.3539991,109.862 69.1546677,109.823667 68.94,109.747 C68.7253323,109.670333 68.4570016,109.501668 68.135,109.241 C67.8129984,108.980332 67.4296689,108.612336 66.985,108.137 C66.5403311,107.661664 66.0113364,107.025337 65.398,106.228 C64.9993313,106.657335 64.5853355,107.063665 64.156,107.447 C63.7266645,107.830335 63.2666691,108.221331 62.776,108.62 C62.6533327,108.742667 62.4693346,108.804 62.224,108.804 C61.9173318,108.804 61.6720009,108.681335 61.488,108.436 C61.3346659,108.251999 61.2733332,108.029668 61.304,107.769 C61.3346668,107.508332 61.4573323,107.301334 61.672,107.148 C62.1626691,106.779998 62.6226645,106.396669 63.052,105.998 C63.4813355,105.599331 63.8799982,105.185335 64.248,104.756 C63.6346636,103.897329 63.0673359,103.077004 62.546,102.295 C62.0246641,101.512996 61.595335,100.876669 61.258,100.386 C61.1046659,100.171332 61.0586664,99.9413346 61.12,99.696 C61.1813336,99.4506654 61.3193323,99.2513341 61.534,99.098 C61.7486677,98.9446659 61.9786654,98.8986664 62.224,98.96 C62.4693346,99.0213336 62.6686659,99.1593323 62.822,99.374 C63.0980014,99.8033355 63.4736643,100.370663 63.949,101.076 C64.4243357,101.781337 64.9379972,102.517329 65.49,103.284 C66.0726696,102.486663 66.5786645,101.628005 67.008,100.708 C67.1000005,100.462665 67.2609988,100.301667 67.491,100.225 C67.7210012,100.148333 67.9586654,100.156 68.204,100.248 C68.4493346,100.370667 68.6179995,100.546999 68.71,100.777 C68.8020005,101.007001 68.7866673,101.244665 68.664,101.49 C68.1733309,102.594006 67.4833378,103.713328 66.594,104.848 C67.1153359,105.52267 67.5599982,106.066998 67.928,106.481 C68.2960018,106.895002 68.5949989,107.216999 68.825,107.447 C69.0550011,107.677001 69.2313327,107.830333 69.354,107.907 C69.4766673,107.983667 69.5533332,108.022 69.584,108.022 Z M79.382,108.022 C79.9646696,108.083334 80.256,108.389997 80.256,108.942 C80.256,109.187335 80.1640009,109.401999 79.98,109.586 C79.7959991,109.770001 79.5813346,109.862 79.336,109.862 C79.1519991,109.862 78.9526677,109.823667 78.738,109.747 C78.5233323,109.670333 78.2550016,109.501668 77.933,109.241 C77.6109984,108.980332 77.2276689,108.612336 76.783,108.137 C76.3383311,107.661664 75.8093364,107.025337 75.196,106.228 C74.7973313,106.657335 74.3833355,107.063665 73.954,107.447 C73.5246645,107.830335 73.0646691,108.221331 72.574,108.62 C72.4513327,108.742667 72.2673346,108.804 72.022,108.804 C71.7153318,108.804 71.4700009,108.681335 71.286,108.436 C71.1326659,108.251999 71.0713332,108.029668 71.102,107.769 C71.1326668,107.508332 71.2553323,107.301334 71.47,107.148 C71.9606691,106.779998 72.4206645,106.396669 72.85,105.998 C73.2793355,105.599331 73.6779982,105.185335 74.046,104.756 C73.4326636,103.897329 72.8653359,103.077004 72.344,102.295 C71.8226641,101.512996 71.393335,100.876669 71.056,100.386 C70.9026659,100.171332 70.8566664,99.9413346 70.918,99.696 C70.9793336,99.4506654 71.1173323,99.2513341 71.332,99.098 C71.5466677,98.9446659 71.7766654,98.8986664 72.022,98.96 C72.2673346,99.0213336 72.4666659,99.1593323 72.62,99.374 C72.8960014,99.8033355 73.2716643,100.370663 73.747,101.076 C74.2223357,101.781337 74.7359972,102.517329 75.288,103.284 C75.8706696,102.486663 76.3766645,101.628005 76.806,100.708 C76.8980005,100.462665 77.0589988,100.301667 77.289,100.225 C77.5190012,100.148333 77.7566654,100.156 78.002,100.248 C78.2473346,100.370667 78.4159995,100.546999 78.508,100.777 C78.6000005,101.007001 78.5846673,101.244665 78.462,101.49 C77.9713309,102.594006 77.2813378,103.713328 76.392,104.848 C76.9133359,105.52267 77.3579982,106.066998 77.726,106.481 C78.0940018,106.895002 78.3929989,107.216999 78.623,107.447 C78.8530011,107.677001 79.0293327,107.830333 79.152,107.907 C79.2746673,107.983667 79.3513332,108.022 79.382,108.022 Z" id="xxx" transform="translate(65.775857, 104.397857) rotate(3.000000) translate(-65.775857, -104.397857) "></path>
                </g>
            </g>
        </g>
    </g>
</svg>