<?xml version="1.0" encoding="UTF-8"?>
<svg width="205px" height="46px" viewBox="0 0 205 46" version="1.1" xmlns="http://www.w3.org/2000/svg" xmlns:xlink="http://www.w3.org/1999/xlink">
    <!-- Generator: Sketch 47.1 (45422) - http://www.bohemiancoding.com/sketch -->
    <title>Clickthis</title>
    <desc>Created with Sketch.</desc>
    <defs></defs>
    <g id="Welcome" stroke="none" stroke-width="1" fill="none" fill-rule="evenodd">
        <g id="Desktop-HD" transform="translate(-488.000000, -2164.000000)">
            <g id="where?" transform="translate(0.000000, 1515.000000)">
                <g id="Clickthis" transform="translate(486.000000, 645.000000)">
                    <path d="M17.54,31.85 C17.7000008,31.9300004 17.8099997,32.0399993 17.87,32.18 C17.9300003,32.3200007 17.9200004,32.4699992 17.84,32.63 C17.5399985,33.3100034 17.0100038,33.8599979 16.25,34.28 C15.5499965,34.6600019 14.7300047,34.85 13.79,34.85 L13.43,34.85 C13.3099994,34.85 13.1900006,34.8400001 13.07,34.82 C12.1899956,34.7199995 11.4100034,34.3500032 10.73,33.71 C10.1499971,33.1499972 9.660002,32.3900048 9.26,31.43 C8.9199983,30.5699957 8.67500075,29.6000054 8.525,28.52 C8.37499925,27.4399946 8.3299997,26.3100059 8.39,25.13 C8.4500003,23.9699942 8.60499875,22.8650053 8.855,21.815 C9.10500125,20.7649948 9.4499978,19.840004 9.89,19.04 C10.9300052,17.0599901 12.2899916,16.07 13.97,16.07 C14.6500034,16.07 15.1699982,16.3399973 15.53,16.88 C15.7500011,17.2000016 15.8949996,17.5849978 15.965,18.035 C16.0350003,18.4850023 16.0500002,18.9649975 16.01,19.475 C15.9699998,19.9850026 15.8850006,20.4999974 15.755,21.02 C15.6249993,21.5400026 15.4700009,22.0399976 15.29,22.52 C15.2099996,22.6800008 15.1000007,22.7949997 14.96,22.865 C14.8199993,22.9350004 14.6700008,22.9400003 14.51,22.88 C14.3499992,22.8199997 14.2350003,22.7150008 14.165,22.565 C14.0949996,22.4149993 14.0899997,22.2600008 14.15,22.1 C14.3300009,21.6599978 14.4749994,21.2050024 14.585,20.735 C14.6950005,20.2649977 14.7699998,19.830002 14.81,19.43 C14.8500002,19.029998 14.8450002,18.6650017 14.795,18.335 C14.7449997,18.0049984 14.6600006,17.7500009 14.54,17.57 C14.4199994,17.369999 14.2300013,17.27 13.97,17.27 C13.5899981,17.27 13.2450015,17.3399993 12.935,17.48 C12.6249984,17.6200007 12.3450012,17.8049989 12.095,18.035 C11.8449987,18.2650012 11.6250009,18.5149987 11.435,18.785 C11.244999,19.0550014 11.0800007,19.3199987 10.94,19.58 C10.539998,20.3200037 10.2250011,21.1699952 9.995,22.13 C9.76499885,23.0900048 9.6300002,24.1099946 9.59,25.19 C9.5299997,26.190005 9.5599994,27.1799951 9.68,28.16 C9.8000006,29.1400049 10.0099985,30.0199961 10.31,30.8 C10.6100015,31.5800039 10.9999976,32.2299974 11.48,32.75 C11.9600024,33.2700026 12.5299967,33.5599997 13.19,33.62 C14.1300047,33.7400006 14.9599964,33.6100019 15.68,33.23 C16.0200017,33.0499991 16.2699992,32.8550011 16.43,32.645 C16.5900008,32.434999 16.6999997,32.2700006 16.76,32.15 C16.8200003,31.9899992 16.9249992,31.8800003 17.075,31.82 C17.2250007,31.7599997 17.3799992,31.7699996 17.54,31.85 Z M20.18,22.16 C20.2600004,22.7000027 20.3249997,23.3249965 20.375,24.035 C20.4250002,24.7450036 20.4699998,25.5499955 20.51,26.45 L20.57,28.85 C20.5900001,29.650004 20.6049999,30.3949966 20.615,31.085 C20.625,31.7750035 20.625,32.3949973 20.615,32.945 C20.6049999,33.4950028 20.6,33.9299984 20.6,34.25 C20.5799999,34.4100008 20.5150005,34.5449995 20.405,34.655 C20.2949994,34.7650006 20.1600008,34.82 20,34.82 L19.97,34.82 C19.8099992,34.82 19.6700006,34.7550007 19.55,34.625 C19.4299994,34.4949994 19.3799999,34.3500008 19.4,34.19 C19.4,33.8899985 19.4049999,33.4750027 19.415,32.945 C19.425,32.4149974 19.425,31.8100034 19.415,31.13 C19.4049999,30.4499966 19.3900001,29.7250039 19.37,28.955 C19.3499999,28.1849962 19.3300001,27.4100039 19.31,26.63 C19.2499997,25.429994 19.1900003,24.4450039 19.13,23.675 C19.0699997,22.9049962 19.0050003,22.2850024 18.935,21.815 C18.8649996,21.3449977 18.8000003,21.010001 18.74,20.81 C18.6799997,20.609999 18.6400001,20.4800003 18.62,20.42 C18.3799988,20.3199995 18.26,20.1400013 18.26,19.88 C18.26,19.7199992 18.3199994,19.5800006 18.44,19.46 C18.5600006,19.3399994 18.6999992,19.28 18.86,19.28 C19.060001,19.28 19.259999,19.3599992 19.46,19.52 C19.5200003,19.5800003 19.5799997,19.6649995 19.64,19.775 C19.7000003,19.8850006 19.7599997,20.039999 19.82,20.24 C19.8800003,20.440001 19.9399997,20.6899985 20,20.99 C20.0600003,21.2900015 20.1199997,21.6799976 20.18,22.16 Z M22.91,30.14 C22.8699998,30.2400005 22.8400001,30.4499984 22.82,30.77 C22.7999999,31.0900016 22.79,31.449998 22.79,31.85 C22.79,32.250002 22.8049998,32.6449981 22.835,33.035 C22.8650001,33.425002 22.9199996,33.7299989 23,33.95 C23.1000005,34.3300019 22.9700018,34.5899993 22.61,34.73 C22.5699998,34.7500001 22.5100004,34.76 22.43,34.76 C22.1499986,34.76 21.9600005,34.6300013 21.86,34.37 C21.7399994,34.0699985 21.6600002,33.6900023 21.62,33.23 C21.5799998,32.7699977 21.56,32.3050024 21.56,31.835 C21.56,31.3649977 21.5799998,30.9400019 21.62,30.56 C21.6600002,30.1799981 21.7099997,29.9100008 21.77,29.75 C21.9100007,29.3699981 22.1699981,29.2499993 22.55,29.39 C22.7100008,29.4300002 22.8199997,29.5249993 22.88,29.675 C22.9400003,29.8250008 22.9500002,29.9799992 22.91,30.14 Z M23,25.64 C23.0800004,25.9600016 23.1000002,26.2849984 23.06,26.615 C23.0199998,26.9450017 22.7700023,27.1899992 22.31,27.35 C22.2499997,27.3700001 22.1600006,27.38 22.04,27.38 C21.8199989,27.38 21.6400007,27.3200006 21.5,27.2 C21.1399982,26.9799989 20.9899997,26.670002 21.05,26.27 C21.0900002,25.9899986 21.2349987,25.7600009 21.485,25.58 C21.7350012,25.3999991 21.9999986,25.2800003 22.28,25.22 C22.4400008,25.1799998 22.5899993,25.1999996 22.73,25.28 C22.8700007,25.3600004 22.9599998,25.4799992 23,25.64 Z M28.7,32.99 C28.8600008,32.8899995 29.0149992,32.8649998 29.165,32.915 C29.3150007,32.9650003 29.4299996,33.0699992 29.51,33.23 C29.5900004,33.3900008 29.6100002,33.5449993 29.57,33.695 C29.5299998,33.8450008 29.4300008,33.9599996 29.27,34.04 C29.2499999,34.04 29.1450009,34.0899995 28.955,34.19 C28.764999,34.2900005 28.5200015,34.3899995 28.22,34.49 C27.9199985,34.5900005 27.5800019,34.6849996 27.2,34.775 C26.8199981,34.8650005 26.4400019,34.91 26.06,34.91 C25.2399959,34.91 24.6100022,34.5400037 24.17,33.8 C23.8499984,33.2199971 23.69,32.5100042 23.69,31.67 C23.69,31.1699975 23.7449994,30.6700025 23.855,30.17 C23.9650005,29.6699975 24.1249989,29.220002 24.335,28.82 C24.545001,28.419998 24.8049984,28.0950013 25.115,27.845 C25.4250015,27.5949988 25.7699981,27.47 26.15,27.47 C26.750003,27.47 27.244998,27.5999987 27.635,27.86 C28.0250019,28.1200013 28.2399998,28.3899986 28.28,28.67 C28.3200002,28.8300008 28.2850005,28.9749994 28.175,29.105 C28.0649994,29.2350007 27.9300008,29.3099999 27.77,29.33 C27.6299993,29.3700002 27.5000006,29.3500004 27.38,29.27 C27.2599994,29.1899996 27.1800002,29.0900006 27.14,28.97 C27.0999998,28.9299998 26.9950008,28.8700004 26.825,28.79 C26.6549991,28.7099996 26.4300014,28.67 26.15,28.67 C26.0099993,28.67 25.8650007,28.7499992 25.715,28.91 C25.5649992,29.0700008 25.4300006,29.2899986 25.31,29.57 C25.1899994,29.8500014 25.0900004,30.1699982 25.01,30.53 C24.9299996,30.8900018 24.89,31.269998 24.89,31.67 C24.89,32.3100032 24.9999989,32.8199981 25.22,33.2 C25.420001,33.5400017 25.6999982,33.71 26.06,33.71 C26.3600015,33.71 26.6649984,33.6750004 26.975,33.605 C27.2850015,33.5349997 27.5699987,33.4500005 27.83,33.35 C28.1300015,33.2499995 28.4199986,33.1300007 28.7,32.99 Z M36.89,33.17 C37.0500008,33.2100002 37.1649996,33.3049993 37.235,33.455 C37.3050003,33.6050008 37.3200002,33.7599992 37.28,33.92 C37.1799995,34.2000014 36.9900014,34.34 36.71,34.34 C36.6299996,34.34 36.5700002,34.3300001 36.53,34.31 C36.2299985,34.2299996 35.9150016,34.1050009 35.585,33.935 C35.2549983,33.7649992 34.9200017,33.5750011 34.58,33.365 C34.2399983,33.154999 33.9050016,32.9250013 33.575,32.675 C33.2449983,32.4249988 32.9400014,32.1800012 32.66,31.94 C32.4799991,32.6000033 32.2800011,33.1799975 32.06,33.68 C32.0199998,33.7800005 31.9700003,33.8949994 31.91,34.025 C31.8499997,34.1550007 31.7700005,34.2899993 31.67,34.43 C31.5699995,34.5700007 31.4550006,34.6849996 31.325,34.775 C31.1949993,34.8650005 31.0400009,34.91 30.86,34.91 C30.8399999,34.91 30.825,34.9050001 30.815,34.895 C30.8049999,34.885 30.7900001,34.88 30.77,34.88 C30.7099997,34.88 30.6200006,34.8500003 30.5,34.79 C30.3799994,34.7299997 30.2900003,34.6100009 30.23,34.43 C30.1699997,34.3499996 30.14,34.2400007 30.14,34.1 C30.1199999,33.9999995 30.105,33.8850007 30.095,33.755 C30.0849999,33.6249994 30.08,33.460001 30.08,33.26 C30.08,32.9399984 30.0849999,32.5600022 30.095,32.12 C30.105,31.6799978 30.1199999,31.2000026 30.14,30.68 C30.1600001,29.8999961 30.1749999,29.0450047 30.185,28.115 C30.195,27.1849954 30.1850001,26.2550047 30.155,25.325 C30.1249998,24.3949954 30.0700004,23.5050043 29.99,22.655 C29.9099996,21.8049958 29.7800009,21.080003 29.6,20.48 C29.5599998,20.3199992 29.5799996,20.1650008 29.66,20.015 C29.7400004,19.8649993 29.8599992,19.7700002 30.02,19.73 C30.1800008,19.6899998 30.3349992,19.7099996 30.485,19.79 C30.6350007,19.8700004 30.7299998,19.9899992 30.77,20.15 C30.9500009,20.7900032 31.0849995,21.5399957 31.175,22.4 C31.2650004,23.2600043 31.3249998,24.1649953 31.355,25.115 C31.3850001,26.0650048 31.395,27.0249952 31.385,27.995 C31.3749999,28.9650049 31.3600001,29.8699958 31.34,30.71 L31.28,32.33 L31.64,31.22 C31.9600016,30.1999949 32.2449987,29.3700032 32.495,28.73 C32.7450012,28.0899968 33.0399983,27.6500012 33.38,27.41 C33.5200007,27.3099995 33.6699992,27.2699999 33.83,27.29 C33.9900008,27.3100001 34.1199995,27.3899993 34.22,27.53 C34.3200005,27.6700007 34.3550001,27.8199992 34.325,27.98 C34.2949998,28.1400008 34.2200006,28.2699995 34.1,28.37 C34.0599998,28.4100002 33.9900005,28.4949994 33.89,28.625 C33.7899995,28.7550007 33.6600008,29.0299979 33.5,29.45 C33.3199991,29.850002 33.1800005,30.2599979 33.08,30.68 C33.3000011,30.9000011 33.5699984,31.1399987 33.89,31.4 C34.2100016,31.6600013 34.5449982,31.9049989 34.895,32.135 C35.2450017,32.3650012 35.5949982,32.5749991 35.945,32.765 C36.2950017,32.955001 36.6099986,33.0899996 36.89,33.17 Z M49.58,24.32 C49.2799985,24.4600007 48.9350019,24.5499998 48.545,24.59 C48.154998,24.6300002 47.7500021,24.6699998 47.33,24.71 L47.33,31.28 C47.3500001,31.7800025 47.3649999,32.1949984 47.375,32.525 C47.385,32.8550017 47.3999999,33.1299989 47.42,33.35 L47.465,33.845 C47.475,33.9550006 47.4899999,34.0399997 47.51,34.1 C47.5900004,34.2600008 47.63,34.3899995 47.63,34.49 C47.63,34.6500008 47.5700006,34.7899994 47.45,34.91 C47.3299994,35.0300006 47.1900008,35.09 47.03,35.09 C46.9299995,35.09 46.8050007,35.0500004 46.655,34.97 C46.5049992,34.8899996 46.4000003,34.7100014 46.34,34.43 L46.25,33.77 C46.1899997,33.3299978 46.16,32.6600045 46.16,31.76 C46.16,31.3799981 46.155,30.890003 46.145,30.29 C46.1349999,29.689997 46.13,29.0600033 46.13,28.4 L46.13,24.74 C45.8099984,24.74 45.5100014,24.7499999 45.23,24.77 C44.9499986,24.7900001 44.710001,24.8299997 44.51,24.89 L44.36,24.89 C44.0599985,24.89 43.8600005,24.7400015 43.76,24.44 C43.7199998,24.2799992 43.7449995,24.1300007 43.835,23.99 C43.9250004,23.8499993 44.0499992,23.7600002 44.21,23.72 C44.4900014,23.6399996 44.7899984,23.5900001 45.11,23.57 C45.4300016,23.5499999 45.7699982,23.54 46.13,23.54 L46.13,22.175 C46.13,22.0249993 46.125,21.8700008 46.115,21.71 C46.1049999,21.5499992 46.1,21.3300014 46.1,21.05 C46.0799999,20.1499955 46.0600001,19.5400016 46.04,19.22 C46.0199999,18.8999984 46.0000001,18.7000004 45.98,18.62 C45.9199997,18.4999994 45.9099998,18.3700007 45.95,18.23 C45.9900002,18.0899993 46.0699994,17.9700005 46.19,17.87 C46.3300007,17.7699995 46.4799992,17.7399998 46.64,17.78 C46.8000008,17.8200002 46.9299995,17.9099993 47.03,18.05 C47.0500001,18.1100003 47.0749998,18.1799996 47.105,18.26 C47.1350001,18.3400004 47.1599999,18.4749991 47.18,18.665 C47.2000001,18.855001 47.2199999,19.1249983 47.24,19.475 C47.2600001,19.8250018 47.2799999,20.2799972 47.3,20.84 C47.3,21.1400015 47.3049999,21.3699992 47.315,21.53 C47.325,21.6900008 47.33,21.8549992 47.33,22.025 L47.33,23.51 C47.6700017,23.4899999 47.9949984,23.4600002 48.305,23.42 C48.6150015,23.3799998 48.8799989,23.3100005 49.1,23.21 C49.2600008,23.1499997 49.4149992,23.1499997 49.565,23.21 C49.7150007,23.2700003 49.8199997,23.3799992 49.88,23.54 C49.9600004,23.7000008 49.9700003,23.8549993 49.91,24.005 C49.8499997,24.1550008 49.7400008,24.2599997 49.58,24.32 Z M55.85,35.51 C55.6899992,35.51 55.5500006,35.4500006 55.43,35.33 C55.3099994,35.2099994 55.25,35.0700008 55.25,34.91 C55.25,34.8299996 55.245,34.6600013 55.235,34.4 C55.2249999,34.1399987 55.2000002,33.8350018 55.16,33.485 C55.1199998,33.1349983 55.0600004,32.765002 54.98,32.375 C54.8999996,31.9849981 54.7900007,31.6300016 54.65,31.31 C54.5099993,30.9899984 54.335001,30.7250011 54.125,30.515 C53.9149989,30.304999 53.6600015,30.2 53.36,30.2 C53.1999992,30.2 53.0050011,30.3449986 52.775,30.635 C52.5449988,30.9250015 52.3200011,31.4399963 52.1,32.18 C51.9999995,32.4600014 51.9150003,32.7399986 51.845,33.02 C51.7749996,33.3000014 51.7200002,33.5499989 51.68,33.77 C51.6199997,34.0300013 51.5800001,34.2699989 51.56,34.49 C51.5399999,34.6500008 51.4750005,34.7749996 51.365,34.865 C51.2549994,34.9550005 51.1200008,35 50.96,35 C50.7199988,35 50.5300007,34.8800012 50.39,34.64 C50.3499998,34.5599996 50.3100002,34.4600006 50.27,34.34 C50.2499999,34.2599996 50.2300001,34.1650006 50.21,34.055 C50.1899999,33.9449995 50.1700001,33.8200007 50.15,33.68 C50.1099998,33.4199987 50.0700002,33.1150018 50.03,32.765 C49.9899998,32.4149983 49.9500002,32.0000024 49.91,31.52 C49.8299996,30.6399956 49.7600003,29.6800052 49.7,28.64 C49.6399997,27.5999948 49.5700004,26.5400054 49.49,25.46 C49.4499998,24.7999967 49.4100002,24.1600031 49.37,23.54 C49.3299998,22.9199969 49.2900002,22.3550026 49.25,21.845 C49.2099998,21.3349975 49.1750001,20.9000018 49.145,20.54 C49.1149998,20.1799982 49.0900001,19.9200008 49.07,19.76 C49.0299998,19.5999992 49.0549995,19.4500007 49.145,19.31 C49.2350004,19.1699993 49.3599992,19.0800002 49.52,19.04 C49.6800008,18.9999998 49.8299993,19.0299995 49.97,19.13 C50.1100007,19.2300005 50.1999998,19.3599992 50.24,19.52 C50.2600001,19.7000009 50.2899998,19.9749982 50.33,20.345 C50.3700002,20.7150019 50.4099998,21.1599974 50.45,21.68 C50.4900002,22.2000026 50.5299998,22.7749969 50.57,23.405 C50.6100002,24.0350032 50.6499998,24.6999965 50.69,25.4 L51.08,30.98 C51.08,31.0600004 51.0849999,31.1299997 51.095,31.19 C51.105,31.2500003 51.11,31.3099997 51.11,31.37 C51.3300011,30.7899971 51.5499989,30.3400016 51.77,30.02 C52.2100022,29.3399966 52.7399969,29 53.36,29 C53.5800011,29 53.8099988,29.0349997 54.05,29.105 C54.2900012,29.1750004 54.5299988,29.3049991 54.77,29.495 C55.0100012,29.685001 55.2349989,29.9449984 55.445,30.275 C55.655001,30.6050017 55.8399992,31.0299974 56,31.55 C56.200001,32.1900032 56.3249997,32.8399967 56.375,33.5 C56.4250002,34.1600033 56.45,34.6299986 56.45,34.91 C56.45,35.0700008 56.3900006,35.2099994 56.27,35.33 C56.1499994,35.4500006 56.0100008,35.51 55.85,35.51 Z M58.55,30.14 C58.5099998,30.2400005 58.4800001,30.4499984 58.46,30.77 C58.4399999,31.0900016 58.43,31.449998 58.43,31.85 C58.43,32.250002 58.4449998,32.6449981 58.475,33.035 C58.5050001,33.425002 58.5599996,33.7299989 58.64,33.95 C58.7400005,34.3300019 58.6100018,34.5899993 58.25,34.73 C58.2099998,34.7500001 58.1500004,34.76 58.07,34.76 C57.7899986,34.76 57.6000005,34.6300013 57.5,34.37 C57.3799994,34.0699985 57.3000002,33.6900023 57.26,33.23 C57.2199998,32.7699977 57.2,32.3050024 57.2,31.835 C57.2,31.3649977 57.2199998,30.9400019 57.26,30.56 C57.3000002,30.1799981 57.3499997,29.9100008 57.41,29.75 C57.5500007,29.3699981 57.8099981,29.2499993 58.19,29.39 C58.3500008,29.4300002 58.4599997,29.5249993 58.52,29.675 C58.5800003,29.8250008 58.5900002,29.9799992 58.55,30.14 Z M58.64,25.64 C58.7200004,25.9600016 58.7400002,26.2849984 58.7,26.615 C58.6599998,26.9450017 58.4100023,27.1899992 57.95,27.35 C57.8899997,27.3700001 57.8000006,27.38 57.68,27.38 C57.4599989,27.38 57.2800007,27.3200006 57.14,27.2 C56.7799982,26.9799989 56.6299997,26.670002 56.69,26.27 C56.7300002,25.9899986 56.8749987,25.7600009 57.125,25.58 C57.3750012,25.3999991 57.6399986,25.2800003 57.92,25.22 C58.0800008,25.1799998 58.2299993,25.1999996 58.37,25.28 C58.5100007,25.3600004 58.5999998,25.4799992 58.64,25.64 Z M62.81,34.94 C62.2699973,34.94 61.7200028,34.8500009 61.16,34.67 C60.5999972,34.4899991 60.1800014,34.2500015 59.9,33.95 C59.7999995,33.8299994 59.75,33.6850009 59.75,33.515 C59.75,33.3449992 59.8099994,33.2000006 59.93,33.08 C60.0500006,32.9799995 60.1949991,32.93 60.365,32.93 C60.5350008,32.93 60.6799994,32.9899994 60.8,33.11 C60.9000005,33.2300006 61.0599989,33.3349996 61.28,33.425 C61.5000011,33.5150005 61.7449986,33.5899997 62.015,33.65 C62.2850013,33.7100003 62.5549986,33.74 62.825,33.74 C63.0950013,33.74 63.3199991,33.7000004 63.5,33.62 C63.6000005,33.5799998 63.6549999,33.5500001 63.665,33.53 C63.675,33.5099999 63.68,33.4800002 63.68,33.44 C63.68,33.1999988 63.6000008,32.980001 63.44,32.78 C63.2799992,32.579999 63.0800012,32.3900009 62.84,32.21 C62.5999988,32.0299991 62.3350014,31.8600008 62.045,31.7 C61.7549985,31.5399992 61.4700014,31.3900007 61.19,31.25 C60.6499973,30.9899987 60.1950018,30.7400012 59.825,30.5 C59.4549981,30.2599988 59.27,29.940002 59.27,29.54 C59.27,29.0999978 59.4249984,28.6700021 59.735,28.25 C60.0450015,27.8299979 60.4499975,27.5100011 60.95,27.29 C61.5300029,27.0499988 62.1099971,26.9799995 62.69,27.08 C63.2700029,27.1800005 63.8099975,27.4599977 64.31,27.92 C64.4500007,28.0400006 64.52,28.1799992 64.52,28.34 C64.52,28.5000008 64.4700005,28.6499993 64.37,28.79 C64.2699995,28.9100006 64.1350008,28.975 63.965,28.985 C63.7949991,28.9950001 63.6500006,28.9400006 63.53,28.82 C63.3099989,28.619999 63.095001,28.4800004 62.885,28.4 C62.6749989,28.3199996 62.4800009,28.2700001 62.3,28.25 C62.1199991,28.2299999 61.9550007,28.2399998 61.805,28.28 C61.6549992,28.3200002 61.5300005,28.3599998 61.43,28.4 C61.1499986,28.5200006 60.9300008,28.684999 60.77,28.895 C60.6099992,29.1050011 60.5100002,29.2999991 60.47,29.48 C60.5700005,29.5800005 60.7449987,29.6949994 60.995,29.825 C61.2450012,29.9550007 61.4799989,30.0799994 61.7,30.2 C62.0400017,30.3600008 62.3849982,30.5349991 62.735,30.725 C63.0850017,30.915001 63.4099985,31.1299988 63.71,31.37 C64.4900039,31.970003 64.88,32.6599961 64.88,33.44 C64.88,34.0600031 64.5600032,34.4999987 63.92,34.76 C63.6199985,34.8800006 63.2500022,34.94 62.81,34.94 Z M76.25,34.94 C75.7099973,34.94 75.1600028,34.8500009 74.6,34.67 C74.0399972,34.4899991 73.6200014,34.2500015 73.34,33.95 C73.2399995,33.8299994 73.19,33.6850009 73.19,33.515 C73.19,33.3449992 73.2499994,33.2000006 73.37,33.08 C73.4900006,32.9799995 73.6349991,32.93 73.805,32.93 C73.9750008,32.93 74.1199994,32.9899994 74.24,33.11 C74.3400005,33.2300006 74.4999989,33.3349996 74.72,33.425 C74.9400011,33.5150005 75.1849986,33.5899997 75.455,33.65 C75.7250013,33.7100003 75.9949986,33.74 76.265,33.74 C76.5350013,33.74 76.7599991,33.7000004 76.94,33.62 C77.0400005,33.5799998 77.0949999,33.5500001 77.105,33.53 C77.115,33.5099999 77.12,33.4800002 77.12,33.44 C77.12,33.1999988 77.0400008,32.980001 76.88,32.78 C76.7199992,32.579999 76.5200012,32.3900009 76.28,32.21 C76.0399988,32.0299991 75.7750014,31.8600008 75.485,31.7 C75.1949985,31.5399992 74.9100014,31.3900007 74.63,31.25 C74.0899973,30.9899987 73.6350018,30.7400012 73.265,30.5 C72.8949981,30.2599988 72.71,29.940002 72.71,29.54 C72.71,29.0999978 72.8649984,28.6700021 73.175,28.25 C73.4850015,27.8299979 73.8899975,27.5100011 74.39,27.29 C74.9700029,27.0499988 75.5499971,26.9799995 76.13,27.08 C76.7100029,27.1800005 77.2499975,27.4599977 77.75,27.92 C77.8900007,28.0400006 77.96,28.1799992 77.96,28.34 C77.96,28.5000008 77.9100005,28.6499993 77.81,28.79 C77.7099995,28.9100006 77.5750008,28.975 77.405,28.985 C77.2349991,28.9950001 77.0900006,28.9400006 76.97,28.82 C76.7499989,28.619999 76.535001,28.4800004 76.325,28.4 C76.1149989,28.3199996 75.9200009,28.2700001 75.74,28.25 C75.5599991,28.2299999 75.3950007,28.2399998 75.245,28.28 C75.0949992,28.3200002 74.9700005,28.3599998 74.87,28.4 C74.5899986,28.5200006 74.3700008,28.684999 74.21,28.895 C74.0499992,29.1050011 73.9500002,29.2999991 73.91,29.48 C74.0100005,29.5800005 74.1849987,29.6949994 74.435,29.825 C74.6850012,29.9550007 74.9199989,30.0799994 75.14,30.2 C75.4800017,30.3600008 75.8249982,30.5349991 76.175,30.725 C76.5250017,30.915001 76.8499985,31.1299988 77.15,31.37 C77.9300039,31.970003 78.32,32.6599961 78.32,33.44 C78.32,34.0600031 78.0000032,34.4999987 77.36,34.76 C77.0599985,34.8800006 76.6900022,34.94 76.25,34.94 Z M85.55,35.51 C85.3899992,35.51 85.2500006,35.4500006 85.13,35.33 C85.0099994,35.2099994 84.95,35.0700008 84.95,34.91 C84.95,34.8299996 84.945,34.6600013 84.935,34.4 C84.9249999,34.1399987 84.9000002,33.8350018 84.86,33.485 C84.8199998,33.1349983 84.7600004,32.765002 84.68,32.375 C84.5999996,31.9849981 84.4900007,31.6300016 84.35,31.31 C84.2099993,30.9899984 84.035001,30.7250011 83.825,30.515 C83.6149989,30.304999 83.3600015,30.2 83.06,30.2 C82.8999992,30.2 82.7050011,30.3449986 82.475,30.635 C82.2449988,30.9250015 82.0200011,31.4399963 81.8,32.18 C81.6999995,32.4600014 81.6150003,32.7399986 81.545,33.02 C81.4749996,33.3000014 81.4200002,33.5499989 81.38,33.77 C81.3199997,34.0300013 81.2800001,34.2699989 81.26,34.49 C81.2399999,34.6500008 81.1750005,34.7749996 81.065,34.865 C80.9549994,34.9550005 80.8200008,35 80.66,35 C80.4199988,35 80.2300007,34.8800012 80.09,34.64 C80.0499998,34.5599996 80.0100002,34.4600006 79.97,34.34 C79.9499999,34.2599996 79.9300001,34.1650006 79.91,34.055 C79.8899999,33.9449995 79.8700001,33.8200007 79.85,33.68 C79.8099998,33.4199987 79.7700002,33.1150018 79.73,32.765 C79.6899998,32.4149983 79.6500002,32.0000024 79.61,31.52 C79.5299996,30.6399956 79.4600003,29.6800052 79.4,28.64 C79.3399997,27.5999948 79.2700004,26.5400054 79.19,25.46 C79.1499998,24.7999967 79.1100002,24.1600031 79.07,23.54 C79.0299998,22.9199969 78.9900002,22.3550026 78.95,21.845 C78.9099998,21.3349975 78.8750001,20.9000018 78.845,20.54 C78.8149998,20.1799982 78.7900001,19.9200008 78.77,19.76 C78.7299998,19.5999992 78.7549995,19.4500007 78.845,19.31 C78.9350004,19.1699993 79.0599992,19.0800002 79.22,19.04 C79.3800008,18.9999998 79.5299993,19.0299995 79.67,19.13 C79.8100007,19.2300005 79.8999998,19.3599992 79.94,19.52 C79.9600001,19.7000009 79.9899998,19.9749982 80.03,20.345 C80.0700002,20.7150019 80.1099998,21.1599974 80.15,21.68 C80.1900002,22.2000026 80.2299998,22.7749969 80.27,23.405 C80.3100002,24.0350032 80.3499998,24.6999965 80.39,25.4 L80.78,30.98 C80.78,31.0600004 80.7849999,31.1299997 80.795,31.19 C80.805,31.2500003 80.81,31.3099997 80.81,31.37 C81.0300011,30.7899971 81.2499989,30.3400016 81.47,30.02 C81.9100022,29.3399966 82.4399969,29 83.06,29 C83.2800011,29 83.5099988,29.0349997 83.75,29.105 C83.9900012,29.1750004 84.2299988,29.3049991 84.47,29.495 C84.7100012,29.685001 84.9349989,29.9449984 85.145,30.275 C85.355001,30.6050017 85.5399992,31.0299974 85.7,31.55 C85.900001,32.1900032 86.0249997,32.8399967 86.075,33.5 C86.1250002,34.1600033 86.15,34.6299986 86.15,34.91 C86.15,35.0700008 86.0900006,35.2099994 85.97,35.33 C85.8499994,35.4500006 85.7100008,35.51 85.55,35.51 Z M88.25,30.14 C88.2099998,30.2400005 88.1800001,30.4499984 88.16,30.77 C88.1399999,31.0900016 88.13,31.449998 88.13,31.85 C88.13,32.250002 88.1449998,32.6449981 88.175,33.035 C88.2050001,33.425002 88.2599996,33.7299989 88.34,33.95 C88.4400005,34.3300019 88.3100018,34.5899993 87.95,34.73 C87.9099998,34.7500001 87.8500004,34.76 87.77,34.76 C87.4899986,34.76 87.3000005,34.6300013 87.2,34.37 C87.0799994,34.0699985 87.0000002,33.6900023 86.96,33.23 C86.9199998,32.7699977 86.9,32.3050024 86.9,31.835 C86.9,31.3649977 86.9199998,30.9400019 86.96,30.56 C87.0000002,30.1799981 87.0499997,29.9100008 87.11,29.75 C87.2500007,29.3699981 87.5099981,29.2499993 87.89,29.39 C88.0500008,29.4300002 88.1599997,29.5249993 88.22,29.675 C88.2800003,29.8250008 88.2900002,29.9799992 88.25,30.14 Z M88.34,25.64 C88.4200004,25.9600016 88.4400002,26.2849984 88.4,26.615 C88.3599998,26.9450017 88.1100023,27.1899992 87.65,27.35 C87.5899997,27.3700001 87.5000006,27.38 87.38,27.38 C87.1599989,27.38 86.9800007,27.3200006 86.84,27.2 C86.4799982,26.9799989 86.3299997,26.670002 86.39,26.27 C86.4300002,25.9899986 86.5749987,25.7600009 86.825,25.58 C87.0750012,25.3999991 87.3399986,25.2800003 87.62,25.22 C87.7800008,25.1799998 87.9299993,25.1999996 88.07,25.28 C88.2100007,25.3600004 88.2999998,25.4799992 88.34,25.64 Z M93.53,24.32 C93.2299985,24.4600007 92.8850019,24.5499998 92.495,24.59 C92.104998,24.6300002 91.7000021,24.6699998 91.28,24.71 L91.28,31.28 C91.3000001,31.7800025 91.3149999,32.1949984 91.325,32.525 C91.335,32.8550017 91.3499999,33.1299989 91.37,33.35 L91.415,33.845 C91.425,33.9550006 91.4399999,34.0399997 91.46,34.1 C91.5400004,34.2600008 91.58,34.3899995 91.58,34.49 C91.58,34.6500008 91.5200006,34.7899994 91.4,34.91 C91.2799994,35.0300006 91.1400008,35.09 90.98,35.09 C90.8799995,35.09 90.7550007,35.0500004 90.605,34.97 C90.4549992,34.8899996 90.3500003,34.7100014 90.29,34.43 L90.2,33.77 C90.1399997,33.3299978 90.11,32.6600045 90.11,31.76 C90.11,31.3799981 90.105,30.890003 90.095,30.29 C90.0849999,29.689997 90.08,29.0600033 90.08,28.4 L90.08,24.74 C89.7599984,24.74 89.4600014,24.7499999 89.18,24.77 C88.8999986,24.7900001 88.660001,24.8299997 88.46,24.89 L88.31,24.89 C88.0099985,24.89 87.8100005,24.7400015 87.71,24.44 C87.6699998,24.2799992 87.6949995,24.1300007 87.785,23.99 C87.8750004,23.8499993 87.9999992,23.7600002 88.16,23.72 C88.4400014,23.6399996 88.7399984,23.5900001 89.06,23.57 C89.3800016,23.5499999 89.7199982,23.54 90.08,23.54 L90.08,22.175 C90.08,22.0249993 90.075,21.8700008 90.065,21.71 C90.0549999,21.5499992 90.05,21.3300014 90.05,21.05 C90.0299999,20.1499955 90.0100001,19.5400016 89.99,19.22 C89.9699999,18.8999984 89.9500001,18.7000004 89.93,18.62 C89.8699997,18.4999994 89.8599998,18.3700007 89.9,18.23 C89.9400002,18.0899993 90.0199994,17.9700005 90.14,17.87 C90.2800007,17.7699995 90.4299992,17.7399998 90.59,17.78 C90.7500008,17.8200002 90.8799995,17.9099993 90.98,18.05 C91.0000001,18.1100003 91.0249998,18.1799996 91.055,18.26 C91.0850001,18.3400004 91.1099999,18.4749991 91.13,18.665 C91.1500001,18.855001 91.1699999,19.1249983 91.19,19.475 C91.2100001,19.8250018 91.2299999,20.2799972 91.25,20.84 C91.25,21.1400015 91.2549999,21.3699992 91.265,21.53 C91.275,21.6900008 91.28,21.8549992 91.28,22.025 L91.28,23.51 C91.6200017,23.4899999 91.9449984,23.4600002 92.255,23.42 C92.5650015,23.3799998 92.8299989,23.3100005 93.05,23.21 C93.2100008,23.1499997 93.3649992,23.1499997 93.515,23.21 C93.6650007,23.2700003 93.7699997,23.3799992 93.83,23.54 C93.9100004,23.7000008 93.9200003,23.8549993 93.86,24.005 C93.7999997,24.1550008 93.6900008,24.2599997 93.53,24.32 Z M105.2,28.31 C105.340001,28.2099995 105.489999,28.1699999 105.65,28.19 C105.810001,28.2100001 105.939999,28.2899993 106.04,28.43 C106.14,28.5700007 106.18,28.7199992 106.16,28.88 C106.14,29.0400008 106.060001,29.1699995 105.92,29.27 C105.519998,29.5900016 105.080002,29.8049995 104.6,29.915 C104.119998,30.0250006 103.640002,30.0999998 103.16,30.14 C103.26,30.8600036 103.34,31.4749975 103.4,31.985 C103.46,32.4950026 103.495,32.9199983 103.505,33.26 C103.515,33.6000017 103.495,33.874999 103.445,34.085 C103.395,34.2950011 103.310001,34.4599994 103.19,34.58 C103.029999,34.7600009 102.830001,34.85 102.59,34.85 C102.429999,34.85 102.290001,34.7900006 102.17,34.67 C102.049999,34.5499994 101.99,34.4100008 101.99,34.25 C101.99,34.049999 102.089999,33.8800007 102.29,33.74 C102.29,33.6599996 102.295,33.525001 102.305,33.335 C102.315,33.1449991 102.3,32.8600019 102.26,32.48 C102.22,32.1399983 102.175,31.7800019 102.125,31.4 C102.075,31.0199981 102.02,30.6100022 101.96,30.17 L101.465,30.17 C101.314999,30.17 101.170001,30.1799999 101.03,30.2 L101,30.2 C100.639998,30.2 100.44,30.0100019 100.4,29.63 C100.38,29.4699992 100.429999,29.3300006 100.55,29.21 C100.670001,29.0899994 100.809999,29.0200001 100.97,29 C101.110001,29 101.244999,28.9950001 101.375,28.985 C101.505001,28.975 101.649999,28.97 101.81,28.97 C101.669999,28.0699955 101.55,27.1550047 101.45,26.225 C101.349999,25.2949954 101.28,24.3800045 101.24,23.48 C101.2,22.2599939 101.259999,21.2600039 101.42,20.48 C101.580001,19.6999961 101.849998,19.0900022 102.23,18.65 C102.650002,18.1299974 103.219996,17.87 103.94,17.87 C104.440002,17.87 104.809999,18.0199985 105.05,18.32 C105.290001,18.6200015 105.41,18.9399983 105.41,19.28 C105.41,19.4400008 105.350001,19.5799994 105.23,19.7 C105.109999,19.8200006 104.970001,19.88 104.81,19.88 C104.649999,19.88 104.510001,19.8200006 104.39,19.7 C104.269999,19.5799994 104.21,19.4400008 104.21,19.28 C104.21,19.1799995 104.18,19.1200001 104.12,19.1 C104.06,19.0799999 104,19.07 103.94,19.07 C103.599998,19.07 103.330001,19.1899988 103.13,19.43 C102.609997,20.0100029 102.38,21.3499895 102.44,23.45 C102.48,24.3300044 102.554999,25.2449953 102.665,26.195 C102.775001,27.1450048 102.889999,28.0699955 103.01,28.97 C103.410002,28.9299998 103.799998,28.8650005 104.18,28.775 C104.560002,28.6849996 104.899998,28.5300011 105.2,28.31 Z M108.14,33.95 C107.679998,33.95 107.285002,33.7800017 106.955,33.44 C106.624998,33.0999983 106.41,32.6400029 106.31,32.06 C106.25,31.659998 106.24,31.2250024 106.28,30.755 C106.32,30.2849977 106.409999,29.8400021 106.55,29.42 C106.930002,28.3799948 107.479996,27.7400012 108.2,27.5 C108.320001,27.4799999 108.439999,27.4799999 108.56,27.5 C108.6,27.4799999 108.65,27.47 108.71,27.47 L108.77,27.47 C108.890001,27.47 109.054999,27.475 109.265,27.485 C109.475001,27.4950001 109.699999,27.5199998 109.94,27.56 C110.180001,27.6000002 110.424999,27.6699995 110.675,27.77 C110.925001,27.8700005 111.149999,28.019999 111.35,28.22 C111.690002,28.5600017 111.86,29.029997 111.86,29.63 C111.84,30.0900023 111.730001,30.5699975 111.53,31.07 C111.329999,31.5700025 111.060002,32.0399978 110.72,32.48 C110.339998,32.9400023 109.930002,33.2999987 109.49,33.56 C109.049998,33.8200013 108.600002,33.95 108.14,33.95 Z M108.56,28.64 C108.379999,28.7200004 108.210001,28.8749989 108.05,29.105 C107.889999,29.3350012 107.76,29.5999985 107.66,29.9 C107.559999,30.2000015 107.495,30.5199983 107.465,30.86 C107.435,31.2000017 107.45,31.5299984 107.51,31.85 C107.55,32.0100008 107.61,32.1999989 107.69,32.42 C107.77,32.6400011 107.919999,32.75 108.14,32.75 C108.420001,32.75 108.704999,32.655001 108.995,32.465 C109.285001,32.2749991 109.549999,32.0250016 109.79,31.715 C110.030001,31.4049985 110.229999,31.0600019 110.39,30.68 C110.550001,30.2999981 110.64,29.9300018 110.66,29.57 C110.66,29.4099992 110.64,29.2950004 110.6,29.225 C110.56,29.1549997 110.52,29.1000002 110.48,29.06 C110.379999,28.9599995 110.205001,28.8650005 109.955,28.775 C109.704999,28.6849996 109.320003,28.6499999 108.8,28.67 L108.71,28.67 C108.65,28.67 108.6,28.6600001 108.56,28.64 Z M118.79,29.6 C118.79,29.7600008 118.730001,29.8999994 118.61,30.02 C118.489999,30.1400006 118.350001,30.2 118.19,30.2 C117.829998,30.2 117.63,30.0100019 117.59,29.63 C117.57,29.5899998 117.515,29.5450003 117.425,29.495 C117.335,29.4449998 117.210001,29.4100001 117.05,29.39 C117.01,29.4300002 116.965,29.5099994 116.915,29.63 C116.865,29.7500006 116.79,29.9199989 116.69,30.14 C116.589999,30.3800012 116.5,30.6449986 116.42,30.935 C116.34,31.2250015 116.25,31.5199985 116.15,31.82 C115.849998,32.8000049 115.570001,33.5849971 115.31,34.175 C115.049999,34.765003 114.690002,35.06 114.23,35.06 C114.17,35.06 114.075001,35.0400002 113.945,35 C113.814999,34.9599998 113.7,34.8300011 113.6,34.61 C113.58,34.5699998 113.56,34.5200003 113.54,34.46 C113.52,34.3999997 113.5,34.3200005 113.48,34.22 C113.44,34.0999994 113.415,33.9600008 113.405,33.8 C113.395,33.6399992 113.37,33.460001 113.33,33.26 C113.29,32.9999987 113.24,32.7100016 113.18,32.39 C113.12,32.0699984 113.055,31.7500016 112.985,31.43 C112.915,31.1099984 112.83,30.8000015 112.73,30.5 C112.629999,30.1999985 112.520001,29.9400011 112.4,29.72 C112.299999,29.5799993 112.27,29.4300008 112.31,29.27 C112.35,29.1099992 112.449999,28.9900004 112.61,28.91 C112.750001,28.8099995 112.899999,28.7799998 113.06,28.82 C113.220001,28.8600002 113.34,28.9599992 113.42,29.12 C113.740002,29.6600027 113.974999,30.2949964 114.125,31.025 C114.275001,31.7550037 114.399999,32.419997 114.5,33.02 C114.6,32.7999989 114.685,32.5550014 114.755,32.285 C114.825,32.0149987 114.909999,31.7400014 115.01,31.46 C115.11,31.0999982 115.219999,30.7450018 115.34,30.395 C115.460001,30.0449983 115.569999,29.7300014 115.67,29.45 C115.810001,29.1299984 115.974999,28.8400013 116.165,28.58 C116.355001,28.3199987 116.609998,28.19 116.93,28.19 C117.430002,28.19 117.849998,28.3199987 118.19,28.58 C118.590002,28.8600014 118.79,29.199998 118.79,29.6 Z M135.41,24.44 C136.090003,25.0000028 136.46,26.0399924 136.52,27.56 C136.56,28.2400034 136.525001,28.9299965 136.415,29.63 C136.304999,30.3300035 136.140001,30.9899969 135.92,31.61 C135.579998,32.5500047 135.140003,33.2899973 134.6,33.83 C133.959997,34.4900033 133.220004,34.82 132.38,34.82 C131.439995,34.82 130.580004,34.5500027 129.8,34.01 C129.119997,33.5299976 128.520003,32.8500044 128,31.97 C127.559998,31.1899961 127.225001,30.2950051 126.995,29.285 C126.764999,28.274995 126.65,27.2000057 126.65,26.06 C126.65,24.8799941 126.774999,23.7600053 127.025,22.7 C127.275001,21.6399947 127.629998,20.6900042 128.09,19.85 C128.590002,18.9299954 129.209996,18.2100026 129.95,17.69 C130.750004,17.1299972 131.639995,16.85 132.62,16.85 C132.940002,16.85 133.259998,16.9049995 133.58,17.015 C133.900002,17.1250006 134.199999,17.3099987 134.48,17.57 C134.760001,17.8300013 135.004999,18.1699979 135.215,18.59 C135.425001,19.0100021 135.57,19.519997 135.65,20.12 C135.67,20.2800008 135.63,20.4249994 135.53,20.555 C135.429999,20.6850007 135.300001,20.7699998 135.14,20.81 C134.979999,20.8300001 134.835001,20.7900005 134.705,20.69 C134.574999,20.5899995 134.49,20.4600008 134.45,20.3 C134.349999,19.5999965 134.140002,19.050002 133.82,18.65 C133.499998,18.249998 133.100002,18.05 132.62,18.05 C131.839996,18.05 131.155003,18.2799977 130.565,18.74 C129.974997,19.2000023 129.475002,19.8049963 129.065,20.555 C128.654998,21.3050038 128.350001,22.1599952 128.15,23.12 C127.949999,24.0800048 127.85,25.059995 127.85,26.06 C127.85,26.9600045 127.939999,27.8599955 128.12,28.76 C128.300001,29.6600045 128.579998,30.4699964 128.96,31.19 C129.340002,31.9100036 129.809997,32.4949978 130.37,32.945 C130.930003,33.3950023 131.599996,33.62 132.38,33.62 C132.720002,33.62 133.019999,33.5350009 133.28,33.365 C133.540001,33.1949992 133.764999,32.9850013 133.955,32.735 C134.145001,32.4849988 134.309999,32.2200014 134.45,31.94 C134.590001,31.6599986 134.7,31.4100011 134.78,31.19 C135.000001,30.6499973 135.155,30.0700031 135.245,29.45 C135.335,28.8299969 135.36,28.220003 135.32,27.62 C135.3,27.0799973 135.230001,26.610002 135.11,26.21 C134.989999,25.809998 134.830001,25.5300008 134.63,25.37 C134.59,25.3299998 134.480001,25.2850003 134.3,25.235 C134.119999,25.1849998 133.780002,25.1899997 133.28,25.25 C132.919998,25.2900002 132.550002,25.3449997 132.17,25.415 C131.789998,25.4850004 131.430002,25.5599996 131.09,25.64 C130.749998,25.7400005 130.485001,25.8049999 130.295,25.835 C130.104999,25.8650002 129.950001,25.88 129.83,25.88 C129.669999,25.8599999 129.530001,25.7900006 129.41,25.67 C129.289999,25.5499994 129.24,25.4100008 129.26,25.25 C129.26,25.0899992 129.319999,24.9500006 129.44,24.83 C129.560001,24.7099994 129.699999,24.6599999 129.86,24.68 C129.94,24.68 130.074999,24.6550003 130.265,24.605 C130.455001,24.5549998 130.639999,24.5100002 130.82,24.47 C131.820005,24.2499989 132.724996,24.1000004 133.535,24.02 C134.345004,23.9399996 134.969998,24.0799982 135.41,24.44 Z M138.65,33.95 C138.189998,33.95 137.795002,33.7800017 137.465,33.44 C137.134998,33.0999983 136.92,32.6400029 136.82,32.06 C136.76,31.659998 136.75,31.2250024 136.79,30.755 C136.83,30.2849977 136.919999,29.8400021 137.06,29.42 C137.440002,28.3799948 137.989996,27.7400012 138.71,27.5 C138.830001,27.4799999 138.949999,27.4799999 139.07,27.5 C139.11,27.4799999 139.16,27.47 139.22,27.47 L139.28,27.47 C139.400001,27.47 139.564999,27.475 139.775,27.485 C139.985001,27.4950001 140.209999,27.5199998 140.45,27.56 C140.690001,27.6000002 140.934999,27.6699995 141.185,27.77 C141.435001,27.8700005 141.659999,28.019999 141.86,28.22 C142.200002,28.5600017 142.37,29.029997 142.37,29.63 C142.35,30.0900023 142.240001,30.5699975 142.04,31.07 C141.839999,31.5700025 141.570002,32.0399978 141.23,32.48 C140.849998,32.9400023 140.440002,33.2999987 140,33.56 C139.559998,33.8200013 139.110002,33.95 138.65,33.95 Z M139.07,28.64 C138.889999,28.7200004 138.720001,28.8749989 138.56,29.105 C138.399999,29.3350012 138.27,29.5999985 138.17,29.9 C138.069999,30.2000015 138.005,30.5199983 137.975,30.86 C137.945,31.2000017 137.96,31.5299984 138.02,31.85 C138.06,32.0100008 138.12,32.1999989 138.2,32.42 C138.28,32.6400011 138.429999,32.75 138.65,32.75 C138.930001,32.75 139.214999,32.655001 139.505,32.465 C139.795001,32.2749991 140.059999,32.0250016 140.3,31.715 C140.540001,31.4049985 140.739999,31.0600019 140.9,30.68 C141.060001,30.2999981 141.15,29.9300018 141.17,29.57 C141.17,29.4099992 141.15,29.2950004 141.11,29.225 C141.07,29.1549997 141.03,29.1000002 140.99,29.06 C140.889999,28.9599995 140.715001,28.8650005 140.465,28.775 C140.214999,28.6849996 139.830003,28.6499999 139.31,28.67 L139.22,28.67 C139.16,28.67 139.11,28.6600001 139.07,28.64 Z M144.68,33.95 C144.219998,33.95 143.825002,33.7800017 143.495,33.44 C143.164998,33.0999983 142.95,32.6400029 142.85,32.06 C142.79,31.659998 142.78,31.2250024 142.82,30.755 C142.86,30.2849977 142.949999,29.8400021 143.09,29.42 C143.470002,28.3799948 144.019996,27.7400012 144.74,27.5 C144.860001,27.4799999 144.979999,27.4799999 145.1,27.5 C145.14,27.4799999 145.19,27.47 145.25,27.47 L145.31,27.47 C145.430001,27.47 145.594999,27.475 145.805,27.485 C146.015001,27.4950001 146.239999,27.5199998 146.48,27.56 C146.720001,27.6000002 146.964999,27.6699995 147.215,27.77 C147.465001,27.8700005 147.689999,28.019999 147.89,28.22 C148.230002,28.5600017 148.4,29.029997 148.4,29.63 C148.38,30.0900023 148.270001,30.5699975 148.07,31.07 C147.869999,31.5700025 147.600002,32.0399978 147.26,32.48 C146.879998,32.9400023 146.470002,33.2999987 146.03,33.56 C145.589998,33.8200013 145.140002,33.95 144.68,33.95 Z M145.1,28.64 C144.919999,28.7200004 144.750001,28.8749989 144.59,29.105 C144.429999,29.3350012 144.3,29.5999985 144.2,29.9 C144.099999,30.2000015 144.035,30.5199983 144.005,30.86 C143.975,31.2000017 143.99,31.5299984 144.05,31.85 C144.09,32.0100008 144.15,32.1999989 144.23,32.42 C144.31,32.6400011 144.459999,32.75 144.68,32.75 C144.960001,32.75 145.244999,32.655001 145.535,32.465 C145.825001,32.2749991 146.089999,32.0250016 146.33,31.715 C146.570001,31.4049985 146.769999,31.0600019 146.93,30.68 C147.090001,30.2999981 147.18,29.9300018 147.2,29.57 C147.2,29.4099992 147.18,29.2950004 147.14,29.225 C147.1,29.1549997 147.06,29.1000002 147.02,29.06 C146.919999,28.9599995 146.745001,28.8650005 146.495,28.775 C146.244999,28.6849996 145.860003,28.6499999 145.34,28.67 L145.25,28.67 C145.19,28.67 145.14,28.6600001 145.1,28.64 Z M153.71,28.7 C154.090002,29.1200021 154.384999,29.6449969 154.595,30.275 C154.805001,30.9050032 154.955,31.5599966 155.045,32.24 C155.135,32.9200034 155.175,33.5999966 155.165,34.28 C155.155,34.9600034 155.13,35.5499975 155.09,36.05 C154.969999,37.4700071 154.760001,38.6599952 154.46,39.62 C154.059998,40.820006 153.510003,41.6499977 152.81,42.11 C152.329998,42.4100015 151.800003,42.56 151.22,42.56 C150.779998,42.56 150.340002,42.4900007 149.9,42.35 C149.739999,42.2899997 149.625,42.1900007 149.555,42.05 C149.485,41.9099993 149.47,41.7600008 149.51,41.6 C149.57,41.4399992 149.674999,41.3200004 149.825,41.24 C149.975001,41.1599996 150.129999,41.1499997 150.29,41.21 C151.050004,41.4500012 151.669998,41.4100016 152.15,41.09 C153.090005,40.4699969 153.669999,38.760014 153.89,35.96 C153.97,34.8999947 153.98,33.9350044 153.92,33.065 C153.86,32.1949957 153.730001,31.4500031 153.53,30.83 C153.47,31.0700012 153.39,31.3099988 153.29,31.55 L152.99,32.27 C152.249996,33.8100077 151.360005,34.58 150.32,34.58 C149.739997,34.58 149.310001,34.2900029 149.03,33.71 C148.829999,33.2699978 148.73,32.7600029 148.73,32.18 C148.73,31.6999976 148.789999,31.2150025 148.91,30.725 C149.030001,30.2349976 149.199999,29.790002 149.42,29.39 C149.980003,28.3299947 150.739995,27.8 151.7,27.8 C152.500004,27.8 153.169997,28.099997 153.71,28.7 Z M151.91,31.76 C152.130001,31.2999977 152.299999,30.8300024 152.42,30.35 C152.540001,29.8699976 152.61,29.5200011 152.63,29.3 C152.369999,29.099999 152.060002,29 151.7,29 C151.399998,29 151.150001,29.104999 150.95,29.315 C150.749999,29.5250011 150.590001,29.7399989 150.47,29.96 C150.309999,30.2800016 150.18,30.6349981 150.08,31.025 C149.979999,31.415002 149.93,31.7999981 149.93,32.18 C149.93,32.6400023 149.989999,32.969999 150.11,33.17 C150.15,33.2700005 150.19,33.3299999 150.23,33.35 C150.27,33.3700001 150.3,33.38 150.32,33.38 C150.580001,33.38 150.849999,33.2400014 151.13,32.96 C151.410001,32.6799986 151.669999,32.2800026 151.91,31.76 Z M157.52,22.16 C157.6,22.7000027 157.665,23.3249965 157.715,24.035 C157.765,24.7450036 157.81,25.5499955 157.85,26.45 L157.91,28.85 C157.93,29.650004 157.945,30.3949966 157.955,31.085 C157.965,31.7750035 157.965,32.3949973 157.955,32.945 C157.945,33.4950028 157.94,33.9299984 157.94,34.25 C157.92,34.4100008 157.855001,34.5449995 157.745,34.655 C157.634999,34.7650006 157.500001,34.82 157.34,34.82 L157.31,34.82 C157.149999,34.82 157.010001,34.7550007 156.89,34.625 C156.769999,34.4949994 156.72,34.3500008 156.74,34.19 C156.74,33.8899985 156.745,33.4750027 156.755,32.945 C156.765,32.4149974 156.765,31.8100034 156.755,31.13 C156.745,30.4499966 156.73,29.7250039 156.71,28.955 C156.69,28.1849962 156.67,27.4100039 156.65,26.63 C156.59,25.429994 156.53,24.4450039 156.47,23.675 C156.41,22.9049962 156.345,22.2850024 156.275,21.815 C156.205,21.3449977 156.14,21.010001 156.08,20.81 C156.02,20.609999 155.98,20.4800003 155.96,20.42 C155.719999,20.3199995 155.6,20.1400013 155.6,19.88 C155.6,19.7199992 155.659999,19.5800006 155.78,19.46 C155.900001,19.3399994 156.039999,19.28 156.2,19.28 C156.400001,19.28 156.599999,19.3599992 156.8,19.52 C156.86,19.5800003 156.92,19.6649995 156.98,19.775 C157.04,19.8850006 157.1,20.039999 157.16,20.24 C157.22,20.440001 157.28,20.6899985 157.34,20.99 C157.4,21.2900015 157.46,21.6799976 157.52,22.16 Z M164.33,33.53 C164.41,33.6900008 164.42,33.8449993 164.36,33.995 C164.3,34.1450008 164.190001,34.2499997 164.03,34.31 C163.629998,34.510001 163.210002,34.6499996 162.77,34.73 C162.329998,34.8100004 161.950002,34.85 161.63,34.85 C160.969997,34.85 160.445002,34.7400011 160.055,34.52 C159.664998,34.2999989 159.360001,34.0700012 159.14,33.83 C158.899999,33.5499986 158.710001,33.215002 158.57,32.825 C158.429999,32.4349981 158.36,32.0200022 158.36,31.58 C158.36,31.1199977 158.434999,30.6700022 158.585,30.23 C158.735001,29.7899978 158.939999,29.4000017 159.2,29.06 C159.860003,28.2199958 160.679995,27.8 161.66,27.8 C162.240003,27.8 162.649999,27.9399986 162.89,28.22 C163.130001,28.5000014 163.25,28.8099983 163.25,29.15 C163.25,29.9100038 162.920003,30.6499964 162.26,31.37 C161.919998,31.7100017 161.545002,31.9949989 161.135,32.225 C160.724998,32.4550012 160.290002,32.6099996 159.83,32.69 C159.950001,32.9500013 160.149999,33.1749991 160.43,33.365 C160.710001,33.555001 161.109997,33.65 161.63,33.65 C161.870001,33.65 162.169998,33.6200003 162.53,33.56 C162.890002,33.4999997 163.219998,33.3900008 163.52,33.23 C163.680001,33.1499996 163.834999,33.1399997 163.985,33.2 C164.135001,33.2600003 164.25,33.3699992 164.33,33.53 Z M159.62,31.52 C159.980002,31.4599997 160.309998,31.3400009 160.61,31.16 C160.910001,30.9799991 161.164999,30.7750012 161.375,30.545 C161.585001,30.3149989 161.749999,30.0750013 161.87,29.825 C161.990001,29.5749988 162.05,29.350001 162.05,29.15 C162.05,29.1099998 162.045,29.09 162.035,29.09 C162.025,29.09 162.02,29.0800001 162.02,29.06 C162,29.06 161.97,29.0500001 161.93,29.03 C161.89,29.03 161.85,29.0250001 161.81,29.015 C161.77,29.005 161.72,29 161.66,29 C161.339998,29 161.055001,29.0749993 160.805,29.225 C160.554999,29.3750008 160.340001,29.5699988 160.16,29.81 C159.979999,30.0500012 159.835001,30.3199985 159.725,30.62 C159.614999,30.9200015 159.56,31.2199985 159.56,31.52 L159.62,31.52 Z M187.1,35.06 C187.260001,35.1400004 187.365,35.2499993 187.415,35.39 C187.465,35.5300007 187.45,35.6799992 187.37,35.84 C187.249999,36.0600011 187.070001,36.17 186.83,36.17 C186.77,36.17 186.680001,36.1500002 186.56,36.11 C186.299999,35.9699993 186.085001,35.7250018 185.915,35.375 C185.744999,35.0249983 185.590001,34.5200033 185.45,33.86 C185.349999,33.3799976 185.26,32.8250032 185.18,32.195 C185.1,31.5649969 185.02,30.8300042 184.94,29.99 C184.88,29.2499963 184.83,28.480004 184.79,27.68 C184.75,26.879996 184.715,26.085004 184.685,25.295 C184.655,24.5049961 184.63,23.7300038 184.61,22.97 C184.59,22.2099962 184.57,21.5000033 184.55,20.84 C184.53,20.5999988 184.52,20.3600012 184.52,20.12 L184.52,19.4 C184.239999,20.2400042 183.970001,21.1499951 183.71,22.13 C183.449999,23.1100049 183.200001,24.0799952 182.96,25.04 C182.739999,25.840004 182.540001,26.5999964 182.36,27.32 C182.179999,28.0400036 182.000001,28.6799972 181.82,29.24 C181.599999,29.9800037 181.385001,30.5349982 181.175,30.905 C180.964999,31.2750019 180.690002,31.46 180.35,31.46 C179.829997,31.46 179.420001,31.1100035 179.12,30.41 C178.919999,29.9699978 178.740001,29.3200043 178.58,28.46 C178.419999,27.6999962 178.280001,26.8550047 178.16,25.925 C178.039999,24.9949954 177.93,24.0500048 177.83,23.09 C177.75,22.3899965 177.675,21.7150033 177.605,21.065 C177.535,20.4149968 177.45,19.8300026 177.35,19.31 C177.31,19.0099985 177.27,18.760001 177.23,18.56 C177.19,18.359999 177.15,18.1900007 177.11,18.05 C177.05,18.2700011 176.99,18.579998 176.93,18.98 C176.87,19.380002 176.82,19.8999968 176.78,20.54 C176.7,21.4000043 176.65,22.3449949 176.63,23.375 C176.61,24.4050052 176.58,25.4499947 176.54,26.51 C176.5,27.5300051 176.47,28.5049954 176.45,29.435 C176.43,30.3650047 176.39,31.1999963 176.33,31.94 C176.29,32.340002 176.25,32.6849986 176.21,32.975 C176.17,33.2650015 176.13,33.5199989 176.09,33.74 C176.07,33.8200004 176.045,33.9249994 176.015,34.055 C175.985,34.1850007 175.93,34.3099994 175.85,34.43 C175.77,34.5500006 175.675001,34.6549996 175.565,34.745 C175.454999,34.8350005 175.310001,34.88 175.13,34.88 C174.989999,34.88 174.835001,34.8400004 174.665,34.76 C174.494999,34.6799996 174.320001,34.5100013 174.14,34.25 C174.06,34.1099993 173.98,33.9500009 173.9,33.77 C173.82,33.5899991 173.74,33.3800012 173.66,33.14 C173.379999,32.2999958 173.150001,31.180007 172.97,29.78 C172.789999,28.5399938 172.645001,27.1900073 172.535,25.73 C172.424999,24.2699927 172.37,22.9100063 172.37,21.65 C172.37,21.4899992 172.429999,21.3500006 172.55,21.23 C172.670001,21.1099994 172.809999,21.05 172.97,21.05 C173.130001,21.05 173.269999,21.1099994 173.39,21.23 C173.510001,21.3500006 173.57,21.4899992 173.57,21.65 C173.57,22.7900057 173.615,24.0249934 173.705,25.355 C173.795,26.6850067 173.919999,27.949994 174.08,29.15 C174.240001,30.350006 174.399999,31.2599969 174.56,31.88 C174.720001,32.5000031 174.859999,32.9499986 174.98,33.23 C175.02,33.029999 175.05,32.7800015 175.07,32.48 C175.09,32.1799985 175.12,31.8000023 175.16,31.34 C175.2,30.6599966 175.23,29.9050042 175.25,29.075 C175.27,28.2449959 175.3,27.3800045 175.34,26.48 C175.38,25.2999941 175.415,24.1400057 175.445,23 C175.475,21.8599943 175.53,20.8300046 175.61,19.91 C175.69,18.909995 175.809999,18.1400027 175.97,17.6 C175.99,17.5199996 176.025,17.4050008 176.075,17.255 C176.125,17.1049993 176.195,16.9600007 176.285,16.82 C176.375,16.6799993 176.484999,16.5600005 176.615,16.46 C176.745001,16.3599995 176.909999,16.31 177.11,16.31 C177.530002,16.31 177.834999,16.5549976 178.025,17.045 C178.215001,17.5350025 178.359999,18.079997 178.46,18.68 C178.56,19.2600029 178.655,19.9149964 178.745,20.645 C178.835,21.3750037 178.929999,22.1499959 179.03,22.97 C179.13,23.8300043 179.229999,24.6799958 179.33,25.52 C179.43,26.3600042 179.539999,27.1399964 179.66,27.86 C179.780001,28.5000032 179.889999,28.9799984 179.99,29.3 C180.09,29.6200016 180.18,29.8599992 180.26,30.02 C180.32,29.8799993 180.395,29.6950012 180.485,29.465 C180.575,29.2349989 180.669999,28.920002 180.77,28.52 C180.930001,27.9999974 181.094999,27.4150033 181.265,26.765 C181.435001,26.1149968 181.609999,25.4400035 181.79,24.74 C181.990001,23.9799962 182.194999,23.205004 182.405,22.415 C182.615001,21.6249961 182.824999,20.8650037 183.035,20.135 C183.245001,19.4049964 183.464999,18.7250032 183.695,18.095 C183.925001,17.4649969 184.149999,16.9200023 184.37,16.46 C184.490001,16.1799986 184.719998,16.0699997 185.06,16.13 C185.14,16.1500001 185.229999,16.1949997 185.33,16.265 C185.43,16.3350004 185.5,16.469999 185.54,16.67 L185.6,16.97 C185.62,17.0700005 185.63,17.1899993 185.63,17.33 C185.63,17.4700007 185.64,17.6499989 185.66,17.87 L185.75,20.81 C185.77,21.4500032 185.79,22.1349964 185.81,22.865 C185.83,23.5950037 185.855,24.3449962 185.885,25.115 C185.915,25.8850039 185.95,26.6599961 185.99,27.44 C186.03,28.2200039 186.08,28.9699964 186.14,29.69 C186.260001,31.290008 186.409999,32.5299956 186.59,33.41 C186.710001,34.0700033 186.819999,34.499999 186.92,34.7 L187.1,35.06 Z M194.18,33.74 C194.440001,33.8400005 194.57,34.0299986 194.57,34.31 C194.57,34.4700008 194.510001,34.6099994 194.39,34.73 C194.269999,34.8500006 194.130001,34.91 193.97,34.91 C193.629998,34.91 193.385001,34.7700014 193.235,34.49 C193.084999,34.2099986 192.98,33.9900008 192.92,33.83 C192.84,33.6099989 192.765,33.3550015 192.695,33.065 C192.625,32.7749986 192.55,32.4700016 192.47,32.15 L192.2,31.07 C191.959999,31.3900016 191.670002,31.7399981 191.33,32.12 C190.909998,32.6000024 190.540002,32.9849986 190.22,33.275 C189.899998,33.5650015 189.615001,33.7849993 189.365,33.935 C189.114999,34.0850008 188.905001,34.1849998 188.735,34.235 C188.564999,34.2850003 188.420001,34.31 188.3,34.31 C187.899998,34.31 187.620001,34.1300018 187.46,33.77 C187.359999,33.5299988 187.31,33.2600015 187.31,32.96 C187.31,32.4999977 187.394999,31.9600031 187.565,31.34 C187.735001,30.7199969 187.959999,30.1200029 188.24,29.54 C188.380001,29.2799987 188.534999,29.0150014 188.705,28.745 C188.875001,28.4749987 189.069999,28.2250012 189.29,27.995 C189.510001,27.7649989 189.744999,27.5800007 189.995,27.44 C190.245001,27.2999993 190.519998,27.23 190.82,27.23 C191.260002,27.23 191.669998,27.4199981 192.05,27.8 C192.310001,28.1000015 192.549999,28.4899976 192.77,28.97 C192.950001,29.4100022 193.109999,29.8849975 193.25,30.395 C193.390001,30.9050026 193.519999,31.3999976 193.64,31.88 C193.7,32.1200012 193.755,32.3499989 193.805,32.57 C193.855,32.7900011 193.91,32.999999 193.97,33.2 C194.01,33.3600008 194.05,33.4799996 194.09,33.56 L194.18,33.74 Z M190.43,31.34 C190.710001,30.9999983 190.969999,30.6750016 191.21,30.365 C191.450001,30.0549985 191.629999,29.8200008 191.75,29.66 L191.66,29.45 C191.58,29.2699991 191.465001,29.0550013 191.315,28.805 C191.164999,28.5549988 191.000001,28.43 190.82,28.43 C190.499998,28.43 190.120002,28.7599967 189.68,29.42 C189.479999,29.7400016 189.295001,30.104998 189.125,30.515 C188.954999,30.9250021 188.810001,31.329998 188.69,31.73 C188.61,32.0700017 188.56,32.344999 188.54,32.555 C188.52,32.7650011 188.51,32.9299994 188.51,33.05 C188.670001,32.9899997 188.899998,32.8400012 189.2,32.6 C189.500001,32.3599988 189.909997,31.940003 190.43,31.34 Z M198.95,27.98 C199.450002,28.1000006 199.879998,28.3699979 200.24,28.79 C200.640002,29.2100021 200.87,29.7699965 200.93,30.47 C200.99,31.1700035 200.880001,31.8399968 200.6,32.48 C200.259998,33.2400038 199.760003,33.8099981 199.1,34.19 C198.359996,34.6300022 197.470005,34.8699998 196.43,34.91 C196.43,36.0100055 196.455,37.164994 196.505,38.375 C196.555,39.5850061 196.62,40.7499944 196.7,41.87 C196.72,42.0300008 196.675001,42.1699994 196.565,42.29 C196.454999,42.4100006 196.320001,42.4799999 196.16,42.5 L196.1,42.5 C195.939999,42.5 195.805001,42.4500005 195.695,42.35 C195.584999,42.2499995 195.52,42.1200008 195.5,41.96 C195.46,41.5199978 195.415,40.8500045 195.365,39.95 C195.315,39.0499955 195.275,38.0750053 195.245,37.025 C195.215,35.9749948 195.21,34.9300052 195.23,33.89 C195.25,32.8499948 195.309999,31.9600037 195.41,31.22 C195.249999,31.0999994 195.19,30.9200012 195.23,30.68 C195.33,30.079997 195.599998,29.5400024 196.04,29.06 C196.460002,28.5599975 196.979997,28.210001 197.6,28.01 C198.100002,27.8699993 198.549998,27.8599994 198.95,27.98 Z M199.49,32 C199.710001,31.4999975 199.785,31.0200023 199.715,30.56 C199.645,30.0999977 199.530001,29.7800009 199.37,29.6 C198.949998,29.1399977 198.470003,28.9999991 197.93,29.18 C197.589998,29.2800005 197.280001,29.4749986 197,29.765 C196.719999,30.0550015 196.53,30.3699983 196.43,30.71 C196.590001,30.8300006 196.65,30.9999989 196.61,31.22 C196.53,31.8800033 196.47,32.709995 196.43,33.71 C197.390005,33.6699998 198.099998,33.4700018 198.56,33.11 C199.020002,32.7499982 199.329999,32.3800019 199.49,32 Z M204.89,34.94 C204.349997,34.94 203.800003,34.8500009 203.24,34.67 C202.679997,34.4899991 202.260001,34.2500015 201.98,33.95 C201.879999,33.8299994 201.83,33.6850009 201.83,33.515 C201.83,33.3449992 201.889999,33.2000006 202.01,33.08 C202.130001,32.9799995 202.274999,32.93 202.445,32.93 C202.615001,32.93 202.759999,32.9899994 202.88,33.11 C202.98,33.2300006 203.139999,33.3349996 203.36,33.425 C203.580001,33.5150005 203.824999,33.5899997 204.095,33.65 C204.365001,33.7100003 204.634999,33.74 204.905,33.74 C205.175001,33.74 205.399999,33.7000004 205.58,33.62 C205.68,33.5799998 205.735,33.5500001 205.745,33.53 C205.755,33.5099999 205.76,33.4800002 205.76,33.44 C205.76,33.1999988 205.680001,32.980001 205.52,32.78 C205.359999,32.579999 205.160001,32.3900009 204.92,32.21 C204.679999,32.0299991 204.415001,31.8600008 204.125,31.7 C203.834999,31.5399992 203.550001,31.3900007 203.27,31.25 C202.729997,30.9899987 202.275002,30.7400012 201.905,30.5 C201.534998,30.2599988 201.35,29.940002 201.35,29.54 C201.35,29.0999978 201.504998,28.6700021 201.815,28.25 C202.125002,27.8299979 202.529997,27.5100011 203.03,27.29 C203.610003,27.0499988 204.189997,26.9799995 204.77,27.08 C205.350003,27.1800005 205.889997,27.4599977 206.39,27.92 C206.530001,28.0400006 206.6,28.1799992 206.6,28.34 C206.6,28.5000008 206.55,28.6499993 206.45,28.79 C206.349999,28.9100006 206.215001,28.975 206.045,28.985 C205.874999,28.9950001 205.730001,28.9400006 205.61,28.82 C205.389999,28.619999 205.175001,28.4800004 204.965,28.4 C204.754999,28.3199996 204.560001,28.2700001 204.38,28.25 C204.199999,28.2299999 204.035001,28.2399998 203.885,28.28 C203.734999,28.3200002 203.61,28.3599998 203.51,28.4 C203.229999,28.5200006 203.010001,28.684999 202.85,28.895 C202.689999,29.1050011 202.59,29.2999991 202.55,29.48 C202.65,29.5800005 202.824999,29.6949994 203.075,29.825 C203.325001,29.9550007 203.559999,30.0799994 203.78,30.2 C204.120002,30.3600008 204.464998,30.5349991 204.815,30.725 C205.165002,30.915001 205.489998,31.1299988 205.79,31.37 C206.570004,31.970003 206.96,32.6599961 206.96,33.44 C206.96,34.0600031 206.640003,34.4999987 206,34.76 C205.699998,34.8800006 205.330002,34.94 204.89,34.94 Z" id="Click-this-shit-for" fill="#685C79" transform="translate(107.662143, 29.315000) rotate(-9.000000) translate(-107.662143, -29.315000) "></path>
                    <g id="up-arrow" transform="translate(15.000000, 20.000000) scale(-1, 1) translate(-15.000000, -20.000000) translate(0.000000, 9.000000)" fill-rule="nonzero" fill="#84749A">
                        <path d="M15.9849129,-2.71601203 C15.7936234,-3.09466266 15.1719326,-3.09466266 14.9806431,-2.71601203 C13.3546825,0.218530307 11.872189,3.20040397 11.0113863,6.41893428 C10.9157416,6.89224756 11.4417877,7.36556084 11.872189,7.08157287 C12.8286364,6.41893428 13.6416167,5.6143017 14.3589523,4.66767514 C14.1676628,11.2940611 13.2590378,18.1571036 14.837176,24.6888269 C14.9328207,25.1621402 15.7457229,25.0674775 15.6979005,24.5940869 C14.837176,17.825707 15.5066892,11.1046584 15.6022558,4.33627851 C16.4152361,5.04624843 17.2282164,5.75621835 17.9933743,6.46618827 C18.3281309,6.79750757 19.0455446,6.60818225 18.9977222,6.04020632 C18.6150651,2.91641601 17.562973,-0.0181263332 15.9849129,-2.71601203 Z M15.8922032,2.95454545 C15.5980808,2.54545455 14.7647342,2.63636364 14.7647342,3.27272727 C14.7647342,3.31818182 14.7647342,3.36363636 14.7647342,3.36363636 C14.1764894,3.90909091 13.6372651,4.45454545 13,5 C13.7843263,2.90909091 14.7647342,0.954545455 15.8921231,-1 C16.872531,0.772727273 17.6078369,2.59090909 18,4.54545455 C17.4607757,4.09090909 16.872531,3.63636364 16.3332265,3.13636364 C16.2353459,2.95454545 16.0391843,2.90909091 15.8922032,2.95454545 Z" id="Shape" transform="translate(15.000000, 11.000000) rotate(61.000000) translate(-15.000000, -11.000000) "></path>
                    </g>
                </g>
            </g>
        </g>
    </g>
</svg>